<?xml version="1.0" encoding="utf-8" standalone="no"?>
<!DOCTYPE svg PUBLIC "-//W3C//DTD SVG 1.1//EN"
  "http://www.w3.org/Graphics/SVG/1.1/DTD/svg11.dtd">
<!-- Created with matplotlib (https://matplotlib.org/) -->
<svg height="345.6pt" version="1.1" viewBox="0 0 460.8 345.6" width="460.8pt" xmlns="http://www.w3.org/2000/svg" xmlns:xlink="http://www.w3.org/1999/xlink">
 <defs>
  <style type="text/css">
*{stroke-linecap:butt;stroke-linejoin:round;}
  </style>
 </defs>
 <g id="figure_1">
  <g id="patch_1">
   <path d="M 0 345.6 
L 460.8 345.6 
L 460.8 0 
L 0 0 
z
" style="fill:#ffffff;"/>
  </g>
  <g id="axes_1">
   <g id="patch_2">
    <path d="M 57.6 307.584 
L 414.72 307.584 
L 414.72 41.472 
L 57.6 41.472 
z
" style="fill:#ffffff;"/>
   </g>
   <g id="matplotlib.axis_1">
    <g id="xtick_1">
     <g id="line2d_1">
      <defs>
       <path d="M 0 0 
L 0 3.5 
" id="m5883f44bb1" style="stroke:#000000;stroke-width:0.8;"/>
      </defs>
      <g>
       <use style="stroke:#000000;stroke-width:0.8;" x="73.832727" xlink:href="#m5883f44bb1" y="307.584"/>
      </g>
     </g>
     <g id="text_1">
      <!-- 0.0 -->
      <defs>
       <path d="M 31.78125 66.40625 
Q 24.171875 66.40625 20.328125 58.90625 
Q 16.5 51.421875 16.5 36.375 
Q 16.5 21.390625 20.328125 13.890625 
Q 24.171875 6.390625 31.78125 6.390625 
Q 39.453125 6.390625 43.28125 13.890625 
Q 47.125 21.390625 47.125 36.375 
Q 47.125 51.421875 43.28125 58.90625 
Q 39.453125 66.40625 31.78125 66.40625 
z
M 31.78125 74.21875 
Q 44.046875 74.21875 50.515625 64.515625 
Q 56.984375 54.828125 56.984375 36.375 
Q 56.984375 17.96875 50.515625 8.265625 
Q 44.046875 -1.421875 31.78125 -1.421875 
Q 19.53125 -1.421875 13.0625 8.265625 
Q 6.59375 17.96875 6.59375 36.375 
Q 6.59375 54.828125 13.0625 64.515625 
Q 19.53125 74.21875 31.78125 74.21875 
z
" id="DejaVuSans-48"/>
       <path d="M 10.6875 12.40625 
L 21 12.40625 
L 21 0 
L 10.6875 0 
z
" id="DejaVuSans-46"/>
      </defs>
      <g transform="translate(65.881165 322.182437)scale(0.1 -0.1)">
       <use xlink:href="#DejaVuSans-48"/>
       <use x="63.623047" xlink:href="#DejaVuSans-46"/>
       <use x="95.410156" xlink:href="#DejaVuSans-48"/>
      </g>
     </g>
    </g>
    <g id="xtick_2">
     <g id="line2d_2">
      <g>
       <use style="stroke:#000000;stroke-width:0.8;" x="114.406431" xlink:href="#m5883f44bb1" y="307.584"/>
      </g>
     </g>
     <g id="text_2">
      <!-- 2.5 -->
      <defs>
       <path d="M 19.1875 8.296875 
L 53.609375 8.296875 
L 53.609375 0 
L 7.328125 0 
L 7.328125 8.296875 
Q 12.9375 14.109375 22.625 23.890625 
Q 32.328125 33.6875 34.8125 36.53125 
Q 39.546875 41.84375 41.421875 45.53125 
Q 43.3125 49.21875 43.3125 52.78125 
Q 43.3125 58.59375 39.234375 62.25 
Q 35.15625 65.921875 28.609375 65.921875 
Q 23.96875 65.921875 18.8125 64.3125 
Q 13.671875 62.703125 7.8125 59.421875 
L 7.8125 69.390625 
Q 13.765625 71.78125 18.9375 73 
Q 24.125 74.21875 28.421875 74.21875 
Q 39.75 74.21875 46.484375 68.546875 
Q 53.21875 62.890625 53.21875 53.421875 
Q 53.21875 48.921875 51.53125 44.890625 
Q 49.859375 40.875 45.40625 35.40625 
Q 44.1875 33.984375 37.640625 27.21875 
Q 31.109375 20.453125 19.1875 8.296875 
z
" id="DejaVuSans-50"/>
       <path d="M 10.796875 72.90625 
L 49.515625 72.90625 
L 49.515625 64.59375 
L 19.828125 64.59375 
L 19.828125 46.734375 
Q 21.96875 47.46875 24.109375 47.828125 
Q 26.265625 48.1875 28.421875 48.1875 
Q 40.625 48.1875 47.75 41.5 
Q 54.890625 34.8125 54.890625 23.390625 
Q 54.890625 11.625 47.5625 5.09375 
Q 40.234375 -1.421875 26.90625 -1.421875 
Q 22.3125 -1.421875 17.546875 -0.640625 
Q 12.796875 0.140625 7.71875 1.703125 
L 7.71875 11.625 
Q 12.109375 9.234375 16.796875 8.0625 
Q 21.484375 6.890625 26.703125 6.890625 
Q 35.15625 6.890625 40.078125 11.328125 
Q 45.015625 15.765625 45.015625 23.390625 
Q 45.015625 31 40.078125 35.4375 
Q 35.15625 39.890625 26.703125 39.890625 
Q 22.75 39.890625 18.8125 39.015625 
Q 14.890625 38.140625 10.796875 36.28125 
z
" id="DejaVuSans-53"/>
      </defs>
      <g transform="translate(106.454868 322.182437)scale(0.1 -0.1)">
       <use xlink:href="#DejaVuSans-50"/>
       <use x="63.623047" xlink:href="#DejaVuSans-46"/>
       <use x="95.410156" xlink:href="#DejaVuSans-53"/>
      </g>
     </g>
    </g>
    <g id="xtick_3">
     <g id="line2d_3">
      <g>
       <use style="stroke:#000000;stroke-width:0.8;" x="154.980134" xlink:href="#m5883f44bb1" y="307.584"/>
      </g>
     </g>
     <g id="text_3">
      <!-- 5.0 -->
      <g transform="translate(147.028572 322.182437)scale(0.1 -0.1)">
       <use xlink:href="#DejaVuSans-53"/>
       <use x="63.623047" xlink:href="#DejaVuSans-46"/>
       <use x="95.410156" xlink:href="#DejaVuSans-48"/>
      </g>
     </g>
    </g>
    <g id="xtick_4">
     <g id="line2d_4">
      <g>
       <use style="stroke:#000000;stroke-width:0.8;" x="195.553838" xlink:href="#m5883f44bb1" y="307.584"/>
      </g>
     </g>
     <g id="text_4">
      <!-- 7.5 -->
      <defs>
       <path d="M 8.203125 72.90625 
L 55.078125 72.90625 
L 55.078125 68.703125 
L 28.609375 0 
L 18.3125 0 
L 43.21875 64.59375 
L 8.203125 64.59375 
z
" id="DejaVuSans-55"/>
      </defs>
      <g transform="translate(187.602275 322.182437)scale(0.1 -0.1)">
       <use xlink:href="#DejaVuSans-55"/>
       <use x="63.623047" xlink:href="#DejaVuSans-46"/>
       <use x="95.410156" xlink:href="#DejaVuSans-53"/>
      </g>
     </g>
    </g>
    <g id="xtick_5">
     <g id="line2d_5">
      <g>
       <use style="stroke:#000000;stroke-width:0.8;" x="236.127541" xlink:href="#m5883f44bb1" y="307.584"/>
      </g>
     </g>
     <g id="text_5">
      <!-- 10.0 -->
      <defs>
       <path d="M 12.40625 8.296875 
L 28.515625 8.296875 
L 28.515625 63.921875 
L 10.984375 60.40625 
L 10.984375 69.390625 
L 28.421875 72.90625 
L 38.28125 72.90625 
L 38.28125 8.296875 
L 54.390625 8.296875 
L 54.390625 0 
L 12.40625 0 
z
" id="DejaVuSans-49"/>
      </defs>
      <g transform="translate(224.994729 322.182437)scale(0.1 -0.1)">
       <use xlink:href="#DejaVuSans-49"/>
       <use x="63.623047" xlink:href="#DejaVuSans-48"/>
       <use x="127.246094" xlink:href="#DejaVuSans-46"/>
       <use x="159.033203" xlink:href="#DejaVuSans-48"/>
      </g>
     </g>
    </g>
    <g id="xtick_6">
     <g id="line2d_6">
      <g>
       <use style="stroke:#000000;stroke-width:0.8;" x="276.701244" xlink:href="#m5883f44bb1" y="307.584"/>
      </g>
     </g>
     <g id="text_6">
      <!-- 12.5 -->
      <g transform="translate(265.568432 322.182437)scale(0.1 -0.1)">
       <use xlink:href="#DejaVuSans-49"/>
       <use x="63.623047" xlink:href="#DejaVuSans-50"/>
       <use x="127.246094" xlink:href="#DejaVuSans-46"/>
       <use x="159.033203" xlink:href="#DejaVuSans-53"/>
      </g>
     </g>
    </g>
    <g id="xtick_7">
     <g id="line2d_7">
      <g>
       <use style="stroke:#000000;stroke-width:0.8;" x="317.274948" xlink:href="#m5883f44bb1" y="307.584"/>
      </g>
     </g>
     <g id="text_7">
      <!-- 15.0 -->
      <g transform="translate(306.142135 322.182437)scale(0.1 -0.1)">
       <use xlink:href="#DejaVuSans-49"/>
       <use x="63.623047" xlink:href="#DejaVuSans-53"/>
       <use x="127.246094" xlink:href="#DejaVuSans-46"/>
       <use x="159.033203" xlink:href="#DejaVuSans-48"/>
      </g>
     </g>
    </g>
    <g id="xtick_8">
     <g id="line2d_8">
      <g>
       <use style="stroke:#000000;stroke-width:0.8;" x="357.848651" xlink:href="#m5883f44bb1" y="307.584"/>
      </g>
     </g>
     <g id="text_8">
      <!-- 17.5 -->
      <g transform="translate(346.715839 322.182437)scale(0.1 -0.1)">
       <use xlink:href="#DejaVuSans-49"/>
       <use x="63.623047" xlink:href="#DejaVuSans-55"/>
       <use x="127.246094" xlink:href="#DejaVuSans-46"/>
       <use x="159.033203" xlink:href="#DejaVuSans-53"/>
      </g>
     </g>
    </g>
    <g id="xtick_9">
     <g id="line2d_9">
      <g>
       <use style="stroke:#000000;stroke-width:0.8;" x="398.422355" xlink:href="#m5883f44bb1" y="307.584"/>
      </g>
     </g>
     <g id="text_9">
      <!-- 20.0 -->
      <g transform="translate(387.289542 322.182437)scale(0.1 -0.1)">
       <use xlink:href="#DejaVuSans-50"/>
       <use x="63.623047" xlink:href="#DejaVuSans-48"/>
       <use x="127.246094" xlink:href="#DejaVuSans-46"/>
       <use x="159.033203" xlink:href="#DejaVuSans-48"/>
      </g>
     </g>
    </g>
    <g id="text_10">
     <!-- Time(s) -->
     <defs>
      <path d="M -0.296875 72.90625 
L 61.375 72.90625 
L 61.375 64.59375 
L 35.5 64.59375 
L 35.5 0 
L 25.59375 0 
L 25.59375 64.59375 
L -0.296875 64.59375 
z
" id="DejaVuSans-84"/>
      <path d="M 9.421875 54.6875 
L 18.40625 54.6875 
L 18.40625 0 
L 9.421875 0 
z
M 9.421875 75.984375 
L 18.40625 75.984375 
L 18.40625 64.59375 
L 9.421875 64.59375 
z
" id="DejaVuSans-105"/>
      <path d="M 52 44.1875 
Q 55.375 50.25 60.0625 53.125 
Q 64.75 56 71.09375 56 
Q 79.640625 56 84.28125 50.015625 
Q 88.921875 44.046875 88.921875 33.015625 
L 88.921875 0 
L 79.890625 0 
L 79.890625 32.71875 
Q 79.890625 40.578125 77.09375 44.375 
Q 74.3125 48.1875 68.609375 48.1875 
Q 61.625 48.1875 57.5625 43.546875 
Q 53.515625 38.921875 53.515625 30.90625 
L 53.515625 0 
L 44.484375 0 
L 44.484375 32.71875 
Q 44.484375 40.625 41.703125 44.40625 
Q 38.921875 48.1875 33.109375 48.1875 
Q 26.21875 48.1875 22.15625 43.53125 
Q 18.109375 38.875 18.109375 30.90625 
L 18.109375 0 
L 9.078125 0 
L 9.078125 54.6875 
L 18.109375 54.6875 
L 18.109375 46.1875 
Q 21.1875 51.21875 25.484375 53.609375 
Q 29.78125 56 35.6875 56 
Q 41.65625 56 45.828125 52.96875 
Q 50 49.953125 52 44.1875 
z
" id="DejaVuSans-109"/>
      <path d="M 56.203125 29.59375 
L 56.203125 25.203125 
L 14.890625 25.203125 
Q 15.484375 15.921875 20.484375 11.0625 
Q 25.484375 6.203125 34.421875 6.203125 
Q 39.59375 6.203125 44.453125 7.46875 
Q 49.3125 8.734375 54.109375 11.28125 
L 54.109375 2.78125 
Q 49.265625 0.734375 44.1875 -0.34375 
Q 39.109375 -1.421875 33.890625 -1.421875 
Q 20.796875 -1.421875 13.15625 6.1875 
Q 5.515625 13.8125 5.515625 26.8125 
Q 5.515625 40.234375 12.765625 48.109375 
Q 20.015625 56 32.328125 56 
Q 43.359375 56 49.78125 48.890625 
Q 56.203125 41.796875 56.203125 29.59375 
z
M 47.21875 32.234375 
Q 47.125 39.59375 43.09375 43.984375 
Q 39.0625 48.390625 32.421875 48.390625 
Q 24.90625 48.390625 20.390625 44.140625 
Q 15.875 39.890625 15.1875 32.171875 
z
" id="DejaVuSans-101"/>
      <path d="M 31 75.875 
Q 24.46875 64.65625 21.28125 53.65625 
Q 18.109375 42.671875 18.109375 31.390625 
Q 18.109375 20.125 21.3125 9.0625 
Q 24.515625 -2 31 -13.1875 
L 23.1875 -13.1875 
Q 15.875 -1.703125 12.234375 9.375 
Q 8.59375 20.453125 8.59375 31.390625 
Q 8.59375 42.28125 12.203125 53.3125 
Q 15.828125 64.359375 23.1875 75.875 
z
" id="DejaVuSans-40"/>
      <path d="M 44.28125 53.078125 
L 44.28125 44.578125 
Q 40.484375 46.53125 36.375 47.5 
Q 32.28125 48.484375 27.875 48.484375 
Q 21.1875 48.484375 17.84375 46.4375 
Q 14.5 44.390625 14.5 40.28125 
Q 14.5 37.15625 16.890625 35.375 
Q 19.28125 33.59375 26.515625 31.984375 
L 29.59375 31.296875 
Q 39.15625 29.25 43.1875 25.515625 
Q 47.21875 21.78125 47.21875 15.09375 
Q 47.21875 7.46875 41.1875 3.015625 
Q 35.15625 -1.421875 24.609375 -1.421875 
Q 20.21875 -1.421875 15.453125 -0.5625 
Q 10.6875 0.296875 5.421875 2 
L 5.421875 11.28125 
Q 10.40625 8.6875 15.234375 7.390625 
Q 20.0625 6.109375 24.8125 6.109375 
Q 31.15625 6.109375 34.5625 8.28125 
Q 37.984375 10.453125 37.984375 14.40625 
Q 37.984375 18.0625 35.515625 20.015625 
Q 33.0625 21.96875 24.703125 23.78125 
L 21.578125 24.515625 
Q 13.234375 26.265625 9.515625 29.90625 
Q 5.8125 33.546875 5.8125 39.890625 
Q 5.8125 47.609375 11.28125 51.796875 
Q 16.75 56 26.8125 56 
Q 31.78125 56 36.171875 55.265625 
Q 40.578125 54.546875 44.28125 53.078125 
z
" id="DejaVuSans-115"/>
      <path d="M 8.015625 75.875 
L 15.828125 75.875 
Q 23.140625 64.359375 26.78125 53.3125 
Q 30.421875 42.28125 30.421875 31.390625 
Q 30.421875 20.453125 26.78125 9.375 
Q 23.140625 -1.703125 15.828125 -13.1875 
L 8.015625 -13.1875 
Q 14.5 -2 17.703125 9.0625 
Q 20.90625 20.125 20.90625 31.390625 
Q 20.90625 42.671875 17.703125 53.65625 
Q 14.5 64.65625 8.015625 75.875 
z
" id="DejaVuSans-41"/>
     </defs>
     <g transform="translate(217.420156 335.860562)scale(0.1 -0.1)">
      <use xlink:href="#DejaVuSans-84"/>
      <use x="57.958984" xlink:href="#DejaVuSans-105"/>
      <use x="85.742188" xlink:href="#DejaVuSans-109"/>
      <use x="183.154297" xlink:href="#DejaVuSans-101"/>
      <use x="244.677734" xlink:href="#DejaVuSans-40"/>
      <use x="283.691406" xlink:href="#DejaVuSans-115"/>
      <use x="335.791016" xlink:href="#DejaVuSans-41"/>
     </g>
    </g>
   </g>
   <g id="matplotlib.axis_2">
    <g id="ytick_1">
     <g id="line2d_10">
      <defs>
       <path d="M 0 0 
L -3.5 0 
" id="m47d7863d77" style="stroke:#000000;stroke-width:0.8;"/>
      </defs>
      <g>
       <use style="stroke:#000000;stroke-width:0.8;" x="57.6" xlink:href="#m47d7863d77" y="278.855572"/>
      </g>
     </g>
     <g id="text_11">
      <!-- −0.0002 -->
      <defs>
       <path d="M 10.59375 35.5 
L 73.1875 35.5 
L 73.1875 27.203125 
L 10.59375 27.203125 
z
" id="DejaVuSans-8722"/>
      </defs>
      <g transform="translate(7.229687 282.654791)scale(0.1 -0.1)">
       <use xlink:href="#DejaVuSans-8722"/>
       <use x="83.789062" xlink:href="#DejaVuSans-48"/>
       <use x="147.412109" xlink:href="#DejaVuSans-46"/>
       <use x="179.199219" xlink:href="#DejaVuSans-48"/>
       <use x="242.822266" xlink:href="#DejaVuSans-48"/>
       <use x="306.445312" xlink:href="#DejaVuSans-48"/>
       <use x="370.068359" xlink:href="#DejaVuSans-50"/>
      </g>
     </g>
    </g>
    <g id="ytick_2">
     <g id="line2d_11">
      <g>
       <use style="stroke:#000000;stroke-width:0.8;" x="57.6" xlink:href="#m47d7863d77" y="244.954551"/>
      </g>
     </g>
     <g id="text_12">
      <!-- 0.0000 -->
      <g transform="translate(15.609375 248.75377)scale(0.1 -0.1)">
       <use xlink:href="#DejaVuSans-48"/>
       <use x="63.623047" xlink:href="#DejaVuSans-46"/>
       <use x="95.410156" xlink:href="#DejaVuSans-48"/>
       <use x="159.033203" xlink:href="#DejaVuSans-48"/>
       <use x="222.65625" xlink:href="#DejaVuSans-48"/>
       <use x="286.279297" xlink:href="#DejaVuSans-48"/>
      </g>
     </g>
    </g>
    <g id="ytick_3">
     <g id="line2d_12">
      <g>
       <use style="stroke:#000000;stroke-width:0.8;" x="57.6" xlink:href="#m47d7863d77" y="211.05353"/>
      </g>
     </g>
     <g id="text_13">
      <!-- 0.0002 -->
      <g transform="translate(15.609375 214.852749)scale(0.1 -0.1)">
       <use xlink:href="#DejaVuSans-48"/>
       <use x="63.623047" xlink:href="#DejaVuSans-46"/>
       <use x="95.410156" xlink:href="#DejaVuSans-48"/>
       <use x="159.033203" xlink:href="#DejaVuSans-48"/>
       <use x="222.65625" xlink:href="#DejaVuSans-48"/>
       <use x="286.279297" xlink:href="#DejaVuSans-50"/>
      </g>
     </g>
    </g>
    <g id="ytick_4">
     <g id="line2d_13">
      <g>
       <use style="stroke:#000000;stroke-width:0.8;" x="57.6" xlink:href="#m47d7863d77" y="177.152509"/>
      </g>
     </g>
     <g id="text_14">
      <!-- 0.0004 -->
      <defs>
       <path d="M 37.796875 64.3125 
L 12.890625 25.390625 
L 37.796875 25.390625 
z
M 35.203125 72.90625 
L 47.609375 72.90625 
L 47.609375 25.390625 
L 58.015625 25.390625 
L 58.015625 17.1875 
L 47.609375 17.1875 
L 47.609375 0 
L 37.796875 0 
L 37.796875 17.1875 
L 4.890625 17.1875 
L 4.890625 26.703125 
z
" id="DejaVuSans-52"/>
      </defs>
      <g transform="translate(15.609375 180.951728)scale(0.1 -0.1)">
       <use xlink:href="#DejaVuSans-48"/>
       <use x="63.623047" xlink:href="#DejaVuSans-46"/>
       <use x="95.410156" xlink:href="#DejaVuSans-48"/>
       <use x="159.033203" xlink:href="#DejaVuSans-48"/>
       <use x="222.65625" xlink:href="#DejaVuSans-48"/>
       <use x="286.279297" xlink:href="#DejaVuSans-52"/>
      </g>
     </g>
    </g>
    <g id="ytick_5">
     <g id="line2d_14">
      <g>
       <use style="stroke:#000000;stroke-width:0.8;" x="57.6" xlink:href="#m47d7863d77" y="143.251488"/>
      </g>
     </g>
     <g id="text_15">
      <!-- 0.0006 -->
      <defs>
       <path d="M 33.015625 40.375 
Q 26.375 40.375 22.484375 35.828125 
Q 18.609375 31.296875 18.609375 23.390625 
Q 18.609375 15.53125 22.484375 10.953125 
Q 26.375 6.390625 33.015625 6.390625 
Q 39.65625 6.390625 43.53125 10.953125 
Q 47.40625 15.53125 47.40625 23.390625 
Q 47.40625 31.296875 43.53125 35.828125 
Q 39.65625 40.375 33.015625 40.375 
z
M 52.59375 71.296875 
L 52.59375 62.3125 
Q 48.875 64.0625 45.09375 64.984375 
Q 41.3125 65.921875 37.59375 65.921875 
Q 27.828125 65.921875 22.671875 59.328125 
Q 17.53125 52.734375 16.796875 39.40625 
Q 19.671875 43.65625 24.015625 45.921875 
Q 28.375 48.1875 33.59375 48.1875 
Q 44.578125 48.1875 50.953125 41.515625 
Q 57.328125 34.859375 57.328125 23.390625 
Q 57.328125 12.15625 50.6875 5.359375 
Q 44.046875 -1.421875 33.015625 -1.421875 
Q 20.359375 -1.421875 13.671875 8.265625 
Q 6.984375 17.96875 6.984375 36.375 
Q 6.984375 53.65625 15.1875 63.9375 
Q 23.390625 74.21875 37.203125 74.21875 
Q 40.921875 74.21875 44.703125 73.484375 
Q 48.484375 72.75 52.59375 71.296875 
z
" id="DejaVuSans-54"/>
      </defs>
      <g transform="translate(15.609375 147.050707)scale(0.1 -0.1)">
       <use xlink:href="#DejaVuSans-48"/>
       <use x="63.623047" xlink:href="#DejaVuSans-46"/>
       <use x="95.410156" xlink:href="#DejaVuSans-48"/>
       <use x="159.033203" xlink:href="#DejaVuSans-48"/>
       <use x="222.65625" xlink:href="#DejaVuSans-48"/>
       <use x="286.279297" xlink:href="#DejaVuSans-54"/>
      </g>
     </g>
    </g>
    <g id="ytick_6">
     <g id="line2d_15">
      <g>
       <use style="stroke:#000000;stroke-width:0.8;" x="57.6" xlink:href="#m47d7863d77" y="109.350467"/>
      </g>
     </g>
     <g id="text_16">
      <!-- 0.0008 -->
      <defs>
       <path d="M 31.78125 34.625 
Q 24.75 34.625 20.71875 30.859375 
Q 16.703125 27.09375 16.703125 20.515625 
Q 16.703125 13.921875 20.71875 10.15625 
Q 24.75 6.390625 31.78125 6.390625 
Q 38.8125 6.390625 42.859375 10.171875 
Q 46.921875 13.96875 46.921875 20.515625 
Q 46.921875 27.09375 42.890625 30.859375 
Q 38.875 34.625 31.78125 34.625 
z
M 21.921875 38.8125 
Q 15.578125 40.375 12.03125 44.71875 
Q 8.5 49.078125 8.5 55.328125 
Q 8.5 64.0625 14.71875 69.140625 
Q 20.953125 74.21875 31.78125 74.21875 
Q 42.671875 74.21875 48.875 69.140625 
Q 55.078125 64.0625 55.078125 55.328125 
Q 55.078125 49.078125 51.53125 44.71875 
Q 48 40.375 41.703125 38.8125 
Q 48.828125 37.15625 52.796875 32.3125 
Q 56.78125 27.484375 56.78125 20.515625 
Q 56.78125 9.90625 50.3125 4.234375 
Q 43.84375 -1.421875 31.78125 -1.421875 
Q 19.734375 -1.421875 13.25 4.234375 
Q 6.78125 9.90625 6.78125 20.515625 
Q 6.78125 27.484375 10.78125 32.3125 
Q 14.796875 37.15625 21.921875 38.8125 
z
M 18.3125 54.390625 
Q 18.3125 48.734375 21.84375 45.5625 
Q 25.390625 42.390625 31.78125 42.390625 
Q 38.140625 42.390625 41.71875 45.5625 
Q 45.3125 48.734375 45.3125 54.390625 
Q 45.3125 60.0625 41.71875 63.234375 
Q 38.140625 66.40625 31.78125 66.40625 
Q 25.390625 66.40625 21.84375 63.234375 
Q 18.3125 60.0625 18.3125 54.390625 
z
" id="DejaVuSans-56"/>
      </defs>
      <g transform="translate(15.609375 113.149686)scale(0.1 -0.1)">
       <use xlink:href="#DejaVuSans-48"/>
       <use x="63.623047" xlink:href="#DejaVuSans-46"/>
       <use x="95.410156" xlink:href="#DejaVuSans-48"/>
       <use x="159.033203" xlink:href="#DejaVuSans-48"/>
       <use x="222.65625" xlink:href="#DejaVuSans-48"/>
       <use x="286.279297" xlink:href="#DejaVuSans-56"/>
      </g>
     </g>
    </g>
    <g id="ytick_7">
     <g id="line2d_16">
      <g>
       <use style="stroke:#000000;stroke-width:0.8;" x="57.6" xlink:href="#m47d7863d77" y="75.449446"/>
      </g>
     </g>
     <g id="text_17">
      <!-- 0.0010 -->
      <g transform="translate(15.609375 79.248665)scale(0.1 -0.1)">
       <use xlink:href="#DejaVuSans-48"/>
       <use x="63.623047" xlink:href="#DejaVuSans-46"/>
       <use x="95.410156" xlink:href="#DejaVuSans-48"/>
       <use x="159.033203" xlink:href="#DejaVuSans-48"/>
       <use x="222.65625" xlink:href="#DejaVuSans-49"/>
       <use x="286.279297" xlink:href="#DejaVuSans-48"/>
      </g>
     </g>
    </g>
    <g id="ytick_8">
     <g id="line2d_17">
      <g>
       <use style="stroke:#000000;stroke-width:0.8;" x="57.6" xlink:href="#m47d7863d77" y="41.548425"/>
      </g>
     </g>
     <g id="text_18">
      <!-- 0.0012 -->
      <g transform="translate(15.609375 45.347644)scale(0.1 -0.1)">
       <use xlink:href="#DejaVuSans-48"/>
       <use x="63.623047" xlink:href="#DejaVuSans-46"/>
       <use x="95.410156" xlink:href="#DejaVuSans-48"/>
       <use x="159.033203" xlink:href="#DejaVuSans-48"/>
       <use x="222.65625" xlink:href="#DejaVuSans-49"/>
       <use x="286.279297" xlink:href="#DejaVuSans-50"/>
      </g>
     </g>
    </g>
    <g id="text_19">
     <!-- Amplitude -->
     <defs>
      <path d="M 34.1875 63.1875 
L 20.796875 26.90625 
L 47.609375 26.90625 
z
M 28.609375 72.90625 
L 39.796875 72.90625 
L 67.578125 0 
L 57.328125 0 
L 50.6875 18.703125 
L 17.828125 18.703125 
L 11.1875 0 
L 0.78125 0 
z
" id="DejaVuSans-65"/>
      <path d="M 18.109375 8.203125 
L 18.109375 -20.796875 
L 9.078125 -20.796875 
L 9.078125 54.6875 
L 18.109375 54.6875 
L 18.109375 46.390625 
Q 20.953125 51.265625 25.265625 53.625 
Q 29.59375 56 35.59375 56 
Q 45.5625 56 51.78125 48.09375 
Q 58.015625 40.1875 58.015625 27.296875 
Q 58.015625 14.40625 51.78125 6.484375 
Q 45.5625 -1.421875 35.59375 -1.421875 
Q 29.59375 -1.421875 25.265625 0.953125 
Q 20.953125 3.328125 18.109375 8.203125 
z
M 48.6875 27.296875 
Q 48.6875 37.203125 44.609375 42.84375 
Q 40.53125 48.484375 33.40625 48.484375 
Q 26.265625 48.484375 22.1875 42.84375 
Q 18.109375 37.203125 18.109375 27.296875 
Q 18.109375 17.390625 22.1875 11.75 
Q 26.265625 6.109375 33.40625 6.109375 
Q 40.53125 6.109375 44.609375 11.75 
Q 48.6875 17.390625 48.6875 27.296875 
z
" id="DejaVuSans-112"/>
      <path d="M 9.421875 75.984375 
L 18.40625 75.984375 
L 18.40625 0 
L 9.421875 0 
z
" id="DejaVuSans-108"/>
      <path d="M 18.3125 70.21875 
L 18.3125 54.6875 
L 36.8125 54.6875 
L 36.8125 47.703125 
L 18.3125 47.703125 
L 18.3125 18.015625 
Q 18.3125 11.328125 20.140625 9.421875 
Q 21.96875 7.515625 27.59375 7.515625 
L 36.8125 7.515625 
L 36.8125 0 
L 27.59375 0 
Q 17.1875 0 13.234375 3.875 
Q 9.28125 7.765625 9.28125 18.015625 
L 9.28125 47.703125 
L 2.6875 47.703125 
L 2.6875 54.6875 
L 9.28125 54.6875 
L 9.28125 70.21875 
z
" id="DejaVuSans-116"/>
      <path d="M 8.5 21.578125 
L 8.5 54.6875 
L 17.484375 54.6875 
L 17.484375 21.921875 
Q 17.484375 14.15625 20.5 10.265625 
Q 23.53125 6.390625 29.59375 6.390625 
Q 36.859375 6.390625 41.078125 11.03125 
Q 45.3125 15.671875 45.3125 23.6875 
L 45.3125 54.6875 
L 54.296875 54.6875 
L 54.296875 0 
L 45.3125 0 
L 45.3125 8.40625 
Q 42.046875 3.421875 37.71875 1 
Q 33.40625 -1.421875 27.6875 -1.421875 
Q 18.265625 -1.421875 13.375 4.4375 
Q 8.5 10.296875 8.5 21.578125 
z
M 31.109375 56 
z
" id="DejaVuSans-117"/>
      <path d="M 45.40625 46.390625 
L 45.40625 75.984375 
L 54.390625 75.984375 
L 54.390625 0 
L 45.40625 0 
L 45.40625 8.203125 
Q 42.578125 3.328125 38.25 0.953125 
Q 33.9375 -1.421875 27.875 -1.421875 
Q 17.96875 -1.421875 11.734375 6.484375 
Q 5.515625 14.40625 5.515625 27.296875 
Q 5.515625 40.1875 11.734375 48.09375 
Q 17.96875 56 27.875 56 
Q 33.9375 56 38.25 53.625 
Q 42.578125 51.265625 45.40625 46.390625 
z
M 14.796875 27.296875 
Q 14.796875 17.390625 18.875 11.75 
Q 22.953125 6.109375 30.078125 6.109375 
Q 37.203125 6.109375 41.296875 11.75 
Q 45.40625 17.390625 45.40625 27.296875 
Q 45.40625 37.203125 41.296875 42.84375 
Q 37.203125 48.484375 30.078125 48.484375 
Q 22.953125 48.484375 18.875 42.84375 
Q 14.796875 37.203125 14.796875 27.296875 
z
" id="DejaVuSans-100"/>
     </defs>
     <g transform="translate(1.15 200.150656)rotate(-90)scale(0.1 -0.1)">
      <use xlink:href="#DejaVuSans-65"/>
      <use x="68.408203" xlink:href="#DejaVuSans-109"/>
      <use x="165.820312" xlink:href="#DejaVuSans-112"/>
      <use x="229.296875" xlink:href="#DejaVuSans-108"/>
      <use x="257.080078" xlink:href="#DejaVuSans-105"/>
      <use x="284.863281" xlink:href="#DejaVuSans-116"/>
      <use x="324.072266" xlink:href="#DejaVuSans-117"/>
      <use x="387.451172" xlink:href="#DejaVuSans-100"/>
      <use x="450.927734" xlink:href="#DejaVuSans-101"/>
     </g>
    </g>
   </g>
   <g id="line2d_18">
    <path clip-path="url(#p462e223c7a)" d="M 73.832727 244.954551 
L 89.870662 244.844098 
L 90.065455 244.841347 
L 90.195316 245.321884 
L 90.325178 244.731301 
L 90.390109 244.807761 
L 90.519971 245.289364 
L 90.649833 244.741779 
L 90.714764 244.769202 
L 90.844625 245.252554 
L 91.039418 244.743204 
L 91.16928 245.231585 
L 91.364073 244.751346 
L 91.493935 245.21914 
L 91.558865 245.132111 
L 91.688727 244.738745 
L 91.818589 245.178086 
L 91.88352 245.133722 
L 92.013382 244.693046 
L 92.208175 245.103783 
L 92.338036 244.62202 
L 92.402967 244.733218 
L 92.532829 245.042096 
L 92.662691 244.522128 
L 92.727622 244.584627 
L 92.857484 244.949135 
L 93.052276 244.410721 
L 93.182138 244.820866 
L 93.376931 244.202457 
L 93.506793 244.65186 
L 93.701585 243.962568 
L 93.831447 244.434255 
L 94.02624 243.673075 
L 94.091171 243.935692 
L 94.156102 244.178049 
L 94.350895 243.346977 
L 94.415825 243.593818 
L 94.480756 243.868937 
L 94.545687 243.701904 
L 94.675549 242.97049 
L 94.805411 243.5159 
L 94.870342 243.357512 
L 95.000204 242.53514 
L 95.130065 243.099866 
L 95.194996 242.9569 
L 95.324858 242.057834 
L 95.45472 242.619195 
L 95.519651 242.496233 
L 95.649513 241.516436 
L 95.714444 241.705679 
L 95.779375 242.076203 
L 95.844305 241.96588 
L 95.974167 240.921587 
L 96.039098 241.085078 
L 96.104029 241.465464 
L 96.16896 241.371638 
L 96.298822 240.260026 
L 96.363753 240.392926 
L 96.428684 240.786375 
L 96.493615 240.710909 
L 96.623476 239.534548 
L 96.688407 239.634061 
L 96.753338 240.030769 
L 96.818269 239.974179 
L 96.948131 238.740216 
L 97.013062 238.794184 
L 97.077993 239.188862 
L 97.142924 239.158402 
L 97.272785 237.872909 
L 97.337716 237.886685 
L 97.402647 238.278232 
L 97.467578 238.251151 
L 97.662371 236.910803 
L 97.792233 237.307261 
L 97.987025 235.871732 
L 98.116887 236.280325 
L 98.31168 234.781462 
L 98.441542 235.180824 
L 98.636335 233.59397 
L 98.766196 233.984305 
L 98.960989 232.328732 
L 99.090851 232.711397 
L 99.285644 230.988718 
L 99.350575 231.271029 
L 99.415505 231.383114 
L 99.610298 229.599128 
L 99.675229 229.759785 
L 99.74016 229.82363 
L 99.934953 227.624429 
L 99.999884 227.724122 
L 100.064815 228.022725 
L 100.129745 227.805686 
L 100.259607 226.498685 
L 100.324538 226.580204 
L 100.389469 226.781477 
L 100.519331 225.507124 
L 100.584262 224.869403 
L 100.649193 224.903135 
L 100.714124 225.12922 
L 100.843985 223.910732 
L 100.973847 223.162207 
L 101.038778 223.402958 
L 101.103709 223.134549 
L 101.298502 221.351623 
L 101.363433 221.610757 
L 101.428364 221.402783 
L 101.623156 219.471558 
L 101.688087 219.750953 
L 101.753018 219.61126 
L 101.947811 217.532971 
L 102.012742 217.82863 
L 102.077673 217.757257 
L 102.272465 215.528921 
L 102.402327 215.855955 
L 102.59712 213.465536 
L 102.662051 213.796561 
L 102.726982 213.897091 
L 102.921775 211.350518 
L 102.986705 211.69409 
L 103.051636 211.882553 
L 103.246429 209.185941 
L 103.31136 209.540657 
L 103.376291 209.82243 
L 103.571084 206.974397 
L 103.636015 207.348496 
L 103.700945 207.724105 
L 103.895738 204.729637 
L 103.960669 205.118133 
L 104.0256 205.599472 
L 104.220393 202.476361 
L 104.285324 202.878898 
L 104.350255 203.469434 
L 104.480116 201.224492 
L 104.545047 200.214395 
L 104.609978 200.622504 
L 104.674909 201.322531 
L 104.73984 200.742275 
L 104.869702 197.914947 
L 104.934633 198.33151 
L 104.999564 199.135161 
L 105.064495 198.604007 
L 105.194356 195.578105 
L 105.259287 196.002969 
L 105.324218 196.918644 
L 105.389149 196.443567 
L 105.519011 193.2219 
L 105.583942 193.655418 
L 105.648873 194.688838 
L 105.713804 194.273311 
L 105.843665 190.84501 
L 105.908596 191.292249 
L 105.973527 192.446029 
L 106.038458 192.095415 
L 106.16832 188.467968 
L 106.233251 188.916328 
L 106.298182 190.193969 
L 106.363113 281.784445 
L 106.428044 279.997906 
L 106.492975 280.497787 
L 106.557905 279.59702 
L 106.752698 269.941163 
L 106.817629 270.831032 
L 106.88256 269.424053 
L 107.077353 260.222498 
L 107.142284 261.84186 
L 107.207215 261.45599 
L 107.337076 257.104581 
L 107.791593 282.207316 
L 107.921455 285.930697 
L 107.986385 286.197522 
L 108.181178 293.392128 
L 108.246109 292.540003 
L 108.31104 291.189589 
L 108.375971 292.001547 
L 108.505833 295.488 
L 108.700625 291.85467 
L 108.765556 294.398612 
L 108.830487 294.3846 
L 109.02528 289.705226 
L 109.155142 291.952303 
L 109.285004 288.513652 
L 109.349935 288.599947 
L 109.414865 289.727289 
L 109.479796 289.553237 
L 109.609658 285.979446 
L 109.674589 286.006909 
L 109.804451 287.527363 
L 109.934313 284.839634 
L 109.999244 282.770193 
L 110.129105 285.199866 
L 110.323898 281.259194 
L 110.45376 282.561532 
L 110.518691 282.079054 
L 110.648553 279.276692 
L 110.778415 280.972062 
L 110.908276 279.095582 
L 111.038138 280.993255 
L 111.103069 280.484607 
L 111.232931 277.275049 
L 111.297862 277.533629 
L 111.362793 277.840702 
L 111.492655 278.916059 
L 111.622516 276.590103 
L 111.687447 277.972904 
L 111.752378 277.456398 
L 111.947171 275.667523 
L 112.012102 275.772172 
L 112.271825 274.289503 
L 112.336756 274.643371 
L 112.401687 274.811943 
L 112.59648 272.802584 
L 112.661411 273.603726 
L 112.726342 273.305733 
L 112.791273 272.939368 
L 112.986065 271.285544 
L 113.050996 271.062299 
L 113.180858 268.451621 
L 113.31072 265.847317 
L 113.375651 265.92924 
L 113.830167 251.946941 
L 113.960029 253.531026 
L 114.02496 255.438512 
L 114.089891 255.354722 
L 114.154822 255.539749 
L 114.219753 256.178554 
L 114.674269 266.767125 
L 114.7392 267.004636 
L 114.804131 266.798585 
L 114.869062 267.226966 
L 114.998924 266.6898 
L 115.063855 267.337488 
L 115.128785 267.016607 
L 115.193716 266.409124 
L 115.258647 266.947942 
L 115.323578 266.679497 
L 115.518371 265.652426 
L 115.583302 266.829669 
L 115.778095 284.080892 
L 115.843025 281.405539 
L 115.972887 255.518068 
L 116.102749 183.62568 
L 116.297542 82.654579 
L 116.492335 188.505334 
L 116.687127 252.005221 
L 116.752058 253.422988 
L 116.816989 253.264209 
L 116.88192 253.308878 
L 117.141644 257.907017 
L 117.206575 257.090372 
L 117.271505 256.896697 
L 117.336436 257.250114 
L 117.401367 257.037112 
L 117.466298 257.039803 
L 117.726022 255.576347 
L 118.3104 249.913438 
L 118.375331 250.243035 
L 118.570124 246.934434 
L 118.635055 247.054446 
L 118.764916 245.173214 
L 118.959709 241.876027 
L 119.089571 240.165159 
L 119.544087 228.462499 
L 119.609018 227.941635 
L 120.193396 215.888325 
L 120.323258 216.328222 
L 120.647913 229.309112 
L 121.037498 247.897958 
L 121.362153 254.827465 
L 121.427084 254.597898 
L 121.946531 256.893143 
L 122.141324 255.59451 
L 122.206255 255.332751 
L 122.336116 257.214213 
L 122.465978 255.69708 
L 122.530909 256.084075 
L 122.855564 255.007942 
L 123.050356 256.20719 
L 123.245149 255.036378 
L 123.31008 255.146048 
L 123.375011 255.070476 
L 123.569804 253.908142 
L 123.634735 254.82295 
L 123.699665 254.41044 
L 123.764596 254.104907 
L 124.154182 256.169849 
L 124.219113 255.99152 
L 124.284044 255.324801 
L 124.348975 255.615319 
L 124.478836 255.902237 
L 124.543767 255.862705 
L 124.608698 255.67615 
L 124.673629 255.81189 
L 124.803491 257.665892 
L 124.868422 256.922127 
L 124.998284 256.51885 
L 125.063215 256.698056 
L 125.128145 257.232792 
L 125.193076 257.138017 
L 125.517731 256.658395 
L 125.582662 256.390714 
L 125.647593 256.892412 
L 125.712524 256.626704 
L 125.842385 256.162394 
L 125.972247 256.723261 
L 126.037178 256.504347 
L 126.102109 257.063521 
L 126.16704 256.709537 
L 126.361833 256.386238 
L 126.556625 254.03372 
L 126.751418 250.594428 
L 126.88128 246.93179 
L 127.011142 241.915826 
L 127.076073 242.164775 
L 127.660451 249.790252 
L 127.855244 259.304894 
L 127.920175 259.24554 
L 128.179898 260.169451 
L 128.30976 259.984324 
L 128.374691 260.054263 
L 128.504553 260.434417 
L 128.569484 260.125112 
L 128.829207 262.636093 
L 129.024 281.438109 
L 129.088931 278.160054 
L 129.218793 252.656215 
L 129.543447 75.047855 
L 129.608378 94.742493 
L 129.997964 246.408522 
L 130.387549 255.596309 
L 130.517411 256.515414 
L 130.582342 256.485159 
L 131.101789 253.746898 
L 131.296582 252.60776 
L 131.361513 252.654374 
L 131.88096 246.812444 
L 131.945891 246.623634 
L 132.465338 238.310578 
L 132.919855 227.228492 
L 132.984785 226.800927 
L 133.504233 216.269724 
L 133.569164 216.699718 
L 133.699025 219.038233 
L 133.893818 227.715398 
L 134.543127 249.084827 
L 134.608058 249.348738 
L 134.672989 250.100022 
L 134.73792 249.880496 
L 134.997644 250.927801 
L 135.127505 249.881214 
L 135.257367 251.015879 
L 135.387229 250.73642 
L 135.45216 251.274563 
L 135.582022 250.510345 
L 135.646953 251.242302 
L 135.711884 250.755223 
L 135.776815 250.981644 
L 135.906676 252.549704 
L 136.036538 250.953468 
L 136.101469 251.193489 
L 136.1664 251.414999 
L 136.231331 251.380431 
L 136.296262 251.076736 
L 136.361193 252.324128 
L 136.426124 252.252677 
L 136.491055 251.789164 
L 136.620916 252.757148 
L 136.685847 252.316745 
L 136.815709 253.32031 
L 137.010502 252.456891 
L 137.270225 255.039937 
L 137.335156 254.982625 
L 137.400087 254.988895 
L 137.59488 255.68922 
L 137.659811 255.312801 
L 137.724742 255.353753 
L 137.789673 256.070979 
L 137.854604 255.887121 
L 137.984465 255.487772 
L 138.114327 257.105622 
L 138.244189 255.662362 
L 138.30912 255.670481 
L 138.438982 256.10555 
L 138.503913 255.868753 
L 138.568844 256.487723 
L 138.763636 255.615786 
L 138.828567 255.348853 
L 138.893498 255.790639 
L 138.958429 254.824159 
L 139.02336 255.456755 
L 139.088291 255.627261 
L 139.283084 254.644806 
L 139.348015 254.7943 
L 139.412945 254.789102 
L 139.477876 255.148122 
L 139.542807 254.889544 
L 139.7376 254.280091 
L 139.867462 253.845648 
L 139.932393 253.955157 
L 139.997324 254.646758 
L 140.062255 254.282679 
L 140.127185 252.896935 
L 140.192116 253.64094 
L 140.321978 253.29686 
L 140.45184 253.543226 
L 140.646633 253.135579 
L 140.711564 253.595261 
L 140.776495 253.002786 
L 140.841425 253.063562 
L 140.906356 253.751181 
L 140.971287 253.307553 
L 141.036218 252.901034 
L 141.101149 253.473227 
L 141.16608 253.197189 
L 141.231011 253.226961 
L 141.360873 253.903034 
L 141.425804 253.774215 
L 141.620596 251.773997 
L 141.815389 249.727861 
L 142.204975 239.595303 
L 142.269905 239.722157 
L 142.919215 253.097275 
L 143.114007 259.883673 
L 143.178938 259.530599 
L 143.243869 259.705845 
L 143.3088 259.891401 
L 143.438662 259.470964 
L 143.503593 259.654183 
L 143.633455 261.357967 
L 143.698385 261.200057 
L 143.763316 259.194935 
L 143.828247 259.254837 
L 143.958109 259.109686 
L 144.02304 260.432149 
L 144.217833 276.749141 
L 144.347695 261.2133 
L 144.477556 206.299535 
L 144.672349 56.721133 
L 144.73728 58.110947 
L 144.932073 173.386772 
L 145.126865 236.682547 
L 145.646313 251.262935 
L 145.711244 251.201149 
L 145.906036 250.855668 
L 145.970967 250.826713 
L 146.035898 249.759416 
L 146.100829 250.292414 
L 146.230691 251.041315 
L 146.295622 250.013375 
L 146.360553 250.473091 
L 146.620276 249.15172 
L 146.685207 249.383593 
L 146.815069 248.984664 
L 146.88 249.015883 
L 147.009862 246.403728 
L 147.074793 246.455133 
L 147.139724 246.567619 
L 147.853964 235.889436 
L 148.373411 224.743572 
L 148.503273 223.167171 
L 148.698065 220.072857 
L 148.762996 220.291122 
L 149.02272 226.756381 
L 149.672029 252.142065 
L 149.866822 254.643232 
L 149.996684 253.696016 
L 150.126545 254.968885 
L 150.256407 253.817208 
L 150.321338 253.881034 
L 150.386269 253.699062 
L 150.4512 253.801437 
L 150.516131 253.929084 
L 150.581062 252.634465 
L 150.645993 252.923056 
L 150.710924 253.45226 
L 151.035578 250.501482 
L 151.230371 250.1485 
L 151.360233 248.389458 
L 151.490095 247.894234 
L 151.684887 246.935551 
L 151.749818 247.100112 
L 151.814749 246.880502 
L 151.944611 247.219744 
L 152.139404 246.363196 
L 152.204335 246.595131 
L 152.269265 247.436892 
L 152.334196 246.056504 
L 152.399127 247.681077 
L 152.464058 247.37455 
L 152.528989 247.271338 
L 152.59392 246.627338 
L 152.853644 248.280852 
L 152.983505 247.025989 
L 153.048436 248.25502 
L 153.113367 248.204846 
L 153.178298 248.107138 
L 153.30816 247.596551 
L 153.373091 248.1176 
L 153.567884 247.414558 
L 153.697745 249.336962 
L 153.892538 246.602622 
L 153.957469 248.062432 
L 154.0224 248.012885 
L 154.087331 247.820556 
L 154.347055 248.891661 
L 154.411985 248.998579 
L 154.606778 250.387324 
L 154.671709 250.11044 
L 154.73664 250.84819 
L 154.801571 250.758814 
L 154.866502 250.779508 
L 154.931433 250.959861 
L 155.126225 251.758388 
L 155.191156 251.146894 
L 155.256087 251.191322 
L 155.321018 251.02733 
L 155.515811 250.162659 
L 155.645673 249.878153 
L 155.710604 249.962231 
L 155.775535 250.040747 
L 155.840465 250.541474 
L 155.970327 248.554185 
L 156.100189 249.180191 
L 156.16512 248.53996 
L 156.230051 248.667254 
L 156.359913 249.096654 
L 156.489775 248.569768 
L 156.619636 249.812637 
L 156.684567 248.404993 
L 156.749498 249.32374 
L 156.814429 249.27799 
L 156.944291 249.680416 
L 157.009222 249.253268 
L 157.268945 250.565721 
L 157.463738 249.839386 
L 157.723462 250.485924 
L 157.788393 250.213658 
L 157.853324 250.31659 
L 158.048116 251.161001 
L 158.113047 251.610778 
L 158.177978 251.569888 
L 158.242909 251.357759 
L 158.30784 251.625615 
L 158.372771 252.369447 
L 158.437702 250.647054 
L 158.567564 253.249505 
L 158.697425 252.839806 
L 158.957149 254.108337 
L 159.02208 253.827453 
L 159.087011 252.878926 
L 159.151942 253.747486 
L 159.216873 253.414395 
L 159.411665 251.03188 
L 159.606458 248.430677 
L 159.73632 249.718454 
L 159.866182 245.526564 
L 159.996044 239.035017 
L 160.125905 241.760055 
L 160.645353 249.973559 
L 160.840145 256.571214 
L 160.970007 257.311416 
L 161.034938 257.234511 
L 161.1648 258.695433 
L 161.229731 258.539503 
L 161.294662 258.543322 
L 161.359593 258.231241 
L 161.424524 259.504797 
L 161.489455 259.343144 
L 161.554385 259.074443 
L 161.814109 261.32607 
L 162.008902 279.911369 
L 162.073833 279.147664 
L 162.203695 258.051069 
L 162.333556 178.393142 
L 162.528349 53.785293 
L 162.658211 109.095095 
L 162.917935 243.007788 
L 163.112727 248.98315 
L 163.30752 253.532209 
L 163.437382 255.771029 
L 163.567244 255.352398 
L 163.632175 255.733188 
L 163.697105 255.547412 
L 163.762036 255.619943 
L 163.891898 254.999779 
L 164.281484 250.834179 
L 164.346415 251.690065 
L 164.541207 249.555177 
L 164.736 248.360046 
L 164.800931 248.116346 
L 165.125585 243.49609 
L 165.45024 238.503566 
L 165.839825 229.544452 
L 166.554065 216.469216 
L 166.618996 216.385704 
L 166.683927 215.956533 
L 166.748858 216.42651 
L 166.943651 225.246829 
L 167.398167 245.760091 
L 167.722822 252.7197 
L 167.982545 254.040909 
L 168.047476 253.919769 
L 168.112407 253.717893 
L 168.177338 254.118438 
L 168.242269 254.091407 
L 168.3072 254.083129 
L 168.372131 254.787171 
L 168.437062 254.758076 
L 168.501993 253.825665 
L 168.566924 254.493449 
L 168.631855 253.786562 
L 168.696785 254.295277 
L 168.761716 254.104756 
L 168.891578 253.885938 
L 168.956509 253.657724 
L 169.02144 254.139617 
L 169.086371 253.796441 
L 169.216233 254.137229 
L 169.346095 253.149263 
L 169.411025 253.493873 
L 169.475956 252.505514 
L 169.540887 253.8829 
L 169.605818 253.767522 
L 169.73568 252.867752 
L 169.800611 253.269379 
L 169.865542 253.122429 
L 169.930473 252.976458 
L 169.995404 253.223369 
L 170.060335 252.922024 
L 170.125265 253.186593 
L 170.190196 253.042552 
L 170.255127 253.212645 
L 170.320058 253.096323 
L 170.384989 253.154824 
L 170.44992 252.764945 
L 170.644713 254.337623 
L 170.709644 254.57116 
L 170.774575 253.870277 
L 170.839505 255.266114 
L 170.904436 254.548943 
L 170.969367 254.056417 
L 171.034298 255.150497 
L 171.099229 254.988269 
L 171.229091 255.8141 
L 171.423884 254.41771 
L 171.618676 255.373056 
L 171.748538 254.530916 
L 171.813469 255.605355 
L 171.8784 255.487657 
L 171.943331 254.599726 
L 172.008262 256.247718 
L 172.073193 256.003053 
L 172.203055 256.274892 
L 172.332916 255.484887 
L 172.527709 256.718196 
L 172.657571 255.753634 
L 172.787433 257.006111 
L 172.852364 256.64619 
L 172.917295 256.547346 
L 173.047156 255.86289 
L 173.112087 256.110486 
L 173.241949 258.321625 
L 173.371811 256.843106 
L 173.436742 256.929673 
L 173.631535 257.724013 
L 173.696465 256.294764 
L 173.761396 256.748184 
L 173.826327 257.154024 
L 173.891258 256.9681 
L 173.956189 257.000079 
L 174.150982 256.437404 
L 174.215913 256.576499 
L 174.280844 256.464663 
L 174.410705 256.071281 
L 174.540567 256.855663 
L 174.605498 256.589238 
L 174.73536 257.253579 
L 175.060015 253.693411 
L 175.384669 249.9689 
L 175.579462 239.284863 
L 175.644393 240.75861 
L 175.969047 246.419688 
L 176.033978 246.727364 
L 176.16384 249.831823 
L 176.423564 258.741059 
L 176.553425 259.072834 
L 176.618356 258.031819 
L 176.748218 259.927523 
L 176.813149 259.675905 
L 176.87808 259.579637 
L 177.072873 260.607876 
L 177.137804 260.509551 
L 177.267665 258.930966 
L 177.397527 260.445329 
L 177.59232 277.966385 
L 177.657251 276.312973 
L 177.787113 253.388447 
L 177.916975 179.714482 
L 178.111767 64.196167 
L 178.241629 125.137935 
L 178.501353 246.455855 
L 178.955869 254.48205 
L 179.085731 254.67188 
L 179.215593 253.265054 
L 179.280524 253.892412 
L 179.345455 253.464552 
L 179.540247 252.659315 
L 179.605178 252.7742 
L 179.73504 252.174994 
L 179.929833 249.650013 
L 179.994764 249.498761 
L 180.189556 247.099239 
L 180.254487 245.528987 
L 180.319418 245.692114 
L 180.384349 246.032054 
L 180.709004 240.708393 
L 182.137484 211.407742 
L 182.267345 212.805382 
L 182.462138 221.564543 
L 183.046516 248.780195 
L 183.241309 252.568141 
L 183.565964 254.83423 
L 183.695825 255.724544 
L 183.760756 254.421034 
L 183.825687 254.461671 
L 183.955549 255.240066 
L 184.02048 255.134453 
L 184.085411 254.539829 
L 184.215273 255.830198 
L 184.280204 255.306931 
L 184.410065 253.471676 
L 184.474996 254.171074 
L 184.539927 254.034189 
L 184.604858 254.005322 
L 184.73472 253.753795 
L 184.799651 254.27655 
L 184.864582 254.103033 
L 184.994444 253.684669 
L 185.124305 254.371417 
L 185.254167 253.077211 
L 185.319098 253.238023 
L 185.384029 253.096846 
L 185.513891 253.875391 
L 185.643753 253.123666 
L 185.773615 254.018379 
L 185.838545 253.059946 
L 185.903476 253.135322 
L 186.098269 254.92468 
L 186.1632 254.776979 
L 186.228131 255.185119 
L 186.293062 253.221064 
L 186.357993 253.995579 
L 186.422924 254.291663 
L 186.487855 254.104476 
L 186.552785 253.821268 
L 186.617716 254.759584 
L 186.682647 253.868281 
L 186.747578 254.662799 
L 186.812509 254.447966 
L 186.87744 254.655842 
L 187.007302 254.04805 
L 187.202095 254.822801 
L 187.267025 254.79352 
L 187.396887 255.693213 
L 187.461818 254.578926 
L 187.526749 255.142994 
L 187.721542 254.524329 
L 187.786473 255.088695 
L 187.916335 254.480635 
L 187.981265 254.822493 
L 188.111127 254.034354 
L 188.176058 254.933033 
L 188.240989 254.62607 
L 188.435782 255.352945 
L 188.500713 255.052791 
L 188.565644 254.090334 
L 188.630575 254.120648 
L 188.695505 254.480543 
L 188.760436 254.281165 
L 188.890298 254.734529 
L 189.02016 253.833406 
L 189.085091 253.94391 
L 189.150022 253.91639 
L 189.539607 246.276176 
L 189.604538 248.096456 
L 189.669469 247.138158 
L 189.864262 238.022 
L 189.929193 238.557057 
L 190.123985 242.178097 
L 190.513571 250.429047 
L 190.708364 255.644413 
L 190.773295 255.374788 
L 191.033018 256.905012 
L 191.097949 257.140177 
L 191.16288 256.367581 
L 191.227811 256.817719 
L 191.357673 258.005325 
L 191.487535 257.29984 
L 191.552465 257.427273 
L 191.617396 257.738517 
L 191.682327 259.616261 
L 191.87712 274.828412 
L 192.006982 256.77797 
L 192.136844 198.490534 
L 192.331636 70.208675 
L 192.396567 81.611235 
L 192.786153 245.719056 
L 193.3056 253.583239 
L 193.435462 252.979013 
L 193.500393 253.030486 
L 193.565324 252.424724 
L 193.630255 252.459262 
L 193.695185 252.478012 
L 194.01984 249.814415 
L 194.149702 250.349542 
L 194.214633 250.286909 
L 194.409425 247.00559 
L 194.669149 244.868082 
L 194.863942 241.946641 
L 195.902836 220.626291 
L 196.16256 215.248484 
L 196.422284 212.255218 
L 196.682007 222.094506 
L 197.201455 248.563877 
L 197.461178 253.664546 
L 197.526109 253.389029 
L 197.720902 254.620507 
L 197.785833 254.620996 
L 197.850764 255.158713 
L 197.980625 254.368513 
L 198.045556 254.401595 
L 198.175418 255.390165 
L 198.240349 255.113278 
L 198.30528 254.96542 
L 198.370211 255.52647 
L 198.435142 255.310167 
L 198.500073 254.583542 
L 198.565004 255.814673 
L 198.629935 255.688386 
L 198.824727 254.58067 
L 198.889658 254.798834 
L 199.01952 254.100866 
L 199.084451 255.709608 
L 199.149382 254.920489 
L 199.279244 254.392595 
L 199.344175 254.490644 
L 199.409105 254.04766 
L 199.474036 254.081694 
L 199.603898 254.430772 
L 199.668829 253.192541 
L 199.73376 253.231971 
L 199.993484 255.281279 
L 200.058415 254.289151 
L 200.123345 254.754838 
L 200.253207 253.967299 
L 200.642793 255.712287 
L 200.772655 255.033746 
L 201.032378 256.353826 
L 201.292102 255.740325 
L 201.357033 256.84658 
L 201.421964 256.463005 
L 201.486895 255.980471 
L 201.681687 256.975257 
L 201.941411 256.081012 
L 202.006342 256.459937 
L 202.071273 255.817473 
L 202.136204 255.999591 
L 202.266065 257.085769 
L 202.395927 255.747898 
L 202.460858 256.612897 
L 202.525789 256.419856 
L 202.655651 255.223129 
L 202.915375 250.307241 
L 202.980305 249.745396 
L 203.045236 250.486428 
L 203.175098 246.321283 
L 203.369891 239.880837 
L 203.564684 245.487856 
L 203.629615 245.230677 
L 203.694545 245.596374 
L 203.954269 250.150675 
L 204.149062 258.029143 
L 204.213993 258.169406 
L 204.278924 257.615027 
L 204.408785 258.861995 
L 204.538647 258.261583 
L 204.668509 258.81432 
L 204.73344 259.482977 
L 204.798371 259.447234 
L 204.863302 259.070346 
L 204.928233 259.466843 
L 204.993164 259.400106 
L 205.058095 259.389402 
L 205.123025 261.246466 
L 205.317818 279.125463 
L 205.382749 276.232054 
L 205.512611 249.152892 
L 205.837265 75.19057 
L 205.902196 97.724813 
L 206.226851 244.103432 
L 206.746298 254.663102 
L 206.811229 254.210261 
L 207.006022 254.904801 
L 207.070953 253.586212 
L 207.135884 253.833201 
L 207.265745 253.264925 
L 207.330676 253.282531 
L 207.460538 251.263099 
L 207.525469 251.808985 
L 207.5904 251.813279 
L 207.915055 247.988025 
L 207.979985 247.816436 
L 208.30464 243.506777 
L 209.798051 215.446742 
L 209.862982 215.533303 
L 210.122705 222.939031 
L 210.642153 247.829818 
L 211.096669 254.936298 
L 211.1616 254.048589 
L 211.226531 254.203856 
L 211.421324 255.338846 
L 211.551185 254.404351 
L 211.681047 255.403337 
L 211.745978 255.065482 
L 211.810909 254.971026 
L 211.940771 255.192801 
L 212.005702 254.648324 
L 212.070633 254.968476 
L 212.200495 255.346672 
L 212.330356 254.746604 
L 212.395287 255.042411 
L 212.59008 253.478507 
L 212.719942 254.089006 
L 212.784873 253.544702 
L 212.849804 254.041005 
L 212.914735 253.01108 
L 212.979665 253.194535 
L 213.044596 253.599502 
L 213.109527 253.529012 
L 213.239389 253.042337 
L 213.30432 253.079736 
L 213.499113 253.534905 
L 213.564044 253.264148 
L 213.693905 253.677821 
L 213.758836 253.719576 
L 213.953629 254.916613 
L 214.01856 253.729371 
L 214.083491 254.250687 
L 214.278284 255.670355 
L 214.343215 254.793861 
L 214.408145 255.277645 
L 214.473076 255.300316 
L 214.538007 255.983016 
L 214.602938 255.574631 
L 214.667869 255.856925 
L 214.7328 255.803776 
L 214.797731 255.148965 
L 214.862662 255.858694 
L 214.927593 255.809391 
L 214.992524 254.888442 
L 215.057455 255.483441 
L 215.122385 255.838406 
L 215.187316 255.729508 
L 215.252247 255.535079 
L 215.44704 256.365467 
L 215.511971 256.115748 
L 215.576902 255.417401 
L 215.641833 255.81419 
L 215.836625 256.32112 
L 215.901556 256.155006 
L 215.966487 255.34439 
L 216.031418 255.501609 
L 216.096349 255.180522 
L 216.16128 255.332662 
L 216.356073 256.013305 
L 216.421004 255.857188 
L 216.485935 255.861359 
L 216.680727 254.305958 
L 216.745658 254.651339 
L 216.87552 256.094005 
L 217.070313 255.12462 
L 217.200175 255.627231 
L 217.330036 254.447061 
L 217.849484 246.923034 
L 218.044276 239.338285 
L 218.109207 239.500929 
L 218.239069 244.326383 
L 218.304 244.252236 
L 218.368931 243.728978 
L 218.693585 249.479613 
L 218.823447 258.183697 
L 218.888378 257.749661 
L 218.953309 256.984292 
L 219.148102 258.21829 
L 219.213033 257.354738 
L 219.277964 257.670613 
L 219.342895 258.758734 
L 219.407825 258.159731 
L 219.472756 258.030299 
L 219.537687 258.223591 
L 219.602618 257.935935 
L 219.797411 260.194064 
L 219.927273 271.478134 
L 220.057135 278.817321 
L 220.186996 259.064608 
L 220.316858 190.74746 
L 220.511651 56.694139 
L 220.641513 100.552994 
L 220.901236 240.747557 
L 221.225891 251.583724 
L 221.420684 254.380379 
L 221.550545 253.545406 
L 221.615476 254.418221 
L 221.680407 254.024851 
L 221.745338 254.213791 
L 221.810269 253.561285 
L 221.940131 254.431051 
L 222.199855 251.59892 
L 222.264785 251.63276 
L 222.394647 249.978008 
L 222.459578 250.556589 
L 223.043956 243.100476 
L 223.108887 242.630478 
L 223.368611 237.900136 
L 223.498473 236.003544 
L 223.758196 230.18158 
L 224.212713 220.220125 
L 224.537367 216.039002 
L 224.667229 216.942823 
L 224.73216 217.560891 
L 225.121745 236.600775 
L 225.4464 248.687898 
L 225.641193 252.35561 
L 225.706124 252.2409 
L 225.965847 253.98807 
L 226.095709 252.861313 
L 226.16064 253.580504 
L 226.225571 253.208175 
L 226.355433 253.903316 
L 226.420364 253.723815 
L 226.550225 253.758884 
L 226.615156 254.131279 
L 226.745018 252.8958 
L 226.87488 253.300258 
L 226.939811 254.035471 
L 227.134604 252.293801 
L 227.199535 252.358162 
L 227.459258 253.196241 
L 227.524189 252.263611 
L 227.58912 252.33675 
L 227.654051 252.098457 
L 227.783913 252.731536 
L 227.848844 252.678182 
L 227.913775 252.424467 
L 228.108567 253.279483 
L 228.173498 253.089173 
L 228.30336 252.906948 
L 228.368291 253.753295 
L 228.433222 252.461732 
L 228.498153 253.325922 
L 228.628015 253.814405 
L 228.692945 253.786109 
L 228.757876 253.349598 
L 228.887738 254.715833 
L 228.952669 254.382162 
L 229.0176 254.492758 
L 229.147462 255.662961 
L 229.212393 255.644852 
L 229.407185 253.920321 
L 229.861702 255.782454 
L 229.926633 255.3813 
L 230.056495 256.516509 
L 230.121425 256.004928 
L 230.186356 255.851927 
L 230.316218 256.099388 
L 230.381149 255.854137 
L 230.44608 256.222475 
L 230.575942 255.469579 
L 230.640873 254.759632 
L 230.835665 256.143529 
L 230.965527 255.448813 
L 231.030458 256.063245 
L 231.095389 255.809304 
L 231.16032 256.031879 
L 231.225251 255.370166 
L 231.290182 255.965214 
L 231.355113 254.553686 
L 231.420044 254.839859 
L 231.484975 255.585685 
L 231.549905 254.552511 
L 231.679767 255.911448 
L 231.744698 254.873488 
L 231.809629 255.296797 
L 231.87456 255.429286 
L 231.939491 255.108812 
L 232.004422 255.22674 
L 232.134284 255.674782 
L 232.264145 254.5718 
L 232.329076 254.875311 
L 232.394007 254.599376 
L 232.523869 255.813427 
L 233.173178 243.516701 
L 233.30304 238.317218 
L 233.367971 238.818256 
L 233.562764 243.238835 
L 233.627695 243.081852 
L 233.692625 243.449775 
L 233.887418 245.958835 
L 233.952349 247.008473 
L 234.212073 257.399082 
L 234.406865 257.223701 
L 234.471796 257.908922 
L 234.601658 257.147832 
L 234.666589 257.367456 
L 234.73152 257.344881 
L 234.796451 256.813739 
L 234.926313 258.748506 
L 234.991244 258.323395 
L 235.121105 261.661905 
L 235.315898 277.856026 
L 235.380829 274.192344 
L 235.510691 246.166249 
L 235.770415 59.348318 
L 235.900276 88.350733 
L 236.224931 242.389169 
L 236.744378 254.738417 
L 236.809309 254.596972 
L 236.939171 254.046672 
L 237.004102 254.006384 
L 237.069033 254.492726 
L 237.263825 252.955796 
L 237.328756 253.231463 
L 237.58848 250.824929 
L 237.653411 250.939397 
L 237.913135 248.207047 
L 238.367651 243.317516 
L 238.952029 232.34656 
L 239.536407 220.546365 
L 239.796131 215.984833 
L 239.925993 216.37285 
L 240.055855 219.313122 
L 240.964887 253.827782 
L 241.029818 254.021929 
L 241.094749 252.907062 
L 241.289542 254.929278 
L 241.419404 254.697605 
L 241.484335 254.812669 
L 241.549265 255.195103 
L 241.679127 254.171383 
L 241.744058 254.643414 
L 241.808989 254.961966 
L 241.87392 254.823448 
L 242.003782 254.442764 
L 242.068713 255.279546 
L 242.133644 254.777049 
L 242.263505 254.912022 
L 242.393367 253.8924 
L 242.458298 253.921982 
L 242.523229 254.278252 
L 242.718022 253.008537 
L 242.782953 254.426122 
L 242.912815 253.117768 
L 243.107607 253.907113 
L 243.237469 253.41654 
L 243.432262 254.745813 
L 243.562124 253.875958 
L 243.627055 254.829676 
L 243.691985 254.775299 
L 243.821847 254.561543 
L 243.886778 254.846593 
L 244.01664 254.400707 
L 244.146502 255.565957 
L 244.276364 254.711158 
L 244.341295 254.870213 
L 244.536087 255.951526 
L 244.601018 255.670781 
L 244.665949 254.841413 
L 244.73088 255.905907 
L 244.795811 255.702729 
L 244.860742 255.052732 
L 244.925673 255.958676 
L 244.990604 255.318002 
L 245.185396 256.195839 
L 245.250327 256.077559 
L 245.315258 255.285217 
L 245.44512 256.006502 
L 245.510051 255.315978 
L 245.574982 256.541695 
L 245.704844 255.017294 
L 245.899636 256.490064 
L 246.094429 255.287068 
L 246.15936 255.728451 
L 246.289222 255.676394 
L 246.419084 256.959627 
L 246.548945 255.508338 
L 246.613876 256.135261 
L 246.678807 256.133718 
L 246.743738 255.733666 
L 246.808669 255.796844 
L 246.8736 256.146729 
L 246.938531 255.269561 
L 247.003462 255.286227 
L 247.068393 255.381696 
L 247.133324 255.760464 
L 247.198255 255.423944 
L 247.328116 255.963449 
L 247.457978 254.909055 
L 247.522909 255.408403 
L 247.652771 255.791162 
L 247.717702 256.560281 
L 247.977425 252.392086 
L 248.042356 252.995766 
L 248.172218 251.246006 
L 248.561804 239.400183 
L 248.626735 240.060334 
L 248.951389 245.14088 
L 249.146182 247.303307 
L 249.276044 253.595138 
L 249.405905 257.933918 
L 249.470836 258.640292 
L 249.535767 258.443767 
L 249.600698 258.530127 
L 249.665629 258.947524 
L 249.795491 257.92412 
L 249.990284 259.292627 
L 250.055215 258.886141 
L 250.120145 259.593506 
L 250.185076 259.264859 
L 250.250007 258.874505 
L 250.314938 260.283099 
L 250.574662 278.889668 
L 250.704524 256.633773 
L 250.834385 187.561049 
L 251.029178 53.568 
L 251.15904 104.680336 
L 251.418764 242.726213 
L 251.808349 252.538323 
L 252.003142 255.538032 
L 252.197935 254.483524 
L 252.262865 255.435674 
L 252.522589 253.001928 
L 252.58752 253.092131 
L 252.782313 250.843465 
L 252.847244 251.164132 
L 253.431622 244.842643 
L 253.756276 239.856032 
L 254.080931 234.517967 
L 254.145862 234.053548 
L 254.470516 225.663227 
L 255.054895 214.249836 
L 255.119825 214.334322 
L 255.249687 215.522233 
L 256.093789 251.4216 
L 256.353513 254.250838 
L 256.418444 254.029249 
L 256.613236 254.620792 
L 256.678167 254.125408 
L 256.743098 254.431347 
L 256.937891 255.328939 
L 257.002822 254.182922 
L 257.067753 254.845236 
L 257.197615 254.103784 
L 257.262545 254.183957 
L 257.327476 253.237954 
L 257.457338 254.334687 
L 257.522269 253.63194 
L 257.5872 253.720042 
L 257.652131 254.151619 
L 257.717062 253.988608 
L 257.781993 254.05763 
L 257.846924 253.504912 
L 257.911855 253.591014 
L 257.976785 253.869541 
L 258.171578 252.691643 
L 258.236509 253.116836 
L 258.30144 252.73758 
L 258.366371 252.769824 
L 258.431302 252.983495 
L 258.496233 252.720301 
L 258.626095 254.320049 
L 258.691025 254.023359 
L 258.755956 254.214885 
L 258.820887 253.586674 
L 258.885818 253.844627 
L 259.145542 254.79619 
L 259.275404 253.890246 
L 259.340335 254.455491 
L 259.405265 253.944713 
L 259.470196 255.657133 
L 259.535127 254.724684 
L 259.600058 254.756991 
L 259.664989 255.332847 
L 259.794851 254.809082 
L 259.859782 254.714022 
L 259.989644 255.869777 
L 260.119505 255.114342 
L 260.249367 255.296953 
L 260.314298 254.893845 
L 260.379229 255.350593 
L 260.44416 255.116186 
L 260.574022 254.975496 
L 260.768815 255.788826 
L 260.898676 256.716083 
L 260.963607 254.819853 
L 261.028538 255.058438 
L 261.093469 255.096675 
L 261.1584 255.520786 
L 261.223331 255.030756 
L 261.288262 255.354426 
L 261.353193 255.231482 
L 261.483055 256.175045 
L 261.547985 256.054422 
L 261.612916 255.373886 
L 261.677847 256.585546 
L 261.742778 256.565369 
L 261.807709 256.319622 
L 262.002502 254.730264 
L 262.067433 256.238773 
L 262.132364 256.016745 
L 262.781673 247.248394 
L 263.041396 240.137753 
L 263.236189 244.319726 
L 263.30112 244.265505 
L 263.560844 248.065259 
L 263.820567 257.85349 
L 263.885498 257.565318 
L 264.080291 259.319294 
L 264.210153 258.605884 
L 264.340015 259.654148 
L 264.404945 259.457137 
L 264.469876 259.562757 
L 264.534807 260.328623 
L 264.664669 259.470793 
L 264.7296 260.642055 
L 264.924393 277.126284 
L 264.989324 276.203131 
L 265.119185 253.474738 
L 265.249047 187.113928 
L 265.44384 64.970196 
L 265.573702 120.292691 
L 265.833425 245.640824 
L 266.028218 250.983602 
L 266.093149 250.917145 
L 266.612596 255.501524 
L 266.677527 255.293652 
L 266.937251 253.262971 
L 267.002182 253.307558 
L 267.196975 250.9155 
L 267.326836 251.055833 
L 268.170938 239.393071 
L 269.404625 212.773694 
L 269.534487 212.262517 
L 269.664349 215.554558 
L 270.44352 250.907301 
L 270.638313 253.721068 
L 270.833105 255.130787 
L 270.962967 254.45961 
L 271.092829 255.133078 
L 271.15776 254.824737 
L 271.287622 255.862031 
L 271.417484 255.013213 
L 271.547345 255.174035 
L 271.612276 255.189696 
L 271.677207 255.885064 
L 271.742138 255.700384 
L 271.807069 254.803056 
L 271.872 254.967342 
L 271.936931 255.181225 
L 272.001862 254.891804 
L 272.066793 254.011764 
L 272.131724 254.430045 
L 272.196655 253.908804 
L 272.261585 254.329961 
L 272.326516 254.081447 
L 272.391447 253.354995 
L 272.456378 253.559167 
L 272.651171 254.448053 
L 272.781033 253.195544 
L 272.845964 253.495017 
L 273.040756 254.719911 
L 273.105687 254.333241 
L 273.170618 253.785975 
L 273.235549 254.655209 
L 273.30048 254.476845 
L 273.365411 254.871233 
L 273.430342 254.779145 
L 273.560204 254.961339 
L 273.690065 254.671335 
L 273.754996 255.211403 
L 273.819927 254.817525 
L 273.884858 254.899327 
L 274.079651 256.155381 
L 274.144582 254.58048 
L 274.209513 254.865801 
L 274.274444 256.450307 
L 274.339375 255.76441 
L 274.404305 255.736702 
L 274.599098 256.251992 
L 274.72896 255.841878 
L 274.923753 256.544034 
L 274.988684 256.673238 
L 275.183476 255.014172 
L 275.248407 254.949796 
L 275.4432 255.897844 
L 275.573062 254.881218 
L 275.637993 255.316578 
L 275.767855 254.075587 
L 276.15744 247.507083 
L 276.222371 246.774485 
L 276.417164 239.29407 
L 276.547025 241.216699 
L 276.611956 243.261967 
L 276.676887 243.134073 
L 276.741818 243.020565 
L 276.806749 243.422556 
L 277.131404 252.970563 
L 277.261265 257.450882 
L 277.326196 256.891359 
L 277.391127 257.13117 
L 277.520989 258.388421 
L 277.58592 258.34115 
L 277.650851 258.430053 
L 277.715782 257.983824 
L 277.780713 258.294099 
L 277.910575 258.877735 
L 277.975505 258.262641 
L 278.040436 259.515696 
L 278.105367 259.012623 
L 278.170298 259.3397 
L 278.30016 270.632779 
L 278.365091 277.145855 
L 278.430022 276.16969 
L 278.559884 252.83426 
L 278.689745 186.14721 
L 278.884538 69.292598 
L 279.0144 123.448794 
L 279.274124 243.723973 
L 279.533847 249.537749 
L 279.793571 253.953169 
L 279.923433 253.862173 
L 279.988364 253.76688 
L 280.053295 254.261495 
L 280.313018 252.254943 
L 280.377949 252.603285 
L 280.702604 249.960287 
L 281.027258 246.644105 
L 281.222051 244.828555 
L 281.286982 243.317849 
L 281.351913 243.625269 
L 281.416844 243.259743 
L 282.845324 214.659889 
L 282.910255 215.049832 
L 283.040116 216.287245 
L 283.949149 253.647151 
L 284.01408 252.713227 
L 284.273804 254.944521 
L 284.338735 255.191519 
L 284.403665 254.951365 
L 284.468596 255.745405 
L 284.533527 255.143597 
L 284.598458 255.392699 
L 284.663389 255.30972 
L 284.793251 254.820005 
L 284.858182 255.068539 
L 284.988044 254.416856 
L 285.182836 255.169252 
L 285.377629 254.425502 
L 285.507491 254.239454 
L 285.572422 253.866093 
L 285.637353 253.972407 
L 285.702284 254.354982 
L 285.832145 253.808215 
L 285.962007 254.713947 
L 286.221731 252.973584 
L 286.416524 254.475348 
L 286.741178 255.36553 
L 286.806109 255.462651 
L 286.87104 255.305314 
L 287.000902 256.258851 
L 287.195695 255.035766 
L 287.325556 256.655187 
L 287.455418 256.580672 
L 287.58528 256.071457 
L 287.650211 257.0488 
L 287.715142 256.674887 
L 287.780073 256.959917 
L 287.845004 256.517087 
L 287.909935 256.637626 
L 287.974865 257.2552 
L 288.039796 257.035716 
L 288.104727 257.321281 
L 288.169658 256.898802 
L 288.234589 257.202765 
L 288.29952 257.294632 
L 288.429382 256.825262 
L 288.494313 256.076917 
L 288.559244 258.415486 
L 288.624175 257.643341 
L 288.689105 257.225905 
L 288.754036 257.697791 
L 288.818967 257.316156 
L 288.883898 257.455598 
L 289.01376 258.258499 
L 289.208553 257.331904 
L 289.338415 256.754086 
L 289.403345 257.605654 
L 289.598138 255.176731 
L 289.792931 252.038852 
L 289.857862 252.16695 
L 290.052655 247.439129 
L 290.247447 240.963774 
L 290.377309 243.037391 
L 290.507171 245.307713 
L 290.572102 244.930047 
L 290.896756 250.789183 
L 291.091549 257.975453 
L 291.15648 258.173286 
L 291.286342 260.053556 
L 291.351273 259.701227 
L 291.416204 258.497181 
L 291.481135 258.903844 
L 291.675927 259.690375 
L 291.805789 259.295359 
L 291.87072 259.337162 
L 291.935651 259.685229 
L 292.000582 261.058748 
L 292.195375 279.349786 
L 292.260305 277.652618 
L 292.390167 255.237306 
L 292.520029 180.566335 
L 292.714822 62.376357 
L 292.844684 113.613781 
L 293.104407 241.662157 
L 293.623855 254.529139 
L 293.688785 253.007181 
L 293.818647 255.185775 
L 293.883578 254.94894 
L 293.948509 255.064476 
L 294.078371 253.140872 
L 294.143302 253.185134 
L 294.208233 253.097719 
L 294.403025 251.855304 
L 294.467956 250.500887 
L 294.532887 250.518495 
L 294.662749 249.761269 
L 294.857542 248.187532 
L 294.922473 248.117317 
L 295.182196 244.021619 
L 295.312058 242.381494 
L 296.091229 226.434452 
L 296.286022 223.309761 
L 296.610676 217.001587 
L 296.675607 216.526936 
L 296.740538 216.836311 
L 296.805469 216.65863 
L 297.000262 222.449911 
L 297.649571 250.742339 
L 297.909295 253.238555 
L 298.29888 255.166565 
L 298.363811 254.629971 
L 298.493673 255.716856 
L 298.558604 255.473382 
L 298.623535 255.185679 
L 298.688465 255.969496 
L 298.753396 255.499251 
L 298.818327 255.36794 
L 298.883258 255.495742 
L 298.948189 255.375643 
L 299.142982 255.683895 
L 299.272844 254.535825 
L 299.402705 255.207342 
L 299.467636 254.940029 
L 299.532567 254.801937 
L 299.72736 253.938391 
L 300.116945 254.493335 
L 300.246807 254.154473 
L 300.4416 255.138331 
L 300.506531 255.105797 
L 300.571462 253.812038 
L 300.636393 253.873449 
L 300.701324 254.779136 
L 300.766255 254.594624 
L 300.896116 255.507978 
L 300.961047 255.361423 
L 301.090909 255.236294 
L 301.220771 255.673621 
L 301.285702 255.147617 
L 301.480495 256.119114 
L 301.545425 256.175589 
L 301.805149 254.925461 
L 301.999942 256.381841 
L 302.064873 256.296647 
L 302.194735 254.957636 
L 302.324596 255.803899 
L 302.519389 254.939987 
L 302.649251 255.887739 
L 302.844044 255.589831 
L 302.973905 255.976226 
L 303.233629 254.956242 
L 303.29856 255.715539 
L 303.363491 255.396017 
L 303.428422 254.308447 
L 303.493353 255.157692 
L 303.558284 255.02635 
L 303.623215 254.745884 
L 303.818007 255.802607 
L 303.947869 255.354418 
L 304.0128 255.94188 
L 304.077731 255.602729 
L 304.207593 254.718595 
L 304.337455 251.143648 
L 304.402385 251.866708 
L 304.467316 251.517693 
L 304.856902 239.316252 
L 304.986764 240.839764 
L 305.181556 243.978437 
L 305.246487 244.296809 
L 305.765935 258.578857 
L 305.830865 257.637446 
L 305.960727 257.848918 
L 306.025658 257.642636 
L 306.090589 257.761971 
L 306.350313 258.877584 
L 306.480175 258.51658 
L 306.610036 260.014021 
L 306.674967 261.516371 
L 306.86976 279.648384 
L 306.934691 275.883056 
L 307.064553 248.124447 
L 307.389207 58.566593 
L 307.454138 84.543573 
L 307.778793 242.2815 
L 308.233309 254.053332 
L 308.29824 254.348363 
L 308.428102 253.274488 
L 308.493033 254.918263 
L 308.557964 254.725071 
L 308.622895 253.762672 
L 308.687825 254.363271 
L 308.752756 253.904315 
L 308.817687 254.013979 
L 308.882618 253.878097 
L 309.142342 250.987452 
L 309.207273 250.791625 
L 309.986444 241.404734 
L 311.090269 219.740117 
L 311.285062 217.164623 
L 311.414924 215.490354 
L 311.479855 216.089859 
L 311.544785 215.995484 
L 312.323956 249.138567 
L 312.58368 253.826915 
L 312.648611 253.245205 
L 312.713542 254.324378 
L 312.778473 253.63481 
L 312.843404 253.16669 
L 312.973265 255.137149 
L 313.038196 253.47811 
L 313.103127 253.987236 
L 313.168058 254.390282 
L 313.29792 253.777535 
L 313.362851 254.122767 
L 313.427782 253.634477 
L 313.557644 254.457689 
L 313.817367 253.079837 
L 313.882298 253.306117 
L 313.947229 252.774316 
L 314.077091 254.154299 
L 314.142022 253.974702 
L 314.206953 253.866163 
L 314.336815 253.429989 
L 314.401745 253.660613 
L 314.531607 252.735553 
L 314.596538 253.504208 
L 314.661469 253.260822 
L 314.7264 253.339234 
L 314.856262 253.131319 
L 315.051055 254.378729 
L 315.180916 254.198152 
L 315.245847 253.548355 
L 315.505571 255.778743 
L 315.570502 255.608791 
L 315.635433 254.11241 
L 315.700364 254.922042 
L 315.960087 255.637383 
L 316.025018 255.105094 
L 316.089949 255.126001 
L 316.15488 256.398612 
L 316.219811 256.330014 
L 316.284742 255.801306 
L 316.349673 256.300543 
L 316.544465 254.997126 
L 316.609396 255.792585 
L 316.674327 255.29047 
L 316.804189 256.342477 
L 316.998982 255.806277 
L 317.063913 255.941207 
L 317.128844 256.727802 
L 317.258705 255.777842 
L 317.388567 256.154242 
L 317.713222 255.846684 
L 317.843084 256.395617 
L 317.972945 255.46571 
L 318.102807 256.502468 
L 318.167738 255.564614 
L 318.232669 256.0747 
L 318.2976 256.001423 
L 318.362531 256.430813 
L 318.557324 255.733941 
L 318.687185 257.004364 
L 318.752116 256.800929 
L 318.881978 256.076678 
L 319.01184 256.70771 
L 319.076771 256.676385 
L 319.271564 255.363991 
L 319.72608 247.444374 
L 319.920873 241.030715 
L 319.985804 240.634641 
L 320.310458 246.968077 
L 320.375389 246.559444 
L 320.44032 246.795625 
L 320.570182 250.173626 
L 320.700044 258.720158 
L 320.764975 258.66447 
L 320.829905 257.702789 
L 321.024698 259.621982 
L 321.089629 258.878424 
L 321.219491 259.750087 
L 321.284422 259.782912 
L 321.414284 260.595801 
L 321.479215 260.451586 
L 321.544145 259.605195 
L 321.609076 259.996101 
L 321.674007 261.064171 
L 321.933731 280.016849 
L 322.063593 258.779269 
L 322.193455 193.028538 
L 322.388247 55.574049 
L 322.518109 103.575914 
L 322.777833 242.385422 
L 323.102487 251.333523 
L 323.362211 255.538271 
L 323.427142 255.184574 
L 323.492073 255.149938 
L 324.01152 252.19394 
L 324.141382 250.565206 
L 324.206313 250.912226 
L 324.336175 249.513501 
L 324.466036 247.908826 
L 324.530967 248.110092 
L 324.595898 247.698902 
L 324.790691 245.123668 
L 325.115345 240.158666 
L 325.44 233.150168 
L 325.569862 230.583664 
L 326.024378 219.12172 
L 326.349033 212.759381 
L 326.608756 215.194026 
L 326.933411 230.534289 
L 327.258065 245.54078 
L 327.842444 253.442119 
L 327.907375 252.948233 
L 327.972305 252.983999 
L 328.037236 253.907764 
L 328.102167 253.524699 
L 328.167098 252.982516 
L 328.232029 253.148983 
L 328.361891 253.612569 
L 328.426822 253.247278 
L 328.491753 254.047496 
L 328.556684 254.029749 
L 328.751476 252.460848 
L 328.881338 253.392509 
L 328.946269 253.434728 
L 329.141062 253.128337 
L 329.270924 253.470249 
L 329.335855 252.775787 
L 329.400785 253.262693 
L 329.465716 253.333738 
L 329.660509 252.478577 
L 329.72544 252.460301 
L 329.855302 253.791618 
L 329.920233 253.68804 
L 329.985164 253.704938 
L 330.050095 251.990234 
L 330.115025 253.203519 
L 330.179956 253.112107 
L 330.244887 253.527949 
L 330.309818 253.389061 
L 330.43968 253.721437 
L 330.569542 254.544515 
L 330.634473 253.569205 
L 330.764335 254.404614 
L 330.829265 253.599034 
L 330.894196 254.017508 
L 330.959127 254.418113 
L 331.024058 254.242038 
L 331.088989 254.394268 
L 331.15392 253.908559 
L 331.218851 253.984686 
L 331.283782 254.911917 
L 331.413644 253.697663 
L 331.543505 254.971551 
L 331.673367 253.708088 
L 331.738298 253.997636 
L 331.998022 254.683665 
L 332.257745 253.790087 
L 332.387607 254.700363 
L 332.452538 254.482336 
L 332.517469 254.603721 
L 332.5824 253.243699 
L 332.712262 254.824076 
L 332.777193 254.590275 
L 332.842124 255.041188 
L 332.907055 253.865077 
L 332.971985 254.558248 
L 333.231709 254.178389 
L 333.361571 254.342201 
L 333.426502 253.891788 
L 333.491433 254.208598 
L 333.556364 254.442935 
L 333.686225 252.55741 
L 334.270604 239.542782 
L 334.335535 239.833018 
L 334.919913 250.098093 
L 335.114705 257.343721 
L 335.179636 257.068298 
L 335.43936 258.728797 
L 335.504291 258.650387 
L 335.569222 258.011525 
L 335.634153 259.157659 
L 335.699084 259.153658 
L 335.828945 258.387414 
L 335.893876 258.608477 
L 335.958807 259.38766 
L 336.023738 259.196319 
L 336.218531 276.816103 
L 336.283462 276.545012 
L 336.413324 253.750241 
L 336.543185 186.358682 
L 336.737978 64.769589 
L 336.86784 118.084324 
L 337.127564 244.698282 
L 337.387287 249.238419 
L 337.711942 254.510006 
L 337.776873 253.950918 
L 337.971665 252.961095 
L 338.036596 253.292415 
L 338.166458 252.029525 
L 338.231389 253.385144 
L 338.491113 249.888443 
L 338.556044 249.621567 
L 338.620975 250.490445 
L 339.205353 242.306274 
L 339.984524 228.504934 
L 340.43904 218.126756 
L 340.568902 215.74118 
L 340.763695 213.667642 
L 340.893556 214.103471 
L 341.15328 226.409084 
L 341.477935 243.291539 
L 341.802589 251.532856 
L 341.997382 254.807687 
L 342.062313 254.022724 
L 342.127244 253.503487 
L 342.257105 254.9359 
L 342.322036 254.929145 
L 342.386967 254.67376 
L 342.451898 255.304259 
L 342.516829 255.116553 
L 342.58176 254.166756 
L 342.646691 254.199237 
L 342.711622 254.629563 
L 342.776553 254.54582 
L 342.841484 254.487485 
L 342.971345 253.941179 
L 343.036276 254.048597 
L 343.166138 253.312975 
L 343.231069 254.060944 
L 343.296 254.007149 
L 343.360931 253.79907 
L 343.555724 254.768822 
L 343.750516 253.207966 
L 343.945309 253.830279 
L 344.01024 253.326093 
L 344.075171 253.617783 
L 344.205033 253.834335 
L 344.269964 253.745624 
L 344.399825 255.720518 
L 344.529687 254.374466 
L 344.72448 255.10477 
L 344.789411 254.974789 
L 344.854342 255.765004 
L 344.919273 255.256723 
L 344.984204 255.311956 
L 345.114065 256.171977 
L 345.178996 255.783953 
L 345.243927 256.003837 
L 345.308858 256.076653 
L 345.43872 255.846782 
L 345.698444 256.778382 
L 345.763375 256.703445 
L 345.828305 256.333957 
L 345.893236 256.629048 
L 345.958167 256.557738 
L 346.023098 256.473257 
L 346.088029 256.188583 
L 346.217891 256.661758 
L 346.347753 255.147876 
L 346.412684 255.324644 
L 346.542545 256.012467 
L 346.607476 255.807949 
L 346.737338 256.1341 
L 346.802269 255.454184 
L 346.8672 255.718865 
L 346.997062 256.018818 
L 347.061993 254.942971 
L 347.126924 255.457418 
L 347.191855 255.244191 
L 347.256785 256.084716 
L 347.321716 255.529593 
L 347.386647 255.614185 
L 347.451578 254.797046 
L 347.516509 254.969298 
L 347.58144 255.301955 
L 347.646371 255.211283 
L 347.711302 255.0843 
L 347.776233 255.792845 
L 347.841164 255.665457 
L 347.906095 255.850382 
L 347.971025 255.724464 
L 348.035956 255.225099 
L 348.425542 247.962767 
L 348.490473 248.241398 
L 348.685265 238.792156 
L 348.750196 239.524403 
L 348.880058 241.941889 
L 349.074851 244.136893 
L 349.334575 248.422696 
L 349.529367 258.227519 
L 349.594298 257.537126 
L 349.72416 258.338634 
L 349.789091 258.001065 
L 349.918953 258.567636 
L 349.983884 258.293216 
L 350.178676 259.643673 
L 350.243607 258.398007 
L 350.308538 258.609408 
L 350.503331 260.866828 
L 350.698124 278.980823 
L 350.827985 265.290075 
L 350.957847 216.330887 
L 351.217571 64.27193 
L 351.412364 177.737025 
L 351.607156 242.68288 
L 352.126604 253.848077 
L 352.256465 253.312248 
L 352.386327 254.53805 
L 352.451258 254.475022 
L 352.710982 252.71892 
L 352.775913 252.79188 
L 353.100567 250.3745 
L 353.490153 245.60756 
L 353.555084 245.673924 
L 354.139462 235.597192 
L 354.269324 233.794018 
L 354.918633 219.356368 
L 355.243287 215.55584 
L 355.308218 215.647392 
L 355.503011 220.819115 
L 356.087389 248.715441 
L 356.347113 253.52245 
L 356.412044 253.420398 
L 356.476975 253.171005 
L 356.606836 254.685588 
L 356.671767 254.354782 
L 356.931491 254.83917 
L 357.191215 255.253445 
L 357.386007 254.445212 
L 357.450938 254.828923 
L 357.515869 254.656835 
L 357.645731 254.399619 
L 357.775593 254.751677 
L 357.840524 254.597807 
L 357.905455 254.011543 
L 357.970385 255.03753 
L 358.035316 254.157149 
L 358.100247 254.183477 
L 358.165178 254.547892 
L 358.230109 254.320388 
L 358.29504 254.333024 
L 358.489833 253.824133 
L 358.619695 255.161113 
L 358.749556 254.246694 
L 358.944349 256.158184 
L 359.00928 256.409103 
L 359.074211 255.382531 
L 359.139142 255.78018 
L 359.269004 256.813201 
L 359.398865 256.35012 
L 359.463796 256.926809 
L 359.528727 256.608514 
L 359.593658 256.959669 
L 359.658589 256.490724 
L 359.72352 256.625604 
L 359.788451 256.36926 
L 359.853382 256.417723 
L 359.983244 257.97752 
L 360.113105 257.165978 
L 360.178036 256.897348 
L 360.242967 257.597283 
L 360.307898 257.253384 
L 360.372829 256.839402 
L 360.43776 257.792267 
L 360.502691 257.721545 
L 360.632553 257.530381 
L 360.697484 256.764623 
L 360.762415 256.887428 
L 360.892276 257.697057 
L 360.957207 257.468339 
L 361.087069 258.341506 
L 361.216931 258.144966 
L 361.346793 256.945111 
L 361.411724 257.278398 
L 361.606516 258.522827 
L 361.671447 257.725829 
L 361.736378 258.073885 
L 361.801309 258.431247 
L 361.86624 257.419156 
L 361.931171 257.460316 
L 361.996102 258.356419 
L 362.061033 258.222424 
L 362.125964 257.916575 
L 362.190895 258.070174 
L 362.255825 257.907705 
L 362.320756 257.43274 
L 362.58048 253.279706 
L 362.840204 246.80275 
L 362.970065 242.540828 
L 363.229789 246.445903 
L 363.29472 246.589881 
L 363.619375 250.806025 
L 363.879098 260.782287 
L 363.944029 261.26518 
L 364.00896 260.587886 
L 364.073891 261.280703 
L 364.138822 261.20996 
L 364.203753 260.111438 
L 364.333615 261.720433 
L 364.398545 261.271597 
L 364.463476 261.369479 
L 364.528407 261.254394 
L 364.7232 262.774374 
L 364.788131 265.06911 
L 364.982924 281.804753 
L 365.047855 277.301705 
L 365.177716 245.382959 
L 365.43744 64.785297 
L 365.502371 70.89619 
L 365.956887 247.690475 
L 366.411404 257.21092 
L 366.476335 255.987317 
L 366.541265 256.616109 
L 366.606196 257.230119 
L 366.736058 256.328381 
L 366.800989 256.747623 
L 366.995782 253.981254 
L 367.060713 254.33085 
L 367.255505 252.538555 
L 367.320436 252.817167 
L 368.099607 239.66774 
L 368.2944 236.092389 
L 369.463156 209.5449 
L 369.528087 209.836896 
L 369.593018 209.311944 
L 369.852742 218.622132 
L 370.307258 240.292884 
L 370.696844 247.342147 
L 370.761775 246.711558 
L 371.021498 248.508558 
L 371.086429 248.036264 
L 371.15136 248.558119 
L 371.216291 247.961326 
L 371.281222 248.083183 
L 371.411084 248.332747 
L 371.476015 249.202622 
L 371.540945 249.128812 
L 371.605876 249.072875 
L 371.670807 248.594482 
L 371.735738 248.938638 
L 371.800669 249.808315 
L 371.995462 248.855117 
L 372.125324 249.383319 
L 372.190255 249.167072 
L 372.255185 250.134588 
L 372.320116 249.45915 
L 372.385047 248.758057 
L 372.57984 249.57293 
L 372.644771 249.39271 
L 372.969425 251.182704 
L 373.034356 250.286147 
L 373.099287 250.675391 
L 373.229149 251.65303 
L 373.29408 251.434045 
L 373.618735 254.225775 
L 373.683665 254.315332 
L 373.748596 253.196071 
L 373.813527 253.404079 
L 373.878458 253.701141 
L 373.943389 253.103297 
L 374.073251 254.951966 
L 374.138182 253.990575 
L 374.203113 255.129182 
L 374.268044 254.510703 
L 374.72256 256.412234 
L 374.787491 257.331623 
L 374.917353 256.117073 
L 374.982284 256.512276 
L 375.047215 256.435316 
L 375.112145 256.343064 
L 375.306938 257.707448 
L 375.371869 257.63815 
L 375.566662 257.133964 
L 375.631593 258.197453 
L 375.696524 258.153321 
L 375.761455 258.432804 
L 375.826385 258.3611 
L 375.891316 257.664216 
L 375.956247 257.860823 
L 376.021178 258.161931 
L 376.086109 258.11755 
L 376.15104 257.704769 
L 376.215971 258.172208 
L 376.280902 257.685265 
L 376.345833 257.849164 
L 376.475695 258.092615 
L 376.605556 257.153609 
L 376.735418 258.014031 
L 376.800349 257.757389 
L 377.125004 252.998921 
L 377.384727 246.310301 
L 377.514589 241.014609 
L 377.774313 245.443447 
L 377.839244 245.24024 
L 378.163898 250.383475 
L 378.358691 259.89173 
L 378.423622 260.107794 
L 378.488553 259.654155 
L 378.553484 259.836978 
L 378.618415 260.896498 
L 378.683345 260.058185 
L 378.748276 260.096415 
L 378.878138 261.669701 
L 378.943069 261.230956 
L 379.008 261.427143 
L 379.137862 260.458074 
L 379.332655 263.948291 
L 379.527447 281.07718 
L 379.657309 263.250743 
L 379.787171 207.483058 
L 379.981964 62.674951 
L 380.046895 69.330211 
L 380.501411 245.831612 
L 380.826065 254.932115 
L 380.955927 256.425242 
L 381.020858 255.28215 
L 381.085789 255.292397 
L 381.15072 256.171022 
L 381.345513 254.862048 
L 381.410444 254.752936 
L 381.475375 254.886496 
L 381.670167 252.987763 
L 382.059753 247.842994 
L 382.124684 248.339538 
L 382.189615 246.753863 
L 382.254545 247.630262 
L 382.514269 244.083463 
L 382.773993 239.407165 
L 382.968785 235.978177 
L 383.423302 225.240829 
L 383.488233 224.610544 
L 383.877818 215.870939 
L 383.942749 215.886421 
L 384.072611 214.492462 
L 384.332335 221.266767 
L 384.981644 249.098045 
L 385.176436 252.116917 
L 385.501091 254.292675 
L 385.566022 254.147417 
L 385.630953 253.881784 
L 385.695884 254.222736 
L 385.760815 253.390365 
L 385.825745 253.586449 
L 385.890676 253.60212 
L 385.955607 254.467969 
L 386.020538 253.088542 
L 386.085469 253.642581 
L 386.1504 253.691066 
L 386.280262 252.503793 
L 386.410124 253.545573 
L 386.539985 252.459154 
L 386.669847 252.526492 
L 386.734778 252.449944 
L 386.86464 252.584955 
L 386.929571 252.171261 
L 386.994502 252.950309 
L 387.059433 251.709787 
L 387.124364 252.372229 
L 387.254225 251.426475 
L 387.449018 253.354663 
L 387.643811 252.778539 
L 387.773673 253.487443 
L 387.838604 253.495554 
L 387.903535 253.166031 
L 388.163258 255.321641 
L 388.228189 255.133655 
L 388.487913 256.129394 
L 388.552844 256.587888 
L 388.682705 255.09789 
L 388.747636 255.401741 
L 388.812567 256.597808 
L 388.877498 256.517236 
L 388.942429 256.323604 
L 389.00736 255.517244 
L 389.137222 256.889698 
L 389.202153 256.435607 
L 389.396945 257.489621 
L 389.461876 257.662549 
L 389.656669 256.374581 
L 390.111185 257.769842 
L 390.176116 257.554442 
L 390.241047 257.969681 
L 390.305978 257.446221 
L 390.370909 257.581382 
L 390.43584 257.738994 
L 390.500771 256.801703 
L 390.565702 258.386674 
L 390.630633 258.216217 
L 390.695564 257.866745 
L 390.760495 258.36863 
L 390.890356 257.616924 
L 390.955287 257.974876 
L 391.020218 257.138551 
L 391.15008 258.173413 
L 391.215011 257.697326 
L 391.409804 254.728946 
L 391.474735 254.425289 
L 391.734458 247.098975 
L 391.929251 242.157031 
L 392.124044 246.494684 
L 392.188975 246.440828 
L 392.253905 246.451103 
L 392.513629 250.421206 
L 392.708422 261.598906 
L 392.773353 261.244174 
L 392.838284 260.702101 
L 392.903215 261.084418 
L 393.033076 261.568769 
L 393.098007 260.681024 
L 393.227869 261.391992 
L 393.2928 261.022981 
L 393.552524 262.204466 
L 393.617455 262.042051 
L 393.682385 263.947156 
L 393.877178 281.989744 
L 394.00704 266.803152 
L 394.136902 215.737379 
L 394.331695 64.741 
L 394.396625 65.441811 
L 394.591418 184.519453 
L 394.786211 246.155226 
L 395.305658 255.273024 
L 395.370589 254.897272 
L 395.500451 254.934772 
L 395.630313 254.740922 
L 395.695244 254.821046 
L 395.890036 253.338076 
L 395.954967 253.399292 
L 396.214691 251.191711 
L 396.279622 251.793039 
L 396.409484 248.581707 
L 396.474415 248.772387 
L 396.604276 247.879357 
L 397.188655 239.496945 
L 397.253585 239.918619 
L 397.513309 232.318002 
L 398.29248 215.425165 
L 398.422342 214.097844 
L 398.487273 215.067558 
L 398.487273 215.067558 
" style="fill:none;stroke:#1f77b4;stroke-linecap:square;stroke-width:1.5;"/>
   </g>
   <g id="patch_3">
    <path d="M 57.6 307.584 
L 57.6 41.472 
" style="fill:none;stroke:#000000;stroke-linecap:square;stroke-linejoin:miter;stroke-width:0.8;"/>
   </g>
   <g id="patch_4">
    <path d="M 414.72 307.584 
L 414.72 41.472 
" style="fill:none;stroke:#000000;stroke-linecap:square;stroke-linejoin:miter;stroke-width:0.8;"/>
   </g>
   <g id="patch_5">
    <path d="M 57.6 307.584 
L 414.72 307.584 
" style="fill:none;stroke:#000000;stroke-linecap:square;stroke-linejoin:miter;stroke-width:0.8;"/>
   </g>
   <g id="patch_6">
    <path d="M 57.6 41.472 
L 414.72 41.472 
" style="fill:none;stroke:#000000;stroke-linecap:square;stroke-linejoin:miter;stroke-width:0.8;"/>
   </g>
   <g id="text_20">
    <!-- ecg (filtered) -->
    <defs>
     <path d="M 48.78125 52.59375 
L 48.78125 44.1875 
Q 44.96875 46.296875 41.140625 47.34375 
Q 37.3125 48.390625 33.40625 48.390625 
Q 24.65625 48.390625 19.8125 42.84375 
Q 14.984375 37.3125 14.984375 27.296875 
Q 14.984375 17.28125 19.8125 11.734375 
Q 24.65625 6.203125 33.40625 6.203125 
Q 37.3125 6.203125 41.140625 7.25 
Q 44.96875 8.296875 48.78125 10.40625 
L 48.78125 2.09375 
Q 45.015625 0.34375 40.984375 -0.53125 
Q 36.96875 -1.421875 32.421875 -1.421875 
Q 20.0625 -1.421875 12.78125 6.34375 
Q 5.515625 14.109375 5.515625 27.296875 
Q 5.515625 40.671875 12.859375 48.328125 
Q 20.21875 56 33.015625 56 
Q 37.15625 56 41.109375 55.140625 
Q 45.0625 54.296875 48.78125 52.59375 
z
" id="DejaVuSans-99"/>
     <path d="M 45.40625 27.984375 
Q 45.40625 37.75 41.375 43.109375 
Q 37.359375 48.484375 30.078125 48.484375 
Q 22.859375 48.484375 18.828125 43.109375 
Q 14.796875 37.75 14.796875 27.984375 
Q 14.796875 18.265625 18.828125 12.890625 
Q 22.859375 7.515625 30.078125 7.515625 
Q 37.359375 7.515625 41.375 12.890625 
Q 45.40625 18.265625 45.40625 27.984375 
z
M 54.390625 6.78125 
Q 54.390625 -7.171875 48.1875 -13.984375 
Q 42 -20.796875 29.203125 -20.796875 
Q 24.46875 -20.796875 20.265625 -20.09375 
Q 16.0625 -19.390625 12.109375 -17.921875 
L 12.109375 -9.1875 
Q 16.0625 -11.328125 19.921875 -12.34375 
Q 23.78125 -13.375 27.78125 -13.375 
Q 36.625 -13.375 41.015625 -8.765625 
Q 45.40625 -4.15625 45.40625 5.171875 
L 45.40625 9.625 
Q 42.625 4.78125 38.28125 2.390625 
Q 33.9375 0 27.875 0 
Q 17.828125 0 11.671875 7.65625 
Q 5.515625 15.328125 5.515625 27.984375 
Q 5.515625 40.671875 11.671875 48.328125 
Q 17.828125 56 27.875 56 
Q 33.9375 56 38.28125 53.609375 
Q 42.625 51.21875 45.40625 46.390625 
L 45.40625 54.6875 
L 54.390625 54.6875 
z
" id="DejaVuSans-103"/>
     <path id="DejaVuSans-32"/>
     <path d="M 37.109375 75.984375 
L 37.109375 68.5 
L 28.515625 68.5 
Q 23.6875 68.5 21.796875 66.546875 
Q 19.921875 64.59375 19.921875 59.515625 
L 19.921875 54.6875 
L 34.71875 54.6875 
L 34.71875 47.703125 
L 19.921875 47.703125 
L 19.921875 0 
L 10.890625 0 
L 10.890625 47.703125 
L 2.296875 47.703125 
L 2.296875 54.6875 
L 10.890625 54.6875 
L 10.890625 58.5 
Q 10.890625 67.625 15.140625 71.796875 
Q 19.390625 75.984375 28.609375 75.984375 
z
" id="DejaVuSans-102"/>
     <path d="M 41.109375 46.296875 
Q 39.59375 47.171875 37.8125 47.578125 
Q 36.03125 48 33.890625 48 
Q 26.265625 48 22.1875 43.046875 
Q 18.109375 38.09375 18.109375 28.8125 
L 18.109375 0 
L 9.078125 0 
L 9.078125 54.6875 
L 18.109375 54.6875 
L 18.109375 46.1875 
Q 20.953125 51.171875 25.484375 53.578125 
Q 30.03125 56 36.53125 56 
Q 37.453125 56 38.578125 55.875 
Q 39.703125 55.765625 41.0625 55.515625 
z
" id="DejaVuSans-114"/>
    </defs>
    <g transform="translate(197.44875 35.472)scale(0.12 -0.12)">
     <use xlink:href="#DejaVuSans-101"/>
     <use x="61.523438" xlink:href="#DejaVuSans-99"/>
     <use x="116.503906" xlink:href="#DejaVuSans-103"/>
     <use x="179.980469" xlink:href="#DejaVuSans-32"/>
     <use x="211.767578" xlink:href="#DejaVuSans-40"/>
     <use x="250.78125" xlink:href="#DejaVuSans-102"/>
     <use x="285.986328" xlink:href="#DejaVuSans-105"/>
     <use x="313.769531" xlink:href="#DejaVuSans-108"/>
     <use x="341.552734" xlink:href="#DejaVuSans-116"/>
     <use x="380.761719" xlink:href="#DejaVuSans-101"/>
     <use x="442.285156" xlink:href="#DejaVuSans-114"/>
     <use x="481.148438" xlink:href="#DejaVuSans-101"/>
     <use x="542.671875" xlink:href="#DejaVuSans-100"/>
     <use x="606.148438" xlink:href="#DejaVuSans-41"/>
    </g>
   </g>
  </g>
 </g>
 <defs>
  <clipPath id="p462e223c7a">
   <rect height="266.112" width="357.12" x="57.6" y="41.472"/>
  </clipPath>
 </defs>
</svg>
