<?xml version="1.0" encoding="UTF-8" standalone="no"?>
<!-- Created with matplotlib (https://matplotlib.org/) -->

<svg
   xmlns:dc="http://purl.org/dc/elements/1.1/"
   xmlns:cc="http://creativecommons.org/ns#"
   xmlns:rdf="http://www.w3.org/1999/02/22-rdf-syntax-ns#"
   xmlns:svg="http://www.w3.org/2000/svg"
   xmlns="http://www.w3.org/2000/svg"
   xmlns:xlink="http://www.w3.org/1999/xlink"
   xmlns:sodipodi="http://sodipodi.sourceforge.net/DTD/sodipodi-0.dtd"
   xmlns:inkscape="http://www.inkscape.org/namespaces/inkscape"
   height="345.6pt"
   version="1.1"
   viewBox="0 0 460.8 345.6"
   width="460.8pt"
   id="svg18354"
   sodipodi:docname="hr_fig10_PQRST.svg"
   inkscape:version="0.92.4 (5da689c313, 2019-01-14)">
  <metadata
     id="metadata18358">
    <rdf:RDF>
      <cc:Work
         rdf:about="">
        <dc:format>image/svg+xml</dc:format>
        <dc:type
           rdf:resource="http://purl.org/dc/dcmitype/StillImage" />
        <dc:title></dc:title>
      </cc:Work>
    </rdf:RDF>
  </metadata>
  <sodipodi:namedview
     pagecolor="#ffffff"
     bordercolor="#666666"
     borderopacity="1"
     objecttolerance="10"
     gridtolerance="10"
     guidetolerance="10"
     inkscape:pageopacity="0"
     inkscape:pageshadow="2"
     inkscape:window-width="1920"
     inkscape:window-height="1001"
     id="namedview18356"
     showgrid="false"
     inkscape:zoom="1.0243055"
     inkscape:cx="286.85114"
     inkscape:cy="264.97579"
     inkscape:window-x="-9"
     inkscape:window-y="-9"
     inkscape:window-maximized="1"
     inkscape:current-layer="svg18354" />
  <defs
     id="defs17988">
    <style
       type="text/css"
       id="style17986">
*{stroke-linecap:butt;stroke-linejoin:round;}
  </style>
  </defs>
  <defs
     id="defs18352">
    <clipPath
       id="pbbc8570bab">
      <rect
         height="266.112"
         width="357.12"
         x="57.6"
         y="41.472"
         id="rect18349" />
    </clipPath>
  </defs>
  <g
     id="g23766">
    <g
       id="figure_1">
      <g
         id="patch_1">
        <path
           id="path17990"
           style="fill:#ffffff;"
           d="M 0 345.6  L 460.8 345.6  L 460.8 0  L 0 0  z " />
      </g>
      <g
         id="axes_1">
        <g
           id="patch_2">
          <path
             id="path17993"
             style="fill:#ffffff;"
             d="M 57.6 307.584  L 414.72 307.584  L 414.72 41.472  L 57.6 41.472  z " />
        </g>
        <g
           id="matplotlib.axis_1">
          <g
             id="xtick_1">
            <g
               id="line2d_1">
              <defs
                 id="defs17997">
                <path
                   style="stroke:#000000;stroke-width:0.8;"
                   id="mc0ad6aa8d4"
                   d="M 0 0  L 0 3.5  " />
              </defs>
              <g
                 id="g18001">
                <use
                   id="use17999"
                   y="307.584"
                   xlink:href="#mc0ad6aa8d4"
                   x="73.832727"
                   style="stroke:#000000;stroke-width:0.8;" />
              </g>
            </g>
            <g
               id="text_1">
              <!-- 0.0 -->
              <defs
                 id="defs18006">
                <path
                   id="DejaVuSans-48"
                   d="M 31.78125 66.40625  Q 24.171875 66.40625 20.328125 58.90625  Q 16.5 51.421875 16.5 36.375  Q 16.5 21.390625 20.328125 13.890625  Q 24.171875 6.390625 31.78125 6.390625  Q 39.453125 6.390625 43.28125 13.890625  Q 47.125 21.390625 47.125 36.375  Q 47.125 51.421875 43.28125 58.90625  Q 39.453125 66.40625 31.78125 66.40625  z M 31.78125 74.21875  Q 44.046875 74.21875 50.515625 64.515625  Q 56.984375 54.828125 56.984375 36.375  Q 56.984375 17.96875 50.515625 8.265625  Q 44.046875 -1.421875 31.78125 -1.421875  Q 19.53125 -1.421875 13.0625 8.265625  Q 6.59375 17.96875 6.59375 36.375  Q 6.59375 54.828125 13.0625 64.515625  Q 19.53125 74.21875 31.78125 74.21875  z " />
                <path
                   id="DejaVuSans-46"
                   d="M 10.6875 12.40625  L 21 12.40625  L 21 0  L 10.6875 0  z " />
              </defs>
              <g
                 id="g18014"
                 transform="translate(65.881165 322.182437)scale(0.1 -0.1)">
                <use
                   id="use18008"
                   xlink:href="#DejaVuSans-48" />
                <use
                   id="use18010"
                   xlink:href="#DejaVuSans-46"
                   x="63.623047" />
                <use
                   id="use18012"
                   xlink:href="#DejaVuSans-48"
                   x="95.410156" />
              </g>
            </g>
          </g>
          <g
             id="xtick_2">
            <g
               id="line2d_2">
              <g
                 id="g18020">
                <use
                   id="use18018"
                   y="307.584"
                   xlink:href="#mc0ad6aa8d4"
                   x="120.211948"
                   style="stroke:#000000;stroke-width:0.8;" />
              </g>
            </g>
            <g
               id="text_2">
              <!-- 0.1 -->
              <defs
                 id="defs18024">
                <path
                   id="DejaVuSans-49"
                   d="M 12.40625 8.296875  L 28.515625 8.296875  L 28.515625 63.921875  L 10.984375 60.40625  L 10.984375 69.390625  L 28.421875 72.90625  L 38.28125 72.90625  L 38.28125 8.296875  L 54.390625 8.296875  L 54.390625 0  L 12.40625 0  z " />
              </defs>
              <g
                 id="g18032"
                 transform="translate(112.260386 322.182437)scale(0.1 -0.1)">
                <use
                   id="use18026"
                   xlink:href="#DejaVuSans-48" />
                <use
                   id="use18028"
                   xlink:href="#DejaVuSans-46"
                   x="63.623047" />
                <use
                   id="use18030"
                   xlink:href="#DejaVuSans-49"
                   x="95.410156" />
              </g>
            </g>
          </g>
          <g
             id="xtick_3">
            <g
               id="line2d_3">
              <g
                 id="g18038">
                <use
                   id="use18036"
                   y="307.584"
                   xlink:href="#mc0ad6aa8d4"
                   x="166.591169"
                   style="stroke:#000000;stroke-width:0.8;" />
              </g>
            </g>
            <g
               id="text_3">
              <!-- 0.2 -->
              <defs
                 id="defs18042">
                <path
                   id="DejaVuSans-50"
                   d="M 19.1875 8.296875  L 53.609375 8.296875  L 53.609375 0  L 7.328125 0  L 7.328125 8.296875  Q 12.9375 14.109375 22.625 23.890625  Q 32.328125 33.6875 34.8125 36.53125  Q 39.546875 41.84375 41.421875 45.53125  Q 43.3125 49.21875 43.3125 52.78125  Q 43.3125 58.59375 39.234375 62.25  Q 35.15625 65.921875 28.609375 65.921875  Q 23.96875 65.921875 18.8125 64.3125  Q 13.671875 62.703125 7.8125 59.421875  L 7.8125 69.390625  Q 13.765625 71.78125 18.9375 73  Q 24.125 74.21875 28.421875 74.21875  Q 39.75 74.21875 46.484375 68.546875  Q 53.21875 62.890625 53.21875 53.421875  Q 53.21875 48.921875 51.53125 44.890625  Q 49.859375 40.875 45.40625 35.40625  Q 44.1875 33.984375 37.640625 27.21875  Q 31.109375 20.453125 19.1875 8.296875  z " />
              </defs>
              <g
                 id="g18050"
                 transform="translate(158.639606 322.182437)scale(0.1 -0.1)">
                <use
                   id="use18044"
                   xlink:href="#DejaVuSans-48" />
                <use
                   id="use18046"
                   xlink:href="#DejaVuSans-46"
                   x="63.623047" />
                <use
                   id="use18048"
                   xlink:href="#DejaVuSans-50"
                   x="95.410156" />
              </g>
            </g>
          </g>
          <g
             id="xtick_4">
            <g
               id="line2d_4">
              <g
                 id="g18056">
                <use
                   id="use18054"
                   y="307.584"
                   xlink:href="#mc0ad6aa8d4"
                   x="212.97039"
                   style="stroke:#000000;stroke-width:0.8;" />
              </g>
            </g>
            <g
               id="text_4">
              <!-- 0.3 -->
              <defs
                 id="defs18060">
                <path
                   id="DejaVuSans-51"
                   d="M 40.578125 39.3125  Q 47.65625 37.796875 51.625 33  Q 55.609375 28.21875 55.609375 21.1875  Q 55.609375 10.40625 48.1875 4.484375  Q 40.765625 -1.421875 27.09375 -1.421875  Q 22.515625 -1.421875 17.65625 -0.515625  Q 12.796875 0.390625 7.625 2.203125  L 7.625 11.71875  Q 11.71875 9.328125 16.59375 8.109375  Q 21.484375 6.890625 26.8125 6.890625  Q 36.078125 6.890625 40.9375 10.546875  Q 45.796875 14.203125 45.796875 21.1875  Q 45.796875 27.640625 41.28125 31.265625  Q 36.765625 34.90625 28.71875 34.90625  L 20.21875 34.90625  L 20.21875 43.015625  L 29.109375 43.015625  Q 36.375 43.015625 40.234375 45.921875  Q 44.09375 48.828125 44.09375 54.296875  Q 44.09375 59.90625 40.109375 62.90625  Q 36.140625 65.921875 28.71875 65.921875  Q 24.65625 65.921875 20.015625 65.03125  Q 15.375 64.15625 9.8125 62.3125  L 9.8125 71.09375  Q 15.4375 72.65625 20.34375 73.4375  Q 25.25 74.21875 29.59375 74.21875  Q 40.828125 74.21875 47.359375 69.109375  Q 53.90625 64.015625 53.90625 55.328125  Q 53.90625 49.265625 50.4375 45.09375  Q 46.96875 40.921875 40.578125 39.3125  z " />
              </defs>
              <g
                 id="g18068"
                 transform="translate(205.018827 322.182437)scale(0.1 -0.1)">
                <use
                   id="use18062"
                   xlink:href="#DejaVuSans-48" />
                <use
                   id="use18064"
                   xlink:href="#DejaVuSans-46"
                   x="63.623047" />
                <use
                   id="use18066"
                   xlink:href="#DejaVuSans-51"
                   x="95.410156" />
              </g>
            </g>
          </g>
          <g
             id="xtick_5">
            <g
               id="line2d_5">
              <g
                 id="g18074">
                <use
                   id="use18072"
                   y="307.584"
                   xlink:href="#mc0ad6aa8d4"
                   x="259.34961"
                   style="stroke:#000000;stroke-width:0.8;" />
              </g>
            </g>
            <g
               id="text_5">
              <!-- 0.4 -->
              <defs
                 id="defs18078">
                <path
                   id="DejaVuSans-52"
                   d="M 37.796875 64.3125  L 12.890625 25.390625  L 37.796875 25.390625  z M 35.203125 72.90625  L 47.609375 72.90625  L 47.609375 25.390625  L 58.015625 25.390625  L 58.015625 17.1875  L 47.609375 17.1875  L 47.609375 0  L 37.796875 0  L 37.796875 17.1875  L 4.890625 17.1875  L 4.890625 26.703125  z " />
              </defs>
              <g
                 id="g18086"
                 transform="translate(251.398048 322.182437)scale(0.1 -0.1)">
                <use
                   id="use18080"
                   xlink:href="#DejaVuSans-48" />
                <use
                   id="use18082"
                   xlink:href="#DejaVuSans-46"
                   x="63.623047" />
                <use
                   id="use18084"
                   xlink:href="#DejaVuSans-52"
                   x="95.410156" />
              </g>
            </g>
          </g>
          <g
             id="xtick_6">
            <g
               id="line2d_6">
              <g
                 id="g18092">
                <use
                   id="use18090"
                   y="307.584"
                   xlink:href="#mc0ad6aa8d4"
                   x="305.728831"
                   style="stroke:#000000;stroke-width:0.8;" />
              </g>
            </g>
            <g
               id="text_6">
              <!-- 0.5 -->
              <defs
                 id="defs18096">
                <path
                   id="DejaVuSans-53"
                   d="M 10.796875 72.90625  L 49.515625 72.90625  L 49.515625 64.59375  L 19.828125 64.59375  L 19.828125 46.734375  Q 21.96875 47.46875 24.109375 47.828125  Q 26.265625 48.1875 28.421875 48.1875  Q 40.625 48.1875 47.75 41.5  Q 54.890625 34.8125 54.890625 23.390625  Q 54.890625 11.625 47.5625 5.09375  Q 40.234375 -1.421875 26.90625 -1.421875  Q 22.3125 -1.421875 17.546875 -0.640625  Q 12.796875 0.140625 7.71875 1.703125  L 7.71875 11.625  Q 12.109375 9.234375 16.796875 8.0625  Q 21.484375 6.890625 26.703125 6.890625  Q 35.15625 6.890625 40.078125 11.328125  Q 45.015625 15.765625 45.015625 23.390625  Q 45.015625 31 40.078125 35.4375  Q 35.15625 39.890625 26.703125 39.890625  Q 22.75 39.890625 18.8125 39.015625  Q 14.890625 38.140625 10.796875 36.28125  z " />
              </defs>
              <g
                 id="g18104"
                 transform="translate(297.777269 322.182437)scale(0.1 -0.1)">
                <use
                   id="use18098"
                   xlink:href="#DejaVuSans-48" />
                <use
                   id="use18100"
                   xlink:href="#DejaVuSans-46"
                   x="63.623047" />
                <use
                   id="use18102"
                   xlink:href="#DejaVuSans-53"
                   x="95.410156" />
              </g>
            </g>
          </g>
          <g
             id="xtick_7">
            <g
               id="line2d_7">
              <g
                 id="g18110">
                <use
                   id="use18108"
                   y="307.584"
                   xlink:href="#mc0ad6aa8d4"
                   x="352.108052"
                   style="stroke:#000000;stroke-width:0.8;" />
              </g>
            </g>
            <g
               id="text_7">
              <!-- 0.6 -->
              <defs
                 id="defs18114">
                <path
                   id="DejaVuSans-54"
                   d="M 33.015625 40.375  Q 26.375 40.375 22.484375 35.828125  Q 18.609375 31.296875 18.609375 23.390625  Q 18.609375 15.53125 22.484375 10.953125  Q 26.375 6.390625 33.015625 6.390625  Q 39.65625 6.390625 43.53125 10.953125  Q 47.40625 15.53125 47.40625 23.390625  Q 47.40625 31.296875 43.53125 35.828125  Q 39.65625 40.375 33.015625 40.375  z M 52.59375 71.296875  L 52.59375 62.3125  Q 48.875 64.0625 45.09375 64.984375  Q 41.3125 65.921875 37.59375 65.921875  Q 27.828125 65.921875 22.671875 59.328125  Q 17.53125 52.734375 16.796875 39.40625  Q 19.671875 43.65625 24.015625 45.921875  Q 28.375 48.1875 33.59375 48.1875  Q 44.578125 48.1875 50.953125 41.515625  Q 57.328125 34.859375 57.328125 23.390625  Q 57.328125 12.15625 50.6875 5.359375  Q 44.046875 -1.421875 33.015625 -1.421875  Q 20.359375 -1.421875 13.671875 8.265625  Q 6.984375 17.96875 6.984375 36.375  Q 6.984375 53.65625 15.1875 63.9375  Q 23.390625 74.21875 37.203125 74.21875  Q 40.921875 74.21875 44.703125 73.484375  Q 48.484375 72.75 52.59375 71.296875  z " />
              </defs>
              <g
                 id="g18122"
                 transform="translate(344.156489 322.182437)scale(0.1 -0.1)">
                <use
                   id="use18116"
                   xlink:href="#DejaVuSans-48" />
                <use
                   id="use18118"
                   xlink:href="#DejaVuSans-46"
                   x="63.623047" />
                <use
                   id="use18120"
                   xlink:href="#DejaVuSans-54"
                   x="95.410156" />
              </g>
            </g>
          </g>
          <g
             id="xtick_8">
            <g
               id="line2d_8">
              <g
                 id="g18128">
                <use
                   id="use18126"
                   y="307.584"
                   xlink:href="#mc0ad6aa8d4"
                   x="398.487273"
                   style="stroke:#000000;stroke-width:0.8;" />
              </g>
            </g>
            <g
               id="text_8">
              <!-- 0.7 -->
              <defs
                 id="defs18132">
                <path
                   id="DejaVuSans-55"
                   d="M 8.203125 72.90625  L 55.078125 72.90625  L 55.078125 68.703125  L 28.609375 0  L 18.3125 0  L 43.21875 64.59375  L 8.203125 64.59375  z " />
              </defs>
              <g
                 id="g18140"
                 transform="translate(390.53571 322.182437)scale(0.1 -0.1)">
                <use
                   id="use18134"
                   xlink:href="#DejaVuSans-48" />
                <use
                   id="use18136"
                   xlink:href="#DejaVuSans-46"
                   x="63.623047" />
                <use
                   id="use18138"
                   xlink:href="#DejaVuSans-55"
                   x="95.410156" />
              </g>
            </g>
          </g>
          <g
             id="text_9">
            <!-- Time(s) -->
            <defs
               id="defs18151">
              <path
                 id="DejaVuSans-84"
                 d="M -0.296875 72.90625  L 61.375 72.90625  L 61.375 64.59375  L 35.5 64.59375  L 35.5 0  L 25.59375 0  L 25.59375 64.59375  L -0.296875 64.59375  z " />
              <path
                 id="DejaVuSans-105"
                 d="M 9.421875 54.6875  L 18.40625 54.6875  L 18.40625 0  L 9.421875 0  z M 9.421875 75.984375  L 18.40625 75.984375  L 18.40625 64.59375  L 9.421875 64.59375  z " />
              <path
                 id="DejaVuSans-109"
                 d="M 52 44.1875  Q 55.375 50.25 60.0625 53.125  Q 64.75 56 71.09375 56  Q 79.640625 56 84.28125 50.015625  Q 88.921875 44.046875 88.921875 33.015625  L 88.921875 0  L 79.890625 0  L 79.890625 32.71875  Q 79.890625 40.578125 77.09375 44.375  Q 74.3125 48.1875 68.609375 48.1875  Q 61.625 48.1875 57.5625 43.546875  Q 53.515625 38.921875 53.515625 30.90625  L 53.515625 0  L 44.484375 0  L 44.484375 32.71875  Q 44.484375 40.625 41.703125 44.40625  Q 38.921875 48.1875 33.109375 48.1875  Q 26.21875 48.1875 22.15625 43.53125  Q 18.109375 38.875 18.109375 30.90625  L 18.109375 0  L 9.078125 0  L 9.078125 54.6875  L 18.109375 54.6875  L 18.109375 46.1875  Q 21.1875 51.21875 25.484375 53.609375  Q 29.78125 56 35.6875 56  Q 41.65625 56 45.828125 52.96875  Q 50 49.953125 52 44.1875  z " />
              <path
                 id="DejaVuSans-101"
                 d="M 56.203125 29.59375  L 56.203125 25.203125  L 14.890625 25.203125  Q 15.484375 15.921875 20.484375 11.0625  Q 25.484375 6.203125 34.421875 6.203125  Q 39.59375 6.203125 44.453125 7.46875  Q 49.3125 8.734375 54.109375 11.28125  L 54.109375 2.78125  Q 49.265625 0.734375 44.1875 -0.34375  Q 39.109375 -1.421875 33.890625 -1.421875  Q 20.796875 -1.421875 13.15625 6.1875  Q 5.515625 13.8125 5.515625 26.8125  Q 5.515625 40.234375 12.765625 48.109375  Q 20.015625 56 32.328125 56  Q 43.359375 56 49.78125 48.890625  Q 56.203125 41.796875 56.203125 29.59375  z M 47.21875 32.234375  Q 47.125 39.59375 43.09375 43.984375  Q 39.0625 48.390625 32.421875 48.390625  Q 24.90625 48.390625 20.390625 44.140625  Q 15.875 39.890625 15.1875 32.171875  z " />
              <path
                 id="DejaVuSans-40"
                 d="M 31 75.875  Q 24.46875 64.65625 21.28125 53.65625  Q 18.109375 42.671875 18.109375 31.390625  Q 18.109375 20.125 21.3125 9.0625  Q 24.515625 -2 31 -13.1875  L 23.1875 -13.1875  Q 15.875 -1.703125 12.234375 9.375  Q 8.59375 20.453125 8.59375 31.390625  Q 8.59375 42.28125 12.203125 53.3125  Q 15.828125 64.359375 23.1875 75.875  z " />
              <path
                 id="DejaVuSans-115"
                 d="M 44.28125 53.078125  L 44.28125 44.578125  Q 40.484375 46.53125 36.375 47.5  Q 32.28125 48.484375 27.875 48.484375  Q 21.1875 48.484375 17.84375 46.4375  Q 14.5 44.390625 14.5 40.28125  Q 14.5 37.15625 16.890625 35.375  Q 19.28125 33.59375 26.515625 31.984375  L 29.59375 31.296875  Q 39.15625 29.25 43.1875 25.515625  Q 47.21875 21.78125 47.21875 15.09375  Q 47.21875 7.46875 41.1875 3.015625  Q 35.15625 -1.421875 24.609375 -1.421875  Q 20.21875 -1.421875 15.453125 -0.5625  Q 10.6875 0.296875 5.421875 2  L 5.421875 11.28125  Q 10.40625 8.6875 15.234375 7.390625  Q 20.0625 6.109375 24.8125 6.109375  Q 31.15625 6.109375 34.5625 8.28125  Q 37.984375 10.453125 37.984375 14.40625  Q 37.984375 18.0625 35.515625 20.015625  Q 33.0625 21.96875 24.703125 23.78125  L 21.578125 24.515625  Q 13.234375 26.265625 9.515625 29.90625  Q 5.8125 33.546875 5.8125 39.890625  Q 5.8125 47.609375 11.28125 51.796875  Q 16.75 56 26.8125 56  Q 31.78125 56 36.171875 55.265625  Q 40.578125 54.546875 44.28125 53.078125  z " />
              <path
                 id="DejaVuSans-41"
                 d="M 8.015625 75.875  L 15.828125 75.875  Q 23.140625 64.359375 26.78125 53.3125  Q 30.421875 42.28125 30.421875 31.390625  Q 30.421875 20.453125 26.78125 9.375  Q 23.140625 -1.703125 15.828125 -13.1875  L 8.015625 -13.1875  Q 14.5 -2 17.703125 9.0625  Q 20.90625 20.125 20.90625 31.390625  Q 20.90625 42.671875 17.703125 53.65625  Q 14.5 64.65625 8.015625 75.875  z " />
            </defs>
            <g
               id="g18167"
               transform="translate(217.420156 335.860562)scale(0.1 -0.1)">
              <use
                 id="use18153"
                 xlink:href="#DejaVuSans-84" />
              <use
                 id="use18155"
                 xlink:href="#DejaVuSans-105"
                 x="57.958984" />
              <use
                 id="use18157"
                 xlink:href="#DejaVuSans-109"
                 x="85.742188" />
              <use
                 id="use18159"
                 xlink:href="#DejaVuSans-101"
                 x="183.154297" />
              <use
                 id="use18161"
                 xlink:href="#DejaVuSans-40"
                 x="244.677734" />
              <use
                 id="use18163"
                 xlink:href="#DejaVuSans-115"
                 x="283.691406" />
              <use
                 id="use18165"
                 xlink:href="#DejaVuSans-41"
                 x="335.791016" />
            </g>
          </g>
        </g>
        <g
           id="matplotlib.axis_2">
          <g
             id="ytick_1">
            <g
               id="line2d_9">
              <defs
                 id="defs18172">
                <path
                   style="stroke:#000000;stroke-width:0.8;"
                   id="m4d707d5f95"
                   d="M 0 0  L -3.5 0  " />
              </defs>
              <g
                 id="g18176">
                <use
                   id="use18174"
                   y="274.891767"
                   xlink:href="#m4d707d5f95"
                   x="57.6"
                   style="stroke:#000000;stroke-width:0.8;" />
              </g>
            </g>
            <g
               id="text_10">
              <!-- −0.0005 -->
              <defs
                 id="defs18180">
                <path
                   id="DejaVuSans-8722"
                   d="M 10.59375 35.5  L 73.1875 35.5  L 73.1875 27.203125  L 10.59375 27.203125  z " />
              </defs>
              <g
                 id="g18196"
                 transform="translate(7.229687 278.690986)scale(0.1 -0.1)">
                <use
                   id="use18182"
                   xlink:href="#DejaVuSans-8722" />
                <use
                   id="use18184"
                   xlink:href="#DejaVuSans-48"
                   x="83.789062" />
                <use
                   id="use18186"
                   xlink:href="#DejaVuSans-46"
                   x="147.412109" />
                <use
                   id="use18188"
                   xlink:href="#DejaVuSans-48"
                   x="179.199219" />
                <use
                   id="use18190"
                   xlink:href="#DejaVuSans-48"
                   x="242.822266" />
                <use
                   id="use18192"
                   xlink:href="#DejaVuSans-48"
                   x="306.445312" />
                <use
                   id="use18194"
                   xlink:href="#DejaVuSans-53"
                   x="370.068359" />
              </g>
            </g>
          </g>
          <g
             id="ytick_2">
            <g
               id="line2d_10">
              <g
                 id="g18202">
                <use
                   id="use18200"
                   y="218.077455"
                   xlink:href="#m4d707d5f95"
                   x="57.6"
                   style="stroke:#000000;stroke-width:0.8;" />
              </g>
            </g>
            <g
               id="text_11">
              <!-- 0.0000 -->
              <g
                 id="g18217"
                 transform="translate(15.609375 221.876673)scale(0.1 -0.1)">
                <use
                   id="use18205"
                   xlink:href="#DejaVuSans-48" />
                <use
                   id="use18207"
                   xlink:href="#DejaVuSans-46"
                   x="63.623047" />
                <use
                   id="use18209"
                   xlink:href="#DejaVuSans-48"
                   x="95.410156" />
                <use
                   id="use18211"
                   xlink:href="#DejaVuSans-48"
                   x="159.033203" />
                <use
                   id="use18213"
                   xlink:href="#DejaVuSans-48"
                   x="222.65625" />
                <use
                   id="use18215"
                   xlink:href="#DejaVuSans-48"
                   x="286.279297" />
              </g>
            </g>
          </g>
          <g
             id="ytick_3">
            <g
               id="line2d_11">
              <g
                 id="g18223">
                <use
                   id="use18221"
                   y="161.263142"
                   xlink:href="#m4d707d5f95"
                   x="57.6"
                   style="stroke:#000000;stroke-width:0.8;" />
              </g>
            </g>
            <g
               id="text_12">
              <!-- 0.0005 -->
              <g
                 id="g18238"
                 transform="translate(15.609375 165.062361)scale(0.1 -0.1)">
                <use
                   id="use18226"
                   xlink:href="#DejaVuSans-48" />
                <use
                   id="use18228"
                   xlink:href="#DejaVuSans-46"
                   x="63.623047" />
                <use
                   id="use18230"
                   xlink:href="#DejaVuSans-48"
                   x="95.410156" />
                <use
                   id="use18232"
                   xlink:href="#DejaVuSans-48"
                   x="159.033203" />
                <use
                   id="use18234"
                   xlink:href="#DejaVuSans-48"
                   x="222.65625" />
                <use
                   id="use18236"
                   xlink:href="#DejaVuSans-53"
                   x="286.279297" />
              </g>
            </g>
          </g>
          <g
             id="ytick_4">
            <g
               id="line2d_12">
              <g
                 id="g18244">
                <use
                   id="use18242"
                   y="104.448829"
                   xlink:href="#m4d707d5f95"
                   x="57.6"
                   style="stroke:#000000;stroke-width:0.8;" />
              </g>
            </g>
            <g
               id="text_13">
              <!-- 0.0010 -->
              <g
                 id="g18259"
                 transform="translate(15.609375 108.248048)scale(0.1 -0.1)">
                <use
                   id="use18247"
                   xlink:href="#DejaVuSans-48" />
                <use
                   id="use18249"
                   xlink:href="#DejaVuSans-46"
                   x="63.623047" />
                <use
                   id="use18251"
                   xlink:href="#DejaVuSans-48"
                   x="95.410156" />
                <use
                   id="use18253"
                   xlink:href="#DejaVuSans-48"
                   x="159.033203" />
                <use
                   id="use18255"
                   xlink:href="#DejaVuSans-49"
                   x="222.65625" />
                <use
                   id="use18257"
                   xlink:href="#DejaVuSans-48"
                   x="286.279297" />
              </g>
            </g>
          </g>
          <g
             id="ytick_5">
            <g
               id="line2d_13">
              <g
                 id="g18265">
                <use
                   id="use18263"
                   y="47.634517"
                   xlink:href="#m4d707d5f95"
                   x="57.6"
                   style="stroke:#000000;stroke-width:0.8;" />
              </g>
            </g>
            <g
               id="text_14">
              <!-- 0.0015 -->
              <g
                 id="g18280"
                 transform="translate(15.609375 51.433735)scale(0.1 -0.1)">
                <use
                   id="use18268"
                   xlink:href="#DejaVuSans-48" />
                <use
                   id="use18270"
                   xlink:href="#DejaVuSans-46"
                   x="63.623047" />
                <use
                   id="use18272"
                   xlink:href="#DejaVuSans-48"
                   x="95.410156" />
                <use
                   id="use18274"
                   xlink:href="#DejaVuSans-48"
                   x="159.033203" />
                <use
                   id="use18276"
                   xlink:href="#DejaVuSans-49"
                   x="222.65625" />
                <use
                   id="use18278"
                   xlink:href="#DejaVuSans-53"
                   x="286.279297" />
              </g>
            </g>
          </g>
          <g
             id="text_15">
            <!-- Amplitude -->
            <defs
               id="defs18290">
              <path
                 id="DejaVuSans-65"
                 d="M 34.1875 63.1875  L 20.796875 26.90625  L 47.609375 26.90625  z M 28.609375 72.90625  L 39.796875 72.90625  L 67.578125 0  L 57.328125 0  L 50.6875 18.703125  L 17.828125 18.703125  L 11.1875 0  L 0.78125 0  z " />
              <path
                 id="DejaVuSans-112"
                 d="M 18.109375 8.203125  L 18.109375 -20.796875  L 9.078125 -20.796875  L 9.078125 54.6875  L 18.109375 54.6875  L 18.109375 46.390625  Q 20.953125 51.265625 25.265625 53.625  Q 29.59375 56 35.59375 56  Q 45.5625 56 51.78125 48.09375  Q 58.015625 40.1875 58.015625 27.296875  Q 58.015625 14.40625 51.78125 6.484375  Q 45.5625 -1.421875 35.59375 -1.421875  Q 29.59375 -1.421875 25.265625 0.953125  Q 20.953125 3.328125 18.109375 8.203125  z M 48.6875 27.296875  Q 48.6875 37.203125 44.609375 42.84375  Q 40.53125 48.484375 33.40625 48.484375  Q 26.265625 48.484375 22.1875 42.84375  Q 18.109375 37.203125 18.109375 27.296875  Q 18.109375 17.390625 22.1875 11.75  Q 26.265625 6.109375 33.40625 6.109375  Q 40.53125 6.109375 44.609375 11.75  Q 48.6875 17.390625 48.6875 27.296875  z " />
              <path
                 id="DejaVuSans-108"
                 d="M 9.421875 75.984375  L 18.40625 75.984375  L 18.40625 0  L 9.421875 0  z " />
              <path
                 id="DejaVuSans-116"
                 d="M 18.3125 70.21875  L 18.3125 54.6875  L 36.8125 54.6875  L 36.8125 47.703125  L 18.3125 47.703125  L 18.3125 18.015625  Q 18.3125 11.328125 20.140625 9.421875  Q 21.96875 7.515625 27.59375 7.515625  L 36.8125 7.515625  L 36.8125 0  L 27.59375 0  Q 17.1875 0 13.234375 3.875  Q 9.28125 7.765625 9.28125 18.015625  L 9.28125 47.703125  L 2.6875 47.703125  L 2.6875 54.6875  L 9.28125 54.6875  L 9.28125 70.21875  z " />
              <path
                 id="DejaVuSans-117"
                 d="M 8.5 21.578125  L 8.5 54.6875  L 17.484375 54.6875  L 17.484375 21.921875  Q 17.484375 14.15625 20.5 10.265625  Q 23.53125 6.390625 29.59375 6.390625  Q 36.859375 6.390625 41.078125 11.03125  Q 45.3125 15.671875 45.3125 23.6875  L 45.3125 54.6875  L 54.296875 54.6875  L 54.296875 0  L 45.3125 0  L 45.3125 8.40625  Q 42.046875 3.421875 37.71875 1  Q 33.40625 -1.421875 27.6875 -1.421875  Q 18.265625 -1.421875 13.375 4.4375  Q 8.5 10.296875 8.5 21.578125  z M 31.109375 56  z " />
              <path
                 id="DejaVuSans-100"
                 d="M 45.40625 46.390625  L 45.40625 75.984375  L 54.390625 75.984375  L 54.390625 0  L 45.40625 0  L 45.40625 8.203125  Q 42.578125 3.328125 38.25 0.953125  Q 33.9375 -1.421875 27.875 -1.421875  Q 17.96875 -1.421875 11.734375 6.484375  Q 5.515625 14.40625 5.515625 27.296875  Q 5.515625 40.1875 11.734375 48.09375  Q 17.96875 56 27.875 56  Q 33.9375 56 38.25 53.625  Q 42.578125 51.265625 45.40625 46.390625  z M 14.796875 27.296875  Q 14.796875 17.390625 18.875 11.75  Q 22.953125 6.109375 30.078125 6.109375  Q 37.203125 6.109375 41.296875 11.75  Q 45.40625 17.390625 45.40625 27.296875  Q 45.40625 37.203125 41.296875 42.84375  Q 37.203125 48.484375 30.078125 48.484375  Q 22.953125 48.484375 18.875 42.84375  Q 14.796875 37.203125 14.796875 27.296875  z " />
            </defs>
            <g
               id="g18310"
               transform="translate(1.15 200.150656)rotate(-90)scale(0.1 -0.1)">
              <use
                 id="use18292"
                 xlink:href="#DejaVuSans-65" />
              <use
                 id="use18294"
                 xlink:href="#DejaVuSans-109"
                 x="68.408203" />
              <use
                 id="use18296"
                 xlink:href="#DejaVuSans-112"
                 x="165.820312" />
              <use
                 id="use18298"
                 xlink:href="#DejaVuSans-108"
                 x="229.296875" />
              <use
                 id="use18300"
                 xlink:href="#DejaVuSans-105"
                 x="257.080078" />
              <use
                 id="use18302"
                 xlink:href="#DejaVuSans-116"
                 x="284.863281" />
              <use
                 id="use18304"
                 xlink:href="#DejaVuSans-117"
                 x="324.072266" />
              <use
                 id="use18306"
                 xlink:href="#DejaVuSans-100"
                 x="387.451172" />
              <use
                 id="use18308"
                 xlink:href="#DejaVuSans-101"
                 x="450.927734" />
            </g>
          </g>
        </g>
        <g
           id="line2d_14">
          <path
             id="path18314"
             style="fill:none;stroke:#1f77b4;stroke-linecap:square;stroke-width:1.5;"
             d="M 73.832727 200.660827  L 75.698558 200.082209  L 77.564389 199.785667  L 79.430219 201.268752  L 81.29605 203.880148  L 83.161881 204.192446  L 85.027712 202.950328  L 86.893542 198.276035  L 88.759373 192.077933  L 90.625204 199.995894  L 92.491034 220.006777  L 94.356865 226.680779  L 96.222696 223.549147  L 98.088527 221.881142  L 99.954357 219.75129  L 101.820188 221.225876  L 105.55185 236.92305  L 107.41768 235.62807  L 109.283511 232.060647  L 111.149342 231.113717  L 113.015172 231.51274  L 114.881003 231.688536  L 116.746834 230.618969  L 118.612665 229.396805  L 120.478495 228.855665  L 122.344326 229.386295  L 124.210157 227.327588  L 126.075987 225.865409  L 127.941818 222.848055  L 129.807649 220.052318  L 131.67348 218.28399  L 133.53931 217.062967  L 135.405141 213.695419  L 137.270972 211.103389  L 139.136803 207.234235  L 141.002633 203.675197  L 144.734295 199.367365  L 146.600125 194.910483  L 148.465956 194.783327  L 150.331787 198.118381  L 154.063448 200.510844  L 157.79511 207.048204  L 159.66094 209.374082  L 161.526771 217.631322  L 163.392602 223.8398  L 165.258433 225.914493  L 168.990094 232.780752  L 170.855925 235.895071  L 172.721755 234.896717  L 174.587586 239.493631  L 176.453417 245.682229  L 178.319248 245.204402  L 180.185078 241.042353  L 182.050909 235.642583  L 183.91674 234.255826  L 185.782571 240.902189  L 187.648401 244.081444  L 189.514232 243.073501  L 193.245893 250.990647  L 196.977555 243.435516  L 198.843386 243.309016  L 202.575047 244.296039  L 204.440878 245.927698  L 206.306708 246.705502  L 208.172539 239.612226  L 210.03837 223.465152  L 211.904201 196.216281  L 213.770031 149.669295  L 215.635862 91.549447  L 217.501693 53.568  L 219.367524 105.942611  L 221.233354 178.321665  L 223.099185 231.266316  L 224.965016 277.31409  L 226.830846 295.488  L 228.696677 284.52998  L 230.562508 272.474233  L 232.428339 266.556423  L 234.294169 262.188683  L 236.16 253.182773  L 238.025831 242.77129  L 239.891661 234.282272  L 241.757492 230.76924  L 243.623323 239.199816  L 245.489154 242.918916  L 247.354984 235.829155  L 249.220815 232.444787  L 251.086646 231.959078  L 254.818307 234.507202  L 256.684138 235.479815  L 258.549969 233.219135  L 260.415799 225.03703  L 262.28163 219.047866  L 264.147461 222.599347  L 266.013292 220.815179  L 267.879122 210.551487  L 269.744953 215.492833  L 271.610784 236.12462  L 273.476614 244.74582  L 275.342445 239.717513  L 277.208276 236.606555  L 279.074107 236.30289  L 280.939937 231.468579  L 282.805768 221.846168  L 284.671599 217.913735  L 286.537429 219.235864  L 288.40326 216.338549  L 290.269091 219.678145  L 292.134922 226.499058  L 294.000752 228.394133  L 295.866583 221.68449  L 297.732414 207.847957  L 299.598245 208.313323  L 301.464075 219.415112  L 303.329906 221.225796  L 305.195737 216.544889  L 307.061567 215.738927  L 308.927398 216.417893  L 310.793229 215.875285  L 312.65906 212.07137  L 314.52489 210.320557  L 316.390721 210.968581  L 318.256552 211.358871  L 320.122382 211.126405  L 321.988213 207.860384  L 323.854044 202.473411  L 325.719875 201.524314  L 327.585705 202.379201  L 329.451536 202.604636  L 331.317367 199.451084  L 333.183197 198.933167  L 335.049028 201.465902  L 336.914859 199.116236  L 338.78069 191.799891  L 340.64652 197.130288  L 342.512351 207.025113  L 344.378182 206.728812  L 346.244013 205.524522  L 348.109843 204.789405  L 349.975674 207.766895  L 351.841505 209.579164  L 353.707335 210.976681  L 355.573166 212.076972  L 357.438997 215.904411  L 359.304828 223.402689  L 361.170658 222.390331  L 363.036489 223.676949  L 364.90232 230.610519  L 366.76815 224.576439  L 368.633981 214.146335  L 370.499812 220.787118  L 372.365643 229.555486  L 374.231473 225.42025  L 376.097304 225.28994  L 377.963135 230.336726  L 379.828966 230.142442  L 381.694796 225.22715  L 383.560627 225.747316  L 385.426458 224.868147  L 387.292288 214.608547  L 389.158119 206.882865  L 391.02395 208.834907  L 392.889781 209.597219  L 394.755611 208.613524  L 396.621442 203.070127  L 398.487273 198.756669  L 398.487273 198.756669  "
             clip-path="url(#pbbc8570bab)" />
        </g>
        <g
           id="patch_3">
          <path
             id="path18317"
             style="fill:none;stroke:#000000;stroke-linecap:square;stroke-linejoin:miter;stroke-width:0.8;"
             d="M 57.6 307.584  L 57.6 41.472  " />
        </g>
        <g
           id="patch_4">
          <path
             id="path18320"
             style="fill:none;stroke:#000000;stroke-linecap:square;stroke-linejoin:miter;stroke-width:0.8;"
             d="M 414.72 307.584  L 414.72 41.472  " />
        </g>
        <g
           id="patch_5">
          <path
             id="path18323"
             style="fill:none;stroke:#000000;stroke-linecap:square;stroke-linejoin:miter;stroke-width:0.8;"
             d="M 57.6 307.584  L 414.72 307.584  " />
        </g>
        <g
           id="patch_6">
          <path
             id="path18326"
             style="fill:none;stroke:#000000;stroke-linecap:square;stroke-linejoin:miter;stroke-width:0.8;"
             d="M 57.6 41.472  L 414.72 41.472  " />
        </g>
        <g
           id="text_16">
          <!-- 1 ecg -->
          <defs
             id="defs18332">
            <path
               id="DejaVuSans-32" />
            <path
               id="DejaVuSans-99"
               d="M 48.78125 52.59375  L 48.78125 44.1875  Q 44.96875 46.296875 41.140625 47.34375  Q 37.3125 48.390625 33.40625 48.390625  Q 24.65625 48.390625 19.8125 42.84375  Q 14.984375 37.3125 14.984375 27.296875  Q 14.984375 17.28125 19.8125 11.734375  Q 24.65625 6.203125 33.40625 6.203125  Q 37.3125 6.203125 41.140625 7.25  Q 44.96875 8.296875 48.78125 10.40625  L 48.78125 2.09375  Q 45.015625 0.34375 40.984375 -0.53125  Q 36.96875 -1.421875 32.421875 -1.421875  Q 20.0625 -1.421875 12.78125 6.34375  Q 5.515625 14.109375 5.515625 27.296875  Q 5.515625 40.671875 12.859375 48.328125  Q 20.21875 56 33.015625 56  Q 37.15625 56 41.109375 55.140625  Q 45.0625 54.296875 48.78125 52.59375  z " />
            <path
               id="DejaVuSans-103"
               d="M 45.40625 27.984375  Q 45.40625 37.75 41.375 43.109375  Q 37.359375 48.484375 30.078125 48.484375  Q 22.859375 48.484375 18.828125 43.109375  Q 14.796875 37.75 14.796875 27.984375  Q 14.796875 18.265625 18.828125 12.890625  Q 22.859375 7.515625 30.078125 7.515625  Q 37.359375 7.515625 41.375 12.890625  Q 45.40625 18.265625 45.40625 27.984375  z M 54.390625 6.78125  Q 54.390625 -7.171875 48.1875 -13.984375  Q 42 -20.796875 29.203125 -20.796875  Q 24.46875 -20.796875 20.265625 -20.09375  Q 16.0625 -19.390625 12.109375 -17.921875  L 12.109375 -9.1875  Q 16.0625 -11.328125 19.921875 -12.34375  Q 23.78125 -13.375 27.78125 -13.375  Q 36.625 -13.375 41.015625 -8.765625  Q 45.40625 -4.15625 45.40625 5.171875  L 45.40625 9.625  Q 42.625 4.78125 38.28125 2.390625  Q 33.9375 0 27.875 0  Q 17.828125 0 11.671875 7.65625  Q 5.515625 15.328125 5.515625 27.984375  Q 5.515625 40.671875 11.671875 48.328125  Q 17.828125 56 27.875 56  Q 33.9375 56 38.28125 53.609375  Q 42.625 51.21875 45.40625 46.390625  L 45.40625 54.6875  L 54.390625 54.6875  z " />
          </defs>
          <g
             id="g18344"
             transform="translate(219.635625 35.472)scale(0.12 -0.12)">
            <use
               id="use18334"
               xlink:href="#DejaVuSans-49" />
            <use
               id="use18336"
               xlink:href="#DejaVuSans-32"
               x="63.623047" />
            <use
               id="use18338"
               xlink:href="#DejaVuSans-101"
               x="95.410156" />
            <use
               id="use18340"
               xlink:href="#DejaVuSans-99"
               x="156.933594" />
            <use
               id="use18342"
               xlink:href="#DejaVuSans-103"
               x="211.914062" />
          </g>
        </g>
      </g>
    </g>
    <path
       inkscape:connector-curvature="0"
       id="path23276"
       d="m 105.55185,236.92305 1.86583,-1.29498 1.86583,-3.56742 1.86583,-0.94693 3.73166,0.57481 3.73167,-2.29173 1.86582,-0.54114 1.86584,0.53064 5.66837,-6.36265 1.79495,-2.97133 3.73166,-2.98935 3.73166,-5.95958 2.77932,-6.20085 3.49479,-3.49479 2.07098,-3.49478 0.98406,-3.00249 1.86584,-0.12715 1.86583,3.33505 3.73166,2.39247 2.68415,4.00338 2.91334,4.85985 -0.0657,5.49507 3.7974,8.97065 3.96879,5.65567 3.49453,6.3996 1.86583,-0.99835 1.86584,4.59691 1.86582,6.1886"
       style="fill:none;stroke:#00ffff;stroke-width:2.25000002;stroke-linecap:butt;stroke-linejoin:miter;stroke-opacity:1;stroke-miterlimit:4;stroke-dasharray:none" />
    <text
       id="text13313-4-9"
       y="185.80347"
       x="139.5396"
       style="font-style:normal;font-weight:normal;font-size:21.53230095px;line-height:1.25;font-family:sans-serif;letter-spacing:0px;word-spacing:0px;fill:#00ffff;fill-opacity:1;stroke:none;stroke-width:0.53830749;stroke-linecap:butt;stroke-linejoin:round"
       xml:space="preserve"><tspan
         y="185.80347"
         x="139.5396"
         style="fill:#00ffff;stroke-width:0.53830749;stroke-linecap:butt;stroke-linejoin:round"
         id="tspan13311-3-9"
         sodipodi:role="line">P</tspan></text>
    <path
       inkscape:connector-curvature="0"
       id="path23433"
       d="m 183.91674,234.25583 1.86583,6.64636 1.86584,3.17925 1.86582,-1.00794 2.04849,3.95363 1.68318,3.96352 3.89987,-6.52623 1.69762,-1.1554 3.73166,0.98702 3.73166,2.40947 1.08991,-4.43771 0.64068,-1.55593"
       style="fill:none;stroke:#800080;stroke-width:2.25000002;stroke-linecap:round;stroke-linejoin:round;stroke-opacity:1;stroke-miterlimit:4;stroke-dasharray:none" />
    <text
       id="text13313-4-9-5"
       y="231.36893"
       x="186.0257"
       style="font-style:normal;font-weight:normal;font-size:21.53230095px;line-height:1.25;font-family:sans-serif;letter-spacing:0px;word-spacing:0px;fill:#800080;fill-opacity:1;stroke:none;stroke-width:0.53830749;stroke-linecap:butt;stroke-linejoin:round"
       xml:space="preserve"><tspan
         y="231.36893"
         x="186.0257"
         style="fill:#800080;fill-opacity:1;stroke-width:0.53830749;stroke-linecap:butt;stroke-linejoin:round"
         id="tspan13311-3-9-3"
         sodipodi:role="line">Q</tspan></text>
    <path
       inkscape:connector-curvature="0"
       id="path23471"
       d="m 209.16939,235.32012 0.77661,-17.86224 6.08352,-135.390584 1.68267,-26.793354 5.79291,188.915898 0.54915,12.81356"
       style="fill:none;stroke:#00ff00;stroke-width:2.25000002;stroke-linecap:butt;stroke-linejoin:miter;stroke-opacity:1;stroke-miterlimit:4;stroke-dasharray:none" />
    <text
       id="text13313-4-3-8-2"
       y="70.22049"
       x="223.37093"
       style="font-style:normal;font-weight:normal;font-size:21.53230095px;line-height:1.25;font-family:sans-serif;letter-spacing:0px;word-spacing:0px;fill:#00ff00;fill-opacity:1;stroke:none;stroke-width:0.53830749;stroke-linecap:butt;stroke-linejoin:round"
       xml:space="preserve"><tspan
         y="70.22049"
         x="223.37093"
         style="fill:#00ff00;fill-opacity:1;stroke-width:0.53830749;stroke-linecap:butt;stroke-linejoin:round"
         id="tspan13311-3-3-1-2"
         sodipodi:role="line">R</tspan></text>
    <path
       inkscape:connector-curvature="0"
       id="path23491"
       d="m 224.31345,260.68967 0.64719,13.33195 2.20042,19.67436 3.40145,-21.22175 3.73166,-10.28554 2.70406,-12.63056 2.00627,-10.03133 1.35908,-6.27767 1.22965,-1.48852 1.87683,5.95408 2.0191,5.20422 1.86582,-7.08975 1.86584,-3.38437 2.2743,0.0277 5.18902,3.0073 1.86583,-2.26068 2.39402,-9.15999 1.33764,-5.01127 1.86583,3.55148 1.86584,-1.78417 1.92025,-9.18195 1.29437,3.1712 2.32802,16.20574 0.64068,8.51187 1.27999,5.22378 2.56407,-5.95598 1.1676,-2.18329 1.86583,-0.30366 1.86583,-4.83431 1.86583,-9.62241 1.86583,-3.93244"
       style="fill:none;stroke:#800000;stroke-width:2.25000002;stroke-linecap:round;stroke-linejoin:round;stroke-opacity:1;stroke-miterlimit:4;stroke-dasharray:none" />
    <text
       id="text13313-4-3-8-6-9"
       y="214.88631"
       x="245.43224"
       style="font-style:normal;font-weight:normal;font-size:21.53230095px;line-height:1.25;font-family:sans-serif;letter-spacing:0px;word-spacing:0px;fill:#800000;fill-opacity:1;stroke:none;stroke-width:0.53830749;stroke-linecap:butt;stroke-linejoin:round"
       xml:space="preserve"><tspan
         y="214.88631"
         x="245.43224"
         style="fill:#800000;fill-opacity:1;stroke-width:0.53830749;stroke-linecap:butt;stroke-linejoin:round"
         id="tspan13311-3-3-1-1-3"
         sodipodi:role="line">S</tspan></text>
    <path
       inkscape:connector-curvature="0"
       id="path23511"
       d="m 303.81865,220.48476 1.37709,-3.93987 1.86583,-0.80596 1.86583,0.67897 1.86583,-0.54261 1.76356,-3.43308 1.9681,-2.12165 3.73167,1.03832 1.86582,-0.23247 1.86583,-3.26602 1.53832,-4.44638 2.19334,-1.8897 3.30771,1.01601 2.65345,-3.13884 1.50217,-0.46831 1.86583,2.53273 1.86583,-2.34966 1.68346,-6.70691 2.0482,4.72096 1.86583,9.89482 1.86583,-0.2963 2.2204,-1.47032 1.51126,-0.46908 1.72322,2.79026 3.87428,3.39701 2.00623,1.33943 1.72542,3.58831 2.00424,7.28034"
       style="fill:none;stroke:#ff6600;stroke-width:2.25000002;stroke-linecap:round;stroke-linejoin:round;stroke-opacity:1;stroke-miterlimit:4;stroke-dasharray:none" />
    <text
       id="text13313-4-3-8-6-3-9"
       y="187.27327"
       x="326.37604"
       style="font-style:normal;font-weight:normal;font-size:21.53230095px;line-height:1.25;font-family:sans-serif;letter-spacing:0px;word-spacing:0px;fill:#ff6600;fill-opacity:1;stroke:none;stroke-width:0.53830749;stroke-linecap:butt;stroke-linejoin:round"
       xml:space="preserve"><tspan
         y="187.27327"
         x="326.37604"
         style="fill:#ff6600;fill-opacity:1;stroke-width:0.53830749;stroke-linecap:butt;stroke-linejoin:round"
         id="tspan13311-3-3-1-1-9-9"
         sodipodi:role="line">T</tspan></text>
  </g>
</svg>
