<?xml version="1.0" encoding="utf-8" standalone="no"?>
<!DOCTYPE svg PUBLIC "-//W3C//DTD SVG 1.1//EN"
  "http://www.w3.org/Graphics/SVG/1.1/DTD/svg11.dtd">
<!-- Created with matplotlib (https://matplotlib.org/) -->
<svg height="345.6pt" version="1.1" viewBox="0 0 460.8 345.6" width="460.8pt" xmlns="http://www.w3.org/2000/svg" xmlns:xlink="http://www.w3.org/1999/xlink">
 <defs>
  <style type="text/css">
*{stroke-linecap:butt;stroke-linejoin:round;}
  </style>
 </defs>
 <g id="figure_1">
  <g id="patch_1">
   <path d="M 0 345.6 
L 460.8 345.6 
L 460.8 0 
L 0 0 
z
" style="fill:#ffffff;"/>
  </g>
  <g id="axes_1">
   <g id="patch_2">
    <path d="M 57.6 307.584 
L 414.72 307.584 
L 414.72 41.472 
L 57.6 41.472 
z
" style="fill:#ffffff;"/>
   </g>
   <g id="matplotlib.axis_1">
    <g id="xtick_1">
     <g id="line2d_1">
      <defs>
       <path d="M 0 0 
L 0 3.5 
" id="m8e9be8e7ad" style="stroke:#000000;stroke-width:0.8;"/>
      </defs>
      <g>
       <use style="stroke:#000000;stroke-width:0.8;" x="73.832727" xlink:href="#m8e9be8e7ad" y="307.584"/>
      </g>
     </g>
     <g id="text_1">
      <!-- 0.0 -->
      <defs>
       <path d="M 31.78125 66.40625 
Q 24.171875 66.40625 20.328125 58.90625 
Q 16.5 51.421875 16.5 36.375 
Q 16.5 21.390625 20.328125 13.890625 
Q 24.171875 6.390625 31.78125 6.390625 
Q 39.453125 6.390625 43.28125 13.890625 
Q 47.125 21.390625 47.125 36.375 
Q 47.125 51.421875 43.28125 58.90625 
Q 39.453125 66.40625 31.78125 66.40625 
z
M 31.78125 74.21875 
Q 44.046875 74.21875 50.515625 64.515625 
Q 56.984375 54.828125 56.984375 36.375 
Q 56.984375 17.96875 50.515625 8.265625 
Q 44.046875 -1.421875 31.78125 -1.421875 
Q 19.53125 -1.421875 13.0625 8.265625 
Q 6.59375 17.96875 6.59375 36.375 
Q 6.59375 54.828125 13.0625 64.515625 
Q 19.53125 74.21875 31.78125 74.21875 
z
" id="DejaVuSans-48"/>
       <path d="M 10.6875 12.40625 
L 21 12.40625 
L 21 0 
L 10.6875 0 
z
" id="DejaVuSans-46"/>
      </defs>
      <g transform="translate(65.881165 322.182437)scale(0.1 -0.1)">
       <use xlink:href="#DejaVuSans-48"/>
       <use x="63.623047" xlink:href="#DejaVuSans-46"/>
       <use x="95.410156" xlink:href="#DejaVuSans-48"/>
      </g>
     </g>
    </g>
    <g id="xtick_2">
     <g id="line2d_2">
      <g>
       <use style="stroke:#000000;stroke-width:0.8;" x="114.406431" xlink:href="#m8e9be8e7ad" y="307.584"/>
      </g>
     </g>
     <g id="text_2">
      <!-- 2.5 -->
      <defs>
       <path d="M 19.1875 8.296875 
L 53.609375 8.296875 
L 53.609375 0 
L 7.328125 0 
L 7.328125 8.296875 
Q 12.9375 14.109375 22.625 23.890625 
Q 32.328125 33.6875 34.8125 36.53125 
Q 39.546875 41.84375 41.421875 45.53125 
Q 43.3125 49.21875 43.3125 52.78125 
Q 43.3125 58.59375 39.234375 62.25 
Q 35.15625 65.921875 28.609375 65.921875 
Q 23.96875 65.921875 18.8125 64.3125 
Q 13.671875 62.703125 7.8125 59.421875 
L 7.8125 69.390625 
Q 13.765625 71.78125 18.9375 73 
Q 24.125 74.21875 28.421875 74.21875 
Q 39.75 74.21875 46.484375 68.546875 
Q 53.21875 62.890625 53.21875 53.421875 
Q 53.21875 48.921875 51.53125 44.890625 
Q 49.859375 40.875 45.40625 35.40625 
Q 44.1875 33.984375 37.640625 27.21875 
Q 31.109375 20.453125 19.1875 8.296875 
z
" id="DejaVuSans-50"/>
       <path d="M 10.796875 72.90625 
L 49.515625 72.90625 
L 49.515625 64.59375 
L 19.828125 64.59375 
L 19.828125 46.734375 
Q 21.96875 47.46875 24.109375 47.828125 
Q 26.265625 48.1875 28.421875 48.1875 
Q 40.625 48.1875 47.75 41.5 
Q 54.890625 34.8125 54.890625 23.390625 
Q 54.890625 11.625 47.5625 5.09375 
Q 40.234375 -1.421875 26.90625 -1.421875 
Q 22.3125 -1.421875 17.546875 -0.640625 
Q 12.796875 0.140625 7.71875 1.703125 
L 7.71875 11.625 
Q 12.109375 9.234375 16.796875 8.0625 
Q 21.484375 6.890625 26.703125 6.890625 
Q 35.15625 6.890625 40.078125 11.328125 
Q 45.015625 15.765625 45.015625 23.390625 
Q 45.015625 31 40.078125 35.4375 
Q 35.15625 39.890625 26.703125 39.890625 
Q 22.75 39.890625 18.8125 39.015625 
Q 14.890625 38.140625 10.796875 36.28125 
z
" id="DejaVuSans-53"/>
      </defs>
      <g transform="translate(106.454868 322.182437)scale(0.1 -0.1)">
       <use xlink:href="#DejaVuSans-50"/>
       <use x="63.623047" xlink:href="#DejaVuSans-46"/>
       <use x="95.410156" xlink:href="#DejaVuSans-53"/>
      </g>
     </g>
    </g>
    <g id="xtick_3">
     <g id="line2d_3">
      <g>
       <use style="stroke:#000000;stroke-width:0.8;" x="154.980134" xlink:href="#m8e9be8e7ad" y="307.584"/>
      </g>
     </g>
     <g id="text_3">
      <!-- 5.0 -->
      <g transform="translate(147.028572 322.182437)scale(0.1 -0.1)">
       <use xlink:href="#DejaVuSans-53"/>
       <use x="63.623047" xlink:href="#DejaVuSans-46"/>
       <use x="95.410156" xlink:href="#DejaVuSans-48"/>
      </g>
     </g>
    </g>
    <g id="xtick_4">
     <g id="line2d_4">
      <g>
       <use style="stroke:#000000;stroke-width:0.8;" x="195.553838" xlink:href="#m8e9be8e7ad" y="307.584"/>
      </g>
     </g>
     <g id="text_4">
      <!-- 7.5 -->
      <defs>
       <path d="M 8.203125 72.90625 
L 55.078125 72.90625 
L 55.078125 68.703125 
L 28.609375 0 
L 18.3125 0 
L 43.21875 64.59375 
L 8.203125 64.59375 
z
" id="DejaVuSans-55"/>
      </defs>
      <g transform="translate(187.602275 322.182437)scale(0.1 -0.1)">
       <use xlink:href="#DejaVuSans-55"/>
       <use x="63.623047" xlink:href="#DejaVuSans-46"/>
       <use x="95.410156" xlink:href="#DejaVuSans-53"/>
      </g>
     </g>
    </g>
    <g id="xtick_5">
     <g id="line2d_5">
      <g>
       <use style="stroke:#000000;stroke-width:0.8;" x="236.127541" xlink:href="#m8e9be8e7ad" y="307.584"/>
      </g>
     </g>
     <g id="text_5">
      <!-- 10.0 -->
      <defs>
       <path d="M 12.40625 8.296875 
L 28.515625 8.296875 
L 28.515625 63.921875 
L 10.984375 60.40625 
L 10.984375 69.390625 
L 28.421875 72.90625 
L 38.28125 72.90625 
L 38.28125 8.296875 
L 54.390625 8.296875 
L 54.390625 0 
L 12.40625 0 
z
" id="DejaVuSans-49"/>
      </defs>
      <g transform="translate(224.994729 322.182437)scale(0.1 -0.1)">
       <use xlink:href="#DejaVuSans-49"/>
       <use x="63.623047" xlink:href="#DejaVuSans-48"/>
       <use x="127.246094" xlink:href="#DejaVuSans-46"/>
       <use x="159.033203" xlink:href="#DejaVuSans-48"/>
      </g>
     </g>
    </g>
    <g id="xtick_6">
     <g id="line2d_6">
      <g>
       <use style="stroke:#000000;stroke-width:0.8;" x="276.701244" xlink:href="#m8e9be8e7ad" y="307.584"/>
      </g>
     </g>
     <g id="text_6">
      <!-- 12.5 -->
      <g transform="translate(265.568432 322.182437)scale(0.1 -0.1)">
       <use xlink:href="#DejaVuSans-49"/>
       <use x="63.623047" xlink:href="#DejaVuSans-50"/>
       <use x="127.246094" xlink:href="#DejaVuSans-46"/>
       <use x="159.033203" xlink:href="#DejaVuSans-53"/>
      </g>
     </g>
    </g>
    <g id="xtick_7">
     <g id="line2d_7">
      <g>
       <use style="stroke:#000000;stroke-width:0.8;" x="317.274948" xlink:href="#m8e9be8e7ad" y="307.584"/>
      </g>
     </g>
     <g id="text_7">
      <!-- 15.0 -->
      <g transform="translate(306.142135 322.182437)scale(0.1 -0.1)">
       <use xlink:href="#DejaVuSans-49"/>
       <use x="63.623047" xlink:href="#DejaVuSans-53"/>
       <use x="127.246094" xlink:href="#DejaVuSans-46"/>
       <use x="159.033203" xlink:href="#DejaVuSans-48"/>
      </g>
     </g>
    </g>
    <g id="xtick_8">
     <g id="line2d_8">
      <g>
       <use style="stroke:#000000;stroke-width:0.8;" x="357.848651" xlink:href="#m8e9be8e7ad" y="307.584"/>
      </g>
     </g>
     <g id="text_8">
      <!-- 17.5 -->
      <g transform="translate(346.715839 322.182437)scale(0.1 -0.1)">
       <use xlink:href="#DejaVuSans-49"/>
       <use x="63.623047" xlink:href="#DejaVuSans-55"/>
       <use x="127.246094" xlink:href="#DejaVuSans-46"/>
       <use x="159.033203" xlink:href="#DejaVuSans-53"/>
      </g>
     </g>
    </g>
    <g id="xtick_9">
     <g id="line2d_9">
      <g>
       <use style="stroke:#000000;stroke-width:0.8;" x="398.422355" xlink:href="#m8e9be8e7ad" y="307.584"/>
      </g>
     </g>
     <g id="text_9">
      <!-- 20.0 -->
      <g transform="translate(387.289542 322.182437)scale(0.1 -0.1)">
       <use xlink:href="#DejaVuSans-50"/>
       <use x="63.623047" xlink:href="#DejaVuSans-48"/>
       <use x="127.246094" xlink:href="#DejaVuSans-46"/>
       <use x="159.033203" xlink:href="#DejaVuSans-48"/>
      </g>
     </g>
    </g>
    <g id="text_10">
     <!-- Time(s) -->
     <defs>
      <path d="M -0.296875 72.90625 
L 61.375 72.90625 
L 61.375 64.59375 
L 35.5 64.59375 
L 35.5 0 
L 25.59375 0 
L 25.59375 64.59375 
L -0.296875 64.59375 
z
" id="DejaVuSans-84"/>
      <path d="M 9.421875 54.6875 
L 18.40625 54.6875 
L 18.40625 0 
L 9.421875 0 
z
M 9.421875 75.984375 
L 18.40625 75.984375 
L 18.40625 64.59375 
L 9.421875 64.59375 
z
" id="DejaVuSans-105"/>
      <path d="M 52 44.1875 
Q 55.375 50.25 60.0625 53.125 
Q 64.75 56 71.09375 56 
Q 79.640625 56 84.28125 50.015625 
Q 88.921875 44.046875 88.921875 33.015625 
L 88.921875 0 
L 79.890625 0 
L 79.890625 32.71875 
Q 79.890625 40.578125 77.09375 44.375 
Q 74.3125 48.1875 68.609375 48.1875 
Q 61.625 48.1875 57.5625 43.546875 
Q 53.515625 38.921875 53.515625 30.90625 
L 53.515625 0 
L 44.484375 0 
L 44.484375 32.71875 
Q 44.484375 40.625 41.703125 44.40625 
Q 38.921875 48.1875 33.109375 48.1875 
Q 26.21875 48.1875 22.15625 43.53125 
Q 18.109375 38.875 18.109375 30.90625 
L 18.109375 0 
L 9.078125 0 
L 9.078125 54.6875 
L 18.109375 54.6875 
L 18.109375 46.1875 
Q 21.1875 51.21875 25.484375 53.609375 
Q 29.78125 56 35.6875 56 
Q 41.65625 56 45.828125 52.96875 
Q 50 49.953125 52 44.1875 
z
" id="DejaVuSans-109"/>
      <path d="M 56.203125 29.59375 
L 56.203125 25.203125 
L 14.890625 25.203125 
Q 15.484375 15.921875 20.484375 11.0625 
Q 25.484375 6.203125 34.421875 6.203125 
Q 39.59375 6.203125 44.453125 7.46875 
Q 49.3125 8.734375 54.109375 11.28125 
L 54.109375 2.78125 
Q 49.265625 0.734375 44.1875 -0.34375 
Q 39.109375 -1.421875 33.890625 -1.421875 
Q 20.796875 -1.421875 13.15625 6.1875 
Q 5.515625 13.8125 5.515625 26.8125 
Q 5.515625 40.234375 12.765625 48.109375 
Q 20.015625 56 32.328125 56 
Q 43.359375 56 49.78125 48.890625 
Q 56.203125 41.796875 56.203125 29.59375 
z
M 47.21875 32.234375 
Q 47.125 39.59375 43.09375 43.984375 
Q 39.0625 48.390625 32.421875 48.390625 
Q 24.90625 48.390625 20.390625 44.140625 
Q 15.875 39.890625 15.1875 32.171875 
z
" id="DejaVuSans-101"/>
      <path d="M 31 75.875 
Q 24.46875 64.65625 21.28125 53.65625 
Q 18.109375 42.671875 18.109375 31.390625 
Q 18.109375 20.125 21.3125 9.0625 
Q 24.515625 -2 31 -13.1875 
L 23.1875 -13.1875 
Q 15.875 -1.703125 12.234375 9.375 
Q 8.59375 20.453125 8.59375 31.390625 
Q 8.59375 42.28125 12.203125 53.3125 
Q 15.828125 64.359375 23.1875 75.875 
z
" id="DejaVuSans-40"/>
      <path d="M 44.28125 53.078125 
L 44.28125 44.578125 
Q 40.484375 46.53125 36.375 47.5 
Q 32.28125 48.484375 27.875 48.484375 
Q 21.1875 48.484375 17.84375 46.4375 
Q 14.5 44.390625 14.5 40.28125 
Q 14.5 37.15625 16.890625 35.375 
Q 19.28125 33.59375 26.515625 31.984375 
L 29.59375 31.296875 
Q 39.15625 29.25 43.1875 25.515625 
Q 47.21875 21.78125 47.21875 15.09375 
Q 47.21875 7.46875 41.1875 3.015625 
Q 35.15625 -1.421875 24.609375 -1.421875 
Q 20.21875 -1.421875 15.453125 -0.5625 
Q 10.6875 0.296875 5.421875 2 
L 5.421875 11.28125 
Q 10.40625 8.6875 15.234375 7.390625 
Q 20.0625 6.109375 24.8125 6.109375 
Q 31.15625 6.109375 34.5625 8.28125 
Q 37.984375 10.453125 37.984375 14.40625 
Q 37.984375 18.0625 35.515625 20.015625 
Q 33.0625 21.96875 24.703125 23.78125 
L 21.578125 24.515625 
Q 13.234375 26.265625 9.515625 29.90625 
Q 5.8125 33.546875 5.8125 39.890625 
Q 5.8125 47.609375 11.28125 51.796875 
Q 16.75 56 26.8125 56 
Q 31.78125 56 36.171875 55.265625 
Q 40.578125 54.546875 44.28125 53.078125 
z
" id="DejaVuSans-115"/>
      <path d="M 8.015625 75.875 
L 15.828125 75.875 
Q 23.140625 64.359375 26.78125 53.3125 
Q 30.421875 42.28125 30.421875 31.390625 
Q 30.421875 20.453125 26.78125 9.375 
Q 23.140625 -1.703125 15.828125 -13.1875 
L 8.015625 -13.1875 
Q 14.5 -2 17.703125 9.0625 
Q 20.90625 20.125 20.90625 31.390625 
Q 20.90625 42.671875 17.703125 53.65625 
Q 14.5 64.65625 8.015625 75.875 
z
" id="DejaVuSans-41"/>
     </defs>
     <g transform="translate(217.420156 335.860562)scale(0.1 -0.1)">
      <use xlink:href="#DejaVuSans-84"/>
      <use x="57.958984" xlink:href="#DejaVuSans-105"/>
      <use x="85.742188" xlink:href="#DejaVuSans-109"/>
      <use x="183.154297" xlink:href="#DejaVuSans-101"/>
      <use x="244.677734" xlink:href="#DejaVuSans-40"/>
      <use x="283.691406" xlink:href="#DejaVuSans-115"/>
      <use x="335.791016" xlink:href="#DejaVuSans-41"/>
     </g>
    </g>
   </g>
   <g id="matplotlib.axis_2">
    <g id="ytick_1">
     <g id="line2d_10">
      <defs>
       <path d="M 0 0 
L -3.5 0 
" id="m78b8d52cf9" style="stroke:#000000;stroke-width:0.8;"/>
      </defs>
      <g>
       <use style="stroke:#000000;stroke-width:0.8;" x="57.6" xlink:href="#m78b8d52cf9" y="295.488"/>
      </g>
     </g>
     <g id="text_11">
      <!-- 0.0 -->
      <g transform="translate(34.696875 299.287219)scale(0.1 -0.1)">
       <use xlink:href="#DejaVuSans-48"/>
       <use x="63.623047" xlink:href="#DejaVuSans-46"/>
       <use x="95.410156" xlink:href="#DejaVuSans-48"/>
      </g>
     </g>
    </g>
    <g id="ytick_2">
     <g id="line2d_11">
      <g>
       <use style="stroke:#000000;stroke-width:0.8;" x="57.6" xlink:href="#m78b8d52cf9" y="255.847562"/>
      </g>
     </g>
     <g id="text_12">
      <!-- 0.5 -->
      <g transform="translate(34.696875 259.64678)scale(0.1 -0.1)">
       <use xlink:href="#DejaVuSans-48"/>
       <use x="63.623047" xlink:href="#DejaVuSans-46"/>
       <use x="95.410156" xlink:href="#DejaVuSans-53"/>
      </g>
     </g>
    </g>
    <g id="ytick_3">
     <g id="line2d_12">
      <g>
       <use style="stroke:#000000;stroke-width:0.8;" x="57.6" xlink:href="#m78b8d52cf9" y="216.207123"/>
      </g>
     </g>
     <g id="text_13">
      <!-- 1.0 -->
      <g transform="translate(34.696875 220.006342)scale(0.1 -0.1)">
       <use xlink:href="#DejaVuSans-49"/>
       <use x="63.623047" xlink:href="#DejaVuSans-46"/>
       <use x="95.410156" xlink:href="#DejaVuSans-48"/>
      </g>
     </g>
    </g>
    <g id="ytick_4">
     <g id="line2d_13">
      <g>
       <use style="stroke:#000000;stroke-width:0.8;" x="57.6" xlink:href="#m78b8d52cf9" y="176.566685"/>
      </g>
     </g>
     <g id="text_14">
      <!-- 1.5 -->
      <g transform="translate(34.696875 180.365904)scale(0.1 -0.1)">
       <use xlink:href="#DejaVuSans-49"/>
       <use x="63.623047" xlink:href="#DejaVuSans-46"/>
       <use x="95.410156" xlink:href="#DejaVuSans-53"/>
      </g>
     </g>
    </g>
    <g id="ytick_5">
     <g id="line2d_14">
      <g>
       <use style="stroke:#000000;stroke-width:0.8;" x="57.6" xlink:href="#m78b8d52cf9" y="136.926247"/>
      </g>
     </g>
     <g id="text_15">
      <!-- 2.0 -->
      <g transform="translate(34.696875 140.725465)scale(0.1 -0.1)">
       <use xlink:href="#DejaVuSans-50"/>
       <use x="63.623047" xlink:href="#DejaVuSans-46"/>
       <use x="95.410156" xlink:href="#DejaVuSans-48"/>
      </g>
     </g>
    </g>
    <g id="ytick_6">
     <g id="line2d_15">
      <g>
       <use style="stroke:#000000;stroke-width:0.8;" x="57.6" xlink:href="#m78b8d52cf9" y="97.285808"/>
      </g>
     </g>
     <g id="text_16">
      <!-- 2.5 -->
      <g transform="translate(34.696875 101.085027)scale(0.1 -0.1)">
       <use xlink:href="#DejaVuSans-50"/>
       <use x="63.623047" xlink:href="#DejaVuSans-46"/>
       <use x="95.410156" xlink:href="#DejaVuSans-53"/>
      </g>
     </g>
    </g>
    <g id="ytick_7">
     <g id="line2d_16">
      <g>
       <use style="stroke:#000000;stroke-width:0.8;" x="57.6" xlink:href="#m78b8d52cf9" y="57.64537"/>
      </g>
     </g>
     <g id="text_17">
      <!-- 3.0 -->
      <defs>
       <path d="M 40.578125 39.3125 
Q 47.65625 37.796875 51.625 33 
Q 55.609375 28.21875 55.609375 21.1875 
Q 55.609375 10.40625 48.1875 4.484375 
Q 40.765625 -1.421875 27.09375 -1.421875 
Q 22.515625 -1.421875 17.65625 -0.515625 
Q 12.796875 0.390625 7.625 2.203125 
L 7.625 11.71875 
Q 11.71875 9.328125 16.59375 8.109375 
Q 21.484375 6.890625 26.8125 6.890625 
Q 36.078125 6.890625 40.9375 10.546875 
Q 45.796875 14.203125 45.796875 21.1875 
Q 45.796875 27.640625 41.28125 31.265625 
Q 36.765625 34.90625 28.71875 34.90625 
L 20.21875 34.90625 
L 20.21875 43.015625 
L 29.109375 43.015625 
Q 36.375 43.015625 40.234375 45.921875 
Q 44.09375 48.828125 44.09375 54.296875 
Q 44.09375 59.90625 40.109375 62.90625 
Q 36.140625 65.921875 28.71875 65.921875 
Q 24.65625 65.921875 20.015625 65.03125 
Q 15.375 64.15625 9.8125 62.3125 
L 9.8125 71.09375 
Q 15.4375 72.65625 20.34375 73.4375 
Q 25.25 74.21875 29.59375 74.21875 
Q 40.828125 74.21875 47.359375 69.109375 
Q 53.90625 64.015625 53.90625 55.328125 
Q 53.90625 49.265625 50.4375 45.09375 
Q 46.96875 40.921875 40.578125 39.3125 
z
" id="DejaVuSans-51"/>
      </defs>
      <g transform="translate(34.696875 61.444589)scale(0.1 -0.1)">
       <use xlink:href="#DejaVuSans-51"/>
       <use x="63.623047" xlink:href="#DejaVuSans-46"/>
       <use x="95.410156" xlink:href="#DejaVuSans-48"/>
      </g>
     </g>
    </g>
    <g id="text_18">
     <!-- Amplitude -->
     <defs>
      <path d="M 34.1875 63.1875 
L 20.796875 26.90625 
L 47.609375 26.90625 
z
M 28.609375 72.90625 
L 39.796875 72.90625 
L 67.578125 0 
L 57.328125 0 
L 50.6875 18.703125 
L 17.828125 18.703125 
L 11.1875 0 
L 0.78125 0 
z
" id="DejaVuSans-65"/>
      <path d="M 18.109375 8.203125 
L 18.109375 -20.796875 
L 9.078125 -20.796875 
L 9.078125 54.6875 
L 18.109375 54.6875 
L 18.109375 46.390625 
Q 20.953125 51.265625 25.265625 53.625 
Q 29.59375 56 35.59375 56 
Q 45.5625 56 51.78125 48.09375 
Q 58.015625 40.1875 58.015625 27.296875 
Q 58.015625 14.40625 51.78125 6.484375 
Q 45.5625 -1.421875 35.59375 -1.421875 
Q 29.59375 -1.421875 25.265625 0.953125 
Q 20.953125 3.328125 18.109375 8.203125 
z
M 48.6875 27.296875 
Q 48.6875 37.203125 44.609375 42.84375 
Q 40.53125 48.484375 33.40625 48.484375 
Q 26.265625 48.484375 22.1875 42.84375 
Q 18.109375 37.203125 18.109375 27.296875 
Q 18.109375 17.390625 22.1875 11.75 
Q 26.265625 6.109375 33.40625 6.109375 
Q 40.53125 6.109375 44.609375 11.75 
Q 48.6875 17.390625 48.6875 27.296875 
z
" id="DejaVuSans-112"/>
      <path d="M 9.421875 75.984375 
L 18.40625 75.984375 
L 18.40625 0 
L 9.421875 0 
z
" id="DejaVuSans-108"/>
      <path d="M 18.3125 70.21875 
L 18.3125 54.6875 
L 36.8125 54.6875 
L 36.8125 47.703125 
L 18.3125 47.703125 
L 18.3125 18.015625 
Q 18.3125 11.328125 20.140625 9.421875 
Q 21.96875 7.515625 27.59375 7.515625 
L 36.8125 7.515625 
L 36.8125 0 
L 27.59375 0 
Q 17.1875 0 13.234375 3.875 
Q 9.28125 7.765625 9.28125 18.015625 
L 9.28125 47.703125 
L 2.6875 47.703125 
L 2.6875 54.6875 
L 9.28125 54.6875 
L 9.28125 70.21875 
z
" id="DejaVuSans-116"/>
      <path d="M 8.5 21.578125 
L 8.5 54.6875 
L 17.484375 54.6875 
L 17.484375 21.921875 
Q 17.484375 14.15625 20.5 10.265625 
Q 23.53125 6.390625 29.59375 6.390625 
Q 36.859375 6.390625 41.078125 11.03125 
Q 45.3125 15.671875 45.3125 23.6875 
L 45.3125 54.6875 
L 54.296875 54.6875 
L 54.296875 0 
L 45.3125 0 
L 45.3125 8.40625 
Q 42.046875 3.421875 37.71875 1 
Q 33.40625 -1.421875 27.6875 -1.421875 
Q 18.265625 -1.421875 13.375 4.4375 
Q 8.5 10.296875 8.5 21.578125 
z
M 31.109375 56 
z
" id="DejaVuSans-117"/>
      <path d="M 45.40625 46.390625 
L 45.40625 75.984375 
L 54.390625 75.984375 
L 54.390625 0 
L 45.40625 0 
L 45.40625 8.203125 
Q 42.578125 3.328125 38.25 0.953125 
Q 33.9375 -1.421875 27.875 -1.421875 
Q 17.96875 -1.421875 11.734375 6.484375 
Q 5.515625 14.40625 5.515625 27.296875 
Q 5.515625 40.1875 11.734375 48.09375 
Q 17.96875 56 27.875 56 
Q 33.9375 56 38.25 53.625 
Q 42.578125 51.265625 45.40625 46.390625 
z
M 14.796875 27.296875 
Q 14.796875 17.390625 18.875 11.75 
Q 22.953125 6.109375 30.078125 6.109375 
Q 37.203125 6.109375 41.296875 11.75 
Q 45.40625 17.390625 45.40625 27.296875 
Q 45.40625 37.203125 41.296875 42.84375 
Q 37.203125 48.484375 30.078125 48.484375 
Q 22.953125 48.484375 18.875 42.84375 
Q 14.796875 37.203125 14.796875 27.296875 
z
" id="DejaVuSans-100"/>
     </defs>
     <g transform="translate(28.617187 200.150656)rotate(-90)scale(0.1 -0.1)">
      <use xlink:href="#DejaVuSans-65"/>
      <use x="68.408203" xlink:href="#DejaVuSans-109"/>
      <use x="165.820312" xlink:href="#DejaVuSans-112"/>
      <use x="229.296875" xlink:href="#DejaVuSans-108"/>
      <use x="257.080078" xlink:href="#DejaVuSans-105"/>
      <use x="284.863281" xlink:href="#DejaVuSans-116"/>
      <use x="324.072266" xlink:href="#DejaVuSans-117"/>
      <use x="387.451172" xlink:href="#DejaVuSans-100"/>
      <use x="450.927734" xlink:href="#DejaVuSans-101"/>
     </g>
    </g>
    <g id="text_19">
     <!-- 1e−11 -->
     <defs>
      <path d="M 10.59375 35.5 
L 73.1875 35.5 
L 73.1875 27.203125 
L 10.59375 27.203125 
z
" id="DejaVuSans-8722"/>
     </defs>
     <g transform="translate(57.6 38.472)scale(0.1 -0.1)">
      <use xlink:href="#DejaVuSans-49"/>
      <use x="63.623047" xlink:href="#DejaVuSans-101"/>
      <use x="125.146484" xlink:href="#DejaVuSans-8722"/>
      <use x="208.935547" xlink:href="#DejaVuSans-49"/>
      <use x="272.558594" xlink:href="#DejaVuSans-49"/>
     </g>
    </g>
   </g>
   <g id="line2d_17">
    <path clip-path="url(#pbd4e46bfe2)" d="M 73.832727 295.488 
L 104.869702 295.383032 
L 106.298182 295.161922 
L 106.687767 294.348158 
L 107.272145 292.638025 
L 107.726662 290.748752 
L 108.181178 287.978075 
L 109.220073 280.95045 
L 109.349935 281.42097 
L 109.544727 283.416256 
L 110.258967 293.195022 
L 110.583622 294.646906 
L 110.908276 295.314033 
L 111.168 295.485077 
L 111.427724 295.418093 
L 112.077033 295.127116 
L 112.531549 295.398814 
L 112.856204 295.466514 
L 113.115927 295.186523 
L 113.505513 294.721562 
L 113.570444 294.743344 
L 113.700305 295.47948 
L 113.765236 294.639128 
L 113.895098 281.378308 
L 114.154822 249.412431 
L 114.349615 263.663758 
L 114.609338 278.750618 
L 114.804131 282.34522 
L 114.869062 282.523669 
L 114.998924 281.399187 
L 115.713164 269.302907 
L 115.843025 269.333024 
L 115.972887 269.584891 
L 116.037818 269.535138 
L 116.16768 268.617828 
L 116.427404 265.584115 
L 116.492335 265.857935 
L 116.752058 271.214262 
L 117.401367 284.955437 
L 117.855884 289.224147 
L 119.154502 295.426237 
L 119.219433 295.482772 
L 119.349295 294.989711 
L 119.609018 292.058291 
L 119.868742 289.711266 
L 119.933673 289.647628 
L 119.998604 289.739394 
L 120.193396 290.702752 
L 120.582982 292.659461 
L 120.907636 293.225811 
L 121.037498 293.270116 
L 121.232291 292.777852 
L 121.362153 292.476055 
L 121.427084 292.554406 
L 121.621876 293.638235 
L 121.946531 295.269175 
L 122.141324 295.485892 
L 122.530909 295.408936 
L 123.180218 295.452697 
L 123.245149 295.413149 
L 123.31008 295.174224 
L 123.375011 294.019936 
L 123.439942 289.642224 
L 123.569804 249.68898 
L 123.829527 79.855072 
L 123.959389 152.160484 
L 124.219113 292.263626 
L 124.348975 295.478156 
L 124.543767 295.37016 
L 124.673629 295.353724 
L 124.933353 294.918263 
L 125.322938 294.173192 
L 125.4528 294.319413 
L 125.907316 295.486154 
L 126.102109 295.386492 
L 126.426764 295.092821 
L 126.751418 295.209471 
L 127.011142 294.957118 
L 127.270865 294.131833 
L 127.660451 292.767291 
L 127.725382 292.811922 
L 127.855244 293.310075 
L 128.179898 295.461823 
L 128.244829 295.448716 
L 128.374691 294.706606 
L 128.894138 290.762385 
L 128.959069 290.792965 
L 129.088931 291.439422 
L 129.413585 293.826648 
L 129.543447 293.643165 
L 129.73824 293.329617 
L 129.933033 293.659512 
L 130.387549 294.481711 
L 130.582342 294.400163 
L 130.906996 294.251657 
L 131.101789 294.055353 
L 131.491375 293.132447 
L 131.88096 292.289612 
L 132.010822 292.305565 
L 132.140684 292.554607 
L 132.335476 293.600849 
L 132.660131 295.486163 
L 132.725062 295.408047 
L 132.919855 294.169226 
L 133.179578 292.832663 
L 133.244509 292.848481 
L 133.439302 293.507382 
L 133.893818 295.091184 
L 134.153542 295.286457 
L 134.413265 295.200943 
L 134.608058 295.154202 
L 134.997644 295.465539 
L 135.127505 295.24404 
L 135.322298 294.294263 
L 135.582022 293.214473 
L 135.711884 293.257143 
L 136.036538 293.881118 
L 136.296262 294.418382 
L 136.426124 294.387434 
L 136.491055 294.560408 
L 136.620916 295.483519 
L 136.685847 293.522618 
L 136.815709 258.19796 
L 137.075433 85.939807 
L 137.140364 106.470671 
L 137.465018 293.569776 
L 137.529949 295.485734 
L 137.59488 295.031427 
L 137.789673 294.328632 
L 137.919535 294.284818 
L 138.568844 292.929314 
L 138.698705 293.242443 
L 139.218153 295.462415 
L 139.412945 295.434256 
L 139.672669 295.345999 
L 140.062255 295.416739 
L 140.321978 295.246123 
L 140.516771 294.832914 
L 140.971287 293.60014 
L 141.101149 293.924304 
L 141.425804 295.48383 
L 141.490735 295.422903 
L 141.685527 294.187669 
L 142.075113 291.38461 
L 142.204975 291.195317 
L 142.334836 291.739468 
L 142.724422 294.759726 
L 143.049076 295.120098 
L 143.3088 295.208081 
L 143.828247 295.128118 
L 144.477556 294.589291 
L 144.607418 294.029579 
L 144.997004 291.858084 
L 145.126865 292.024037 
L 146.100829 294.043983 
L 146.425484 294.271155 
L 146.88 294.314431 
L 147.139724 294.331763 
L 147.334516 294.662814 
L 147.659171 295.485944 
L 147.789033 295.036461 
L 147.983825 292.733407 
L 148.30848 289.145558 
L 148.373411 289.164447 
L 148.503273 289.803713 
L 149.152582 294.306841 
L 149.412305 294.707508 
L 149.607098 294.593515 
L 149.73696 294.584803 
L 149.931753 295.09093 
L 150.126545 295.480068 
L 150.256407 295.40497 
L 150.386269 294.9493 
L 150.840785 292.647373 
L 151.100509 292.808806 
L 151.295302 293.387641 
L 151.555025 294.091203 
L 151.619956 294.19055 
L 151.814749 295.404205 
L 151.87968 292.150753 
L 152.009542 246.168327 
L 152.269265 58.3105 
L 152.399127 149.610774 
L 152.59392 285.116722 
L 152.723782 295.466981 
L 152.983505 293.882631 
L 153.113367 293.58002 
L 153.632815 291.632024 
L 153.762676 291.350918 
L 153.827607 291.422714 
L 153.957469 292.226375 
L 154.347055 294.980874 
L 154.606778 295.480571 
L 155.45088 295.475867 
L 155.645673 295.30373 
L 156.16512 294.269333 
L 156.230051 294.316367 
L 156.424844 294.936179 
L 156.619636 295.48501 
L 156.749498 294.995383 
L 157.398807 290.282266 
L 157.528669 291.095506 
L 157.918255 294.710907 
L 158.242909 295.15049 
L 158.697425 295.418496 
L 159.216873 295.438174 
L 160.775215 295.217635 
L 161.489455 295.461798 
L 162.333556 295.455358 
L 162.463418 295.2859 
L 162.788073 294.651123 
L 163.177658 295.088325 
L 163.567244 295.357542 
L 164.086691 295.322426 
L 164.541207 294.967683 
L 164.995724 294.561956 
L 165.125585 294.678744 
L 165.515171 295.4839 
L 165.580102 295.372492 
L 165.709964 294.593596 
L 166.099549 291.27767 
L 166.229411 291.620908 
L 166.943651 295.125703 
L 167.268305 295.423375 
L 167.982545 295.320833 
L 168.177338 294.459206 
L 168.501993 292.612845 
L 168.696785 292.526405 
L 168.956509 292.876829 
L 169.540887 294.479382 
L 169.605818 295.347044 
L 169.670749 294.74406 
L 169.73568 287.275283 
L 169.865542 218.32816 
L 170.060335 56.10695 
L 170.125265 69.070545 
L 170.44992 292.680827 
L 170.514851 295.483592 
L 170.579782 294.809855 
L 170.709644 293.797654 
L 170.904436 293.880168 
L 171.16416 292.903636 
L 171.553745 291.739872 
L 171.683607 292.143467 
L 172.203055 295.274693 
L 172.397847 295.486334 
L 173.371811 295.3527 
L 173.566604 294.911599 
L 173.956189 293.831713 
L 174.086051 293.781086 
L 174.215913 294.071475 
L 174.540567 295.482202 
L 174.670429 294.905515 
L 175.254807 290.494451 
L 175.384669 291.304256 
L 175.709324 294.247882 
L 175.969047 294.593179 
L 176.423564 294.888489 
L 176.813149 294.806774 
L 177.202735 294.488893 
L 177.527389 294.318935 
L 177.852044 294.277848 
L 177.981905 293.878281 
L 178.30656 292.181743 
L 178.371491 292.212718 
L 178.631215 292.904636 
L 179.150662 294.498582 
L 179.670109 294.906163 
L 180.059695 294.888551 
L 180.709004 294.626929 
L 180.903796 295.088986 
L 181.098589 295.487428 
L 181.228451 295.138162 
L 181.682967 291.683147 
L 181.747898 291.721461 
L 181.942691 292.69025 
L 182.332276 294.820978 
L 182.592 295.220614 
L 182.851724 295.298311 
L 183.241309 295.123749 
L 183.501033 295.487352 
L 183.630895 295.358565 
L 183.825687 294.568817 
L 184.085411 293.741643 
L 184.280204 293.834252 
L 184.539927 294.167716 
L 185.124305 295.412895 
L 185.189236 295.354511 
L 185.254167 293.005529 
L 185.384029 258.272112 
L 185.643753 71.197858 
L 185.708684 89.240612 
L 186.033338 293.236398 
L 186.098269 295.47969 
L 186.1632 295.06064 
L 186.293062 294.494067 
L 186.487855 294.592302 
L 186.747578 293.885764 
L 187.202095 292.639521 
L 187.331956 293.210191 
L 187.656611 295.143817 
L 187.916335 295.486407 
L 188.890298 295.280609 
L 189.085091 294.727189 
L 189.539607 292.901017 
L 189.604538 292.890898 
L 189.7344 293.317563 
L 190.059055 295.481054 
L 190.123985 295.399328 
L 190.253847 294.421188 
L 190.773295 289.545626 
L 190.838225 289.577841 
L 190.968087 290.553998 
L 191.292742 293.828554 
L 191.552465 294.409586 
L 192.071913 294.987934 
L 192.201775 294.772956 
L 192.721222 292.975472 
L 193.045876 293.246481 
L 193.435462 293.560934 
L 193.695185 293.581924 
L 193.954909 293.701773 
L 194.73408 293.608683 
L 194.863942 293.775074 
L 195.058735 294.495445 
L 195.318458 295.47907 
L 195.383389 295.449242 
L 195.513251 294.830126 
L 195.967767 291.693485 
L 196.097629 292.08512 
L 196.746938 295.039102 
L 197.071593 295.222808 
L 197.266385 295.146477 
L 197.461178 295.06527 
L 197.850764 295.468347 
L 197.980625 295.1986 
L 198.370211 293.990835 
L 198.565004 294.076232 
L 198.889658 294.572721 
L 199.149382 295.089012 
L 199.279244 295.188773 
L 199.409105 295.473936 
L 199.474036 294.346807 
L 199.538967 288.362632 
L 199.668829 236.113916 
L 199.863622 94.145528 
L 199.928553 96.525268 
L 200.318138 295.279197 
L 200.383069 295.281884 
L 200.512931 294.561749 
L 200.577862 294.58538 
L 200.707724 294.613418 
L 200.902516 294.008411 
L 201.357033 292.619743 
L 201.421964 292.600575 
L 201.551825 292.941846 
L 202.071273 295.360756 
L 202.266065 295.487271 
L 202.785513 295.482351 
L 203.110167 295.369757 
L 203.30496 294.935831 
L 203.824407 293.413621 
L 203.954269 293.789467 
L 204.278924 295.487546 
L 204.408785 294.927273 
L 204.993164 289.480495 
L 205.058095 289.505596 
L 205.187956 290.454711 
L 205.512611 294.020282 
L 205.642473 294.148963 
L 206.032058 293.153619 
L 206.096989 293.229232 
L 206.616436 294.056206 
L 206.811229 294.038741 
L 207.330676 293.621609 
L 207.785193 292.857468 
L 208.239709 292.150057 
L 208.30464 292.202732 
L 208.434502 292.552238 
L 208.694225 294.254334 
L 208.953949 295.486277 
L 209.083811 295.032519 
L 209.473396 292.720673 
L 209.603258 292.916933 
L 210.252567 295.062581 
L 210.642153 295.21236 
L 210.901876 295.118965 
L 211.291462 295.459383 
L 211.421324 295.213582 
L 211.87584 293.723621 
L 211.940771 293.760288 
L 212.265425 294.187849 
L 212.655011 294.827355 
L 212.719942 294.837403 
L 212.914735 295.354535 
L 212.979665 292.529297 
L 213.109527 254.344561 
L 213.369251 87.586277 
L 213.499113 162.637791 
L 213.758836 293.851593 
L 213.823767 295.487726 
L 213.888698 295.061696 
L 214.083491 294.447721 
L 214.213353 294.34344 
L 214.862662 292.465739 
L 214.927593 292.529713 
L 215.057455 293.154215 
L 215.44704 295.249087 
L 215.706764 295.485744 
L 216.031418 295.446155 
L 216.356073 295.449406 
L 216.550865 295.328946 
L 216.745658 294.938994 
L 217.265105 293.328239 
L 217.394967 293.67182 
L 217.719622 295.471264 
L 217.784553 295.442737 
L 217.914415 294.707814 
L 218.498793 289.83074 
L 218.563724 289.916936 
L 218.693585 291.037353 
L 219.01824 294.093897 
L 219.342895 294.615342 
L 219.667549 294.821592 
L 220.251927 294.839746 
L 220.381789 294.492263 
L 220.836305 292.498433 
L 221.031098 292.725978 
L 221.550545 293.622859 
L 221.8752 293.859031 
L 222.134924 293.999918 
L 222.914095 294.240865 
L 223.108887 294.529421 
L 223.498473 295.477557 
L 223.628335 294.978655 
L 224.147782 290.319573 
L 224.212713 290.489245 
L 224.472436 292.508815 
L 224.797091 294.512315 
L 225.056815 295.079834 
L 225.316538 295.188992 
L 225.576262 295.047879 
L 225.771055 295.328239 
L 225.965847 295.486851 
L 226.095709 295.358149 
L 226.290502 294.556231 
L 226.550225 293.506863 
L 226.680087 293.552428 
L 227.004742 294.050555 
L 227.329396 294.541493 
L 227.459258 294.568691 
L 227.58912 295.432019 
L 227.654051 294.782849 
L 227.718982 288.50045 
L 227.848844 227.801337 
L 228.043636 60.415619 
L 228.108567 62.254612 
L 228.498153 295.178892 
L 228.563084 295.236115 
L 228.757876 294.006853 
L 228.887738 294.035666 
L 229.082531 293.476854 
L 229.537047 291.810002 
L 229.601978 291.834662 
L 229.73184 292.470885 
L 230.121425 295.109374 
L 230.381149 295.486925 
L 230.705804 295.40352 
L 231.095389 295.46285 
L 231.355113 295.334454 
L 231.549905 294.94394 
L 232.004422 293.775667 
L 232.134284 294.076198 
L 232.458938 295.487247 
L 232.523869 295.395317 
L 232.718662 293.910328 
L 233.108247 290.4106 
L 233.238109 290.07401 
L 233.367971 290.803017 
L 233.757556 294.279629 
L 234.212073 294.780018 
L 234.601658 294.939016 
L 234.861382 294.814941 
L 235.315898 294.535969 
L 235.510691 294.414688 
L 235.640553 294.099768 
L 236.030138 292.167822 
L 236.095069 292.195248 
L 236.354793 292.753486 
L 237.069033 294.504936 
L 237.328756 294.696523 
L 238.432582 294.827415 
L 238.757236 295.487818 
L 238.822167 295.40215 
L 238.952029 294.660868 
L 239.406545 290.558973 
L 239.536407 290.979358 
L 240.250647 295.019164 
L 240.510371 295.167929 
L 240.899956 294.942939 
L 241.289542 295.482569 
L 241.419404 295.308305 
L 241.614196 294.445398 
L 241.87392 293.532189 
L 242.003782 293.614677 
L 242.782953 294.787992 
L 242.912815 295.328181 
L 242.977745 291.832033 
L 243.107607 245.533194 
L 243.367331 57.416256 
L 243.497193 150.202582 
L 243.691985 285.589043 
L 243.821847 295.453074 
L 244.01664 294.053634 
L 244.146502 294.008072 
L 244.341295 293.400921 
L 244.860742 291.843398 
L 244.990604 292.264012 
L 245.510051 295.321081 
L 245.704844 295.487336 
L 246.15936 295.48732 
L 246.613876 295.420294 
L 246.808669 295.172645 
L 247.328116 293.903229 
L 247.393047 294.019193 
L 247.782633 295.453703 
L 247.912495 294.72119 
L 248.496873 289.829705 
L 248.561804 289.918904 
L 248.756596 291.943496 
L 249.01632 294.051647 
L 249.340975 294.600034 
L 249.665629 294.809203 
L 250.120145 294.824754 
L 250.769455 294.385624 
L 250.899316 293.95484 
L 251.288902 292.001811 
L 251.483695 292.381859 
L 252.197935 294.206357 
L 252.58752 294.69844 
L 253.236829 294.769436 
L 253.561484 294.720283 
L 253.821207 295.214848 
L 254.016 295.476507 
L 254.145862 294.996893 
L 254.405585 292.029452 
L 254.600378 290.496925 
L 254.665309 290.505353 
L 254.860102 291.591569 
L 255.314618 294.646001 
L 255.574342 295.171488 
L 255.769135 295.25708 
L 256.15872 295.047102 
L 256.483375 295.487995 
L 256.613236 295.374878 
L 256.808029 294.593323 
L 257.067753 293.399197 
L 257.197615 293.436726 
L 257.976785 294.674318 
L 258.106647 295.475064 
L 258.171578 294.461541 
L 258.236509 287.203433 
L 258.366371 221.950118 
L 258.561164 54.858001 
L 258.626095 61.726483 
L 259.01568 295.317822 
L 259.080611 295.187495 
L 259.275404 294.250982 
L 259.405265 294.204822 
L 259.664989 293.177925 
L 260.054575 292.005406 
L 260.119505 292.045862 
L 260.249367 292.618009 
L 260.638953 295.115843 
L 260.898676 295.487702 
L 261.483055 295.482015 
L 261.807709 295.421219 
L 262.002502 295.101507 
L 262.521949 293.426685 
L 262.58688 293.509828 
L 262.781673 294.502182 
L 262.976465 295.481144 
L 263.041396 295.411716 
L 263.171258 294.533384 
L 263.690705 289.44096 
L 263.755636 289.429537 
L 263.885498 290.386701 
L 264.210153 293.951449 
L 264.469876 294.509633 
L 264.859462 294.987601 
L 265.119185 295.025168 
L 265.249047 294.867306 
L 265.44384 293.996556 
L 265.703564 292.98314 
L 265.963287 293.014496 
L 266.223011 293.245951 
L 266.612596 293.617878 
L 266.937251 293.865532 
L 267.716422 293.679681 
L 267.976145 294.047616 
L 268.430662 295.487451 
L 268.495593 295.413009 
L 268.625455 294.665576 
L 269.01504 291.725926 
L 269.144902 292.079357 
L 269.859142 295.212825 
L 270.118865 295.338812 
L 270.378589 295.253403 
L 270.573382 295.211642 
L 270.962967 295.446683 
L 271.092829 295.158866 
L 271.547345 293.539135 
L 271.742138 293.751793 
L 272.066793 294.536426 
L 272.326516 294.946321 
L 272.521309 295.432651 
L 272.58624 293.614763 
L 272.716102 263.205036 
L 272.975825 78.345233 
L 273.040756 90.787084 
L 273.365411 292.829248 
L 273.430342 295.466486 
L 273.495273 295.058364 
L 273.625135 294.404116 
L 273.819927 294.544521 
L 274.01472 293.845428 
L 274.404305 292.402394 
L 274.534167 292.360805 
L 274.664029 292.890974 
L 275.053615 295.162962 
L 275.313338 295.487598 
L 276.222371 295.297726 
L 276.417164 294.856399 
L 276.936611 293.276699 
L 277.066473 293.630975 
L 277.391127 295.487956 
L 277.456058 295.359376 
L 277.650851 293.612656 
L 278.040436 289.783912 
L 278.105367 289.595541 
L 278.170298 289.622588 
L 278.30016 290.704871 
L 278.624815 294.092339 
L 278.689745 294.149668 
L 278.819607 293.870103 
L 279.079331 293.245627 
L 279.274124 293.549118 
L 279.793571 294.411603 
L 279.988364 294.295984 
L 280.507811 293.667403 
L 281.15712 292.434966 
L 281.351913 292.388368 
L 281.481775 292.654946 
L 281.741498 294.209948 
L 282.001222 295.485571 
L 282.066153 295.414951 
L 282.260945 294.246029 
L 282.520669 292.925257 
L 282.650531 292.962062 
L 282.910255 293.983171 
L 283.234909 295.037064 
L 283.494633 295.277534 
L 283.689425 295.211994 
L 283.949149 294.953364 
L 284.143942 295.226975 
L 284.403665 295.483079 
L 284.533527 295.284979 
L 284.988044 293.710039 
L 285.052975 293.736265 
L 285.312698 294.134445 
L 285.962007 295.458396 
L 286.026938 293.822675 
L 286.1568 264.696425 
L 286.416524 89.394052 
L 286.481455 101.672937 
L 286.806109 292.816333 
L 286.87104 295.446653 
L 286.935971 295.156185 
L 287.065833 294.529444 
L 287.260625 294.540883 
L 287.520349 293.608467 
L 287.909935 292.455512 
L 287.974865 292.466323 
L 288.104727 293.003735 
L 288.494313 295.22744 
L 288.754036 295.487754 
L 289.208553 295.477364 
L 289.533207 295.41479 
L 289.728 295.173698 
L 289.987724 294.331782 
L 290.312378 293.455983 
L 290.44224 293.750115 
L 290.766895 295.471949 
L 290.831825 295.440146 
L 290.961687 294.671815 
L 291.546065 289.638516 
L 291.610996 289.727148 
L 291.740858 290.720487 
L 292.065513 293.876616 
L 292.390167 294.682593 
L 292.520029 294.683882 
L 292.714822 294.023308 
L 292.974545 293.287738 
L 293.364131 293.4688 
L 293.753716 293.692623 
L 294.273164 293.291956 
L 294.987404 292.538166 
L 295.117265 292.54046 
L 295.247127 292.75996 
L 295.44192 293.713979 
L 295.766575 295.484314 
L 295.831505 295.406675 
L 295.961367 294.554382 
L 296.286022 291.718771 
L 296.350953 291.660214 
L 296.480815 292.079044 
L 297.065193 294.865075 
L 297.389847 295.224638 
L 297.58464 295.139476 
L 297.779433 295.023121 
L 298.233949 295.460429 
L 298.29888 295.3755 
L 298.493673 294.666433 
L 298.753396 293.568226 
L 298.883258 293.541002 
L 299.142982 293.992646 
L 299.532567 294.728858 
L 299.597498 294.722675 
L 299.662429 294.838186 
L 299.792291 295.482458 
L 299.857222 293.863694 
L 299.922153 285.285835 
L 300.052015 217.836309 
L 300.246807 65.632369 
L 300.311738 77.526118 
L 300.701324 295.311621 
L 300.766255 295.274313 
L 300.961047 294.455886 
L 301.090909 294.382581 
L 301.350633 293.354711 
L 301.740218 292.192273 
L 301.805149 292.231137 
L 301.935011 292.82399 
L 302.324596 295.153718 
L 302.58432 295.487802 
L 303.168698 295.475261 
L 303.493353 295.368699 
L 303.688145 295.047923 
L 304.207593 293.920189 
L 304.337455 294.288175 
L 304.662109 295.457745 
L 304.791971 294.765477 
L 305.376349 289.694978 
L 305.44128 289.760709 
L 305.571142 290.742636 
L 305.895796 293.98488 
L 306.15552 294.476837 
L 306.545105 294.822086 
L 306.999622 294.911127 
L 307.129484 294.794109 
L 307.259345 294.353026 
L 307.648931 292.326166 
L 307.778793 292.370685 
L 307.973585 292.743519 
L 308.363171 293.575437 
L 308.622895 293.737826 
L 308.947549 293.951237 
L 309.207273 294.03271 
L 309.466996 294.108737 
L 309.72672 294.200453 
L 309.986444 294.674198 
L 310.311098 295.487702 
L 310.376029 295.42007 
L 310.505891 294.710937 
L 310.960407 290.095559 
L 311.025338 290.182627 
L 311.220131 291.547692 
L 311.609716 294.383818 
L 311.86944 295.009088 
L 312.129164 295.175215 
L 312.453818 295.037176 
L 312.843404 295.474538 
L 312.973265 295.264917 
L 313.232989 293.957839 
L 313.427782 293.480183 
L 313.687505 293.762368 
L 313.947229 294.224246 
L 314.142022 294.535042 
L 314.271884 294.523413 
L 314.466676 295.391562 
L 314.531607 292.307103 
L 314.661469 247.964213 
L 314.921193 53.568 
L 315.051055 142.747527 
L 315.310778 293.894689 
L 315.375709 295.480495 
L 315.44064 294.863161 
L 315.570502 294.181076 
L 315.635433 294.189567 
L 315.765295 294.091416 
L 316.15488 292.485469 
L 316.414604 291.75281 
L 316.544465 292.232839 
L 316.998982 295.242828 
L 317.193775 295.484292 
L 318.167738 295.363759 
L 318.362531 295.032131 
L 318.881978 293.897489 
L 319.01184 294.202529 
L 319.336495 295.459549 
L 319.466356 294.762343 
L 320.050735 289.745514 
L 320.115665 289.812227 
L 320.245527 290.978647 
L 320.570182 294.11695 
L 320.894836 294.695135 
L 321.284422 294.974632 
L 321.479215 294.963894 
L 322.193455 294.404129 
L 322.388247 293.244513 
L 322.647971 291.878236 
L 322.842764 292.143837 
L 323.167418 293.057344 
L 323.492073 293.752818 
L 324.336175 294.440027 
L 324.855622 294.461758 
L 325.050415 294.758649 
L 325.375069 295.48543 
L 325.504931 295.091405 
L 325.764655 292.430279 
L 325.959447 291.002049 
L 326.024378 291.00124 
L 326.15424 291.570722 
L 326.738618 294.982954 
L 326.998342 295.289486 
L 327.193135 295.254234 
L 327.452858 295.085617 
L 327.907375 295.42573 
L 328.037236 295.148266 
L 328.556684 293.380662 
L 328.816407 293.691915 
L 329.400785 295.022114 
L 329.465716 295.468377 
L 329.530647 294.597837 
L 329.595578 287.938157 
L 329.72544 225.865988 
L 329.920233 57.402763 
L 329.985164 60.233172 
L 330.374749 295.094686 
L 330.43968 295.339522 
L 330.634473 294.464238 
L 330.764335 294.444047 
L 331.024058 293.523759 
L 331.413644 292.392502 
L 331.478575 292.406167 
L 331.608436 292.919804 
L 331.998022 295.202129 
L 332.257745 295.487884 
L 332.712262 295.463485 
L 333.036916 295.42759 
L 333.231709 295.211918 
L 333.491433 294.373976 
L 333.816087 293.346784 
L 333.945949 293.446914 
L 334.140742 294.4445 
L 334.335535 295.463344 
L 334.400465 295.45072 
L 334.530327 294.700317 
L 335.049775 290.089463 
L 335.114705 290.013554 
L 335.244567 290.766904 
L 335.634153 294.33661 
L 335.958807 294.801705 
L 336.413324 295.083152 
L 336.543185 294.93867 
L 336.737978 294.083251 
L 336.997702 292.964218 
L 337.257425 292.957195 
L 337.452218 293.135358 
L 337.776873 293.520398 
L 338.101527 293.569233 
L 338.361251 293.597207 
L 339.01056 293.474422 
L 339.205353 293.698867 
L 339.400145 294.290126 
L 339.7248 295.485619 
L 339.789731 295.427503 
L 339.919593 294.732452 
L 340.309178 291.54156 
L 340.374109 291.558181 
L 340.503971 292.025993 
L 341.088349 295.0417 
L 341.348073 295.302484 
L 341.542865 295.280643 
L 341.86752 295.166517 
L 342.192175 295.48292 
L 342.322036 295.33044 
L 342.516829 294.55083 
L 342.776553 293.614173 
L 342.906415 293.618414 
L 343.101207 293.869749 
L 343.815447 295.474389 
L 343.880378 293.952852 
L 343.945309 286.140208 
L 344.075171 223.644689 
L 344.269964 79.52277 
L 344.334895 90.969564 
L 344.659549 292.692516 
L 344.72448 295.453034 
L 344.789411 295.108763 
L 344.919273 294.460061 
L 345.114065 294.468301 
L 345.828305 292.369131 
L 345.893236 292.547111 
L 346.542545 295.480586 
L 346.737338 295.394347 
L 346.932131 295.410053 
L 347.256785 295.452621 
L 347.516509 295.294648 
L 347.711302 294.856033 
L 348.230749 293.348646 
L 348.360611 293.739192 
L 348.685265 295.484817 
L 348.815127 294.825589 
L 349.399505 289.190368 
L 349.464436 289.247493 
L 349.594298 290.29071 
L 349.918953 293.789634 
L 350.243607 294.564123 
L 350.633193 294.974744 
L 350.827985 294.994155 
L 350.957847 294.852313 
L 351.15264 294.050863 
L 351.477295 292.569314 
L 351.672087 292.543684 
L 351.86688 292.722188 
L 352.321396 293.353941 
L 352.840844 293.568265 
L 353.490153 293.543688 
L 353.684945 293.857318 
L 354.204393 295.465151 
L 354.269324 295.284301 
L 354.464116 293.569162 
L 354.788771 290.795908 
L 354.853702 290.866187 
L 355.048495 291.926492 
L 355.503011 294.780352 
L 355.762735 295.142706 
L 355.957527 295.16326 
L 356.282182 294.935739 
L 356.671767 295.483421 
L 356.736698 295.428085 
L 356.86656 295.067719 
L 357.256145 293.562075 
L 357.450938 293.736522 
L 357.775593 294.363313 
L 357.970385 294.724287 
L 358.100247 294.744074 
L 358.29504 295.354519 
L 358.359971 292.357653 
L 358.489833 250.751674 
L 358.749556 66.125521 
L 358.879418 149.437465 
L 359.139142 293.688943 
L 359.204073 295.487203 
L 359.269004 295.053392 
L 359.463796 294.473418 
L 359.593658 294.366038 
L 359.918313 293.036668 
L 360.242967 292.066303 
L 360.307898 292.145077 
L 360.502691 293.405094 
L 360.827345 295.217258 
L 361.022138 295.482034 
L 361.931171 295.410651 
L 362.125964 295.121535 
L 362.645411 293.810402 
L 362.710342 293.853957 
L 362.840204 294.234061 
L 363.099927 295.468994 
L 363.164858 295.44449 
L 363.29472 294.642756 
L 363.814167 289.492844 
L 363.879098 289.411246 
L 363.944029 289.578862 
L 364.138822 291.763029 
L 364.398545 294.026378 
L 364.788131 294.675699 
L 365.112785 294.986217 
L 365.242647 294.912447 
L 365.372509 294.50134 
L 365.762095 292.74198 
L 365.956887 292.73589 
L 366.86592 293.257302 
L 367.125644 293.250619 
L 367.515229 293.019156 
L 367.710022 292.984246 
L 367.904815 293.163607 
L 368.099607 293.757419 
L 368.489193 295.486674 
L 368.554124 295.415642 
L 368.683985 294.665827 
L 369.073571 291.769863 
L 369.203433 292.214028 
L 369.787811 295.170633 
L 370.047535 295.405864 
L 370.307258 295.385437 
L 370.566982 295.344721 
L 370.826705 295.483255 
L 370.956567 295.362649 
L 371.15136 294.724695 
L 371.540945 293.038396 
L 371.735738 293.381987 
L 372.514909 295.423179 
L 372.57984 295.042282 
L 372.644771 290.352509 
L 372.774633 238.983076 
L 373.034356 62.071318 
L 373.488873 295.487978 
L 373.553804 295.154818 
L 373.748596 294.762696 
L 373.878458 294.640961 
L 374.527767 293.034144 
L 374.657629 293.404327 
L 375.112145 295.445496 
L 375.242007 295.475222 
L 375.4368 295.161473 
L 375.631593 294.995975 
L 375.956247 295.084338 
L 376.15104 294.870725 
L 376.345833 294.260583 
L 376.930211 291.916476 
L 377.060073 292.337211 
L 377.514589 295.473035 
L 377.57952 295.26459 
L 377.904175 292.555692 
L 378.163898 291.16034 
L 378.228829 291.290974 
L 378.878138 294.899941 
L 379.267724 295.019912 
L 379.657309 294.978708 
L 379.787171 294.79696 
L 379.981964 293.836455 
L 380.306618 291.979549 
L 380.43648 291.877714 
L 380.631273 292.126554 
L 380.955927 292.518333 
L 381.15072 292.541346 
L 381.605236 292.964356 
L 382.319476 292.645221 
L 382.514269 292.992737 
L 382.773993 294.138225 
L 383.098647 295.480543 
L 383.228509 294.993713 
L 383.618095 292.500085 
L 383.747956 292.766207 
L 384.397265 295.319437 
L 384.656989 295.42309 
L 384.916713 295.297192 
L 385.111505 295.244692 
L 385.43616 295.480371 
L 385.566022 295.324067 
L 385.760815 294.462365 
L 386.020538 293.208105 
L 386.1504 293.227902 
L 386.410124 293.606163 
L 387.059433 295.389247 
L 387.124364 295.123694 
L 387.189295 290.658222 
L 387.319156 240.114098 
L 387.57888 65.935991 
L 388.033396 295.461973 
L 388.098327 294.96366 
L 388.29312 294.479857 
L 388.422982 294.279177 
L 389.00736 292.389462 
L 389.072291 292.383253 
L 389.202153 292.86523 
L 389.591738 295.279602 
L 389.786531 295.484897 
L 389.981324 295.385337 
L 390.176116 295.322415 
L 390.565702 295.393218 
L 390.760495 295.274627 
L 390.955287 294.833173 
L 391.474735 293.148328 
L 391.604596 293.476049 
L 391.994182 295.471102 
L 392.124044 294.769173 
L 392.643491 290.140497 
L 392.708422 290.038843 
L 392.773353 290.178781 
L 392.968145 292.186124 
L 393.227869 294.241806 
L 393.552524 294.800361 
L 393.942109 295.097037 
L 394.136902 295.038633 
L 394.266764 294.68152 
L 394.72128 292.82997 
L 394.916073 292.789202 
L 395.110865 293.009214 
L 395.370589 293.324849 
L 395.890036 293.236483 
L 396.214691 293.127844 
L 396.474415 293.031561 
L 396.734138 292.995234 
L 396.864 293.149978 
L 397.058793 293.975457 
L 397.383447 295.485447 
L 397.448378 295.425232 
L 397.57824 294.728209 
L 397.967825 291.732068 
L 398.097687 292.073997 
L 398.487273 294.375638 
L 398.487273 294.375638 
" style="fill:none;stroke:#1f77b4;stroke-linecap:square;stroke-width:1.5;"/>
   </g>
   <g id="patch_3">
    <path d="M 57.6 307.584 
L 57.6 41.472 
" style="fill:none;stroke:#000000;stroke-linecap:square;stroke-linejoin:miter;stroke-width:0.8;"/>
   </g>
   <g id="patch_4">
    <path d="M 414.72 307.584 
L 414.72 41.472 
" style="fill:none;stroke:#000000;stroke-linecap:square;stroke-linejoin:miter;stroke-width:0.8;"/>
   </g>
   <g id="patch_5">
    <path d="M 57.6 307.584 
L 414.72 307.584 
" style="fill:none;stroke:#000000;stroke-linecap:square;stroke-linejoin:miter;stroke-width:0.8;"/>
   </g>
   <g id="patch_6">
    <path d="M 57.6 41.472 
L 414.72 41.472 
" style="fill:none;stroke:#000000;stroke-linecap:square;stroke-linejoin:miter;stroke-width:0.8;"/>
   </g>
   <g id="text_20">
    <!-- Squared Matched Filtered ecg -->
    <defs>
     <path d="M 53.515625 70.515625 
L 53.515625 60.890625 
Q 47.90625 63.578125 42.921875 64.890625 
Q 37.9375 66.21875 33.296875 66.21875 
Q 25.25 66.21875 20.875 63.09375 
Q 16.5 59.96875 16.5 54.203125 
Q 16.5 49.359375 19.40625 46.890625 
Q 22.3125 44.4375 30.421875 42.921875 
L 36.375 41.703125 
Q 47.40625 39.59375 52.65625 34.296875 
Q 57.90625 29 57.90625 20.125 
Q 57.90625 9.515625 50.796875 4.046875 
Q 43.703125 -1.421875 29.984375 -1.421875 
Q 24.8125 -1.421875 18.96875 -0.25 
Q 13.140625 0.921875 6.890625 3.21875 
L 6.890625 13.375 
Q 12.890625 10.015625 18.65625 8.296875 
Q 24.421875 6.59375 29.984375 6.59375 
Q 38.421875 6.59375 43.015625 9.90625 
Q 47.609375 13.234375 47.609375 19.390625 
Q 47.609375 24.75 44.3125 27.78125 
Q 41.015625 30.8125 33.5 32.328125 
L 27.484375 33.5 
Q 16.453125 35.6875 11.515625 40.375 
Q 6.59375 45.0625 6.59375 53.421875 
Q 6.59375 63.09375 13.40625 68.65625 
Q 20.21875 74.21875 32.171875 74.21875 
Q 37.3125 74.21875 42.625 73.28125 
Q 47.953125 72.359375 53.515625 70.515625 
z
" id="DejaVuSans-83"/>
     <path d="M 14.796875 27.296875 
Q 14.796875 17.390625 18.875 11.75 
Q 22.953125 6.109375 30.078125 6.109375 
Q 37.203125 6.109375 41.296875 11.75 
Q 45.40625 17.390625 45.40625 27.296875 
Q 45.40625 37.203125 41.296875 42.84375 
Q 37.203125 48.484375 30.078125 48.484375 
Q 22.953125 48.484375 18.875 42.84375 
Q 14.796875 37.203125 14.796875 27.296875 
z
M 45.40625 8.203125 
Q 42.578125 3.328125 38.25 0.953125 
Q 33.9375 -1.421875 27.875 -1.421875 
Q 17.96875 -1.421875 11.734375 6.484375 
Q 5.515625 14.40625 5.515625 27.296875 
Q 5.515625 40.1875 11.734375 48.09375 
Q 17.96875 56 27.875 56 
Q 33.9375 56 38.25 53.625 
Q 42.578125 51.265625 45.40625 46.390625 
L 45.40625 54.6875 
L 54.390625 54.6875 
L 54.390625 -20.796875 
L 45.40625 -20.796875 
z
" id="DejaVuSans-113"/>
     <path d="M 34.28125 27.484375 
Q 23.390625 27.484375 19.1875 25 
Q 14.984375 22.515625 14.984375 16.5 
Q 14.984375 11.71875 18.140625 8.90625 
Q 21.296875 6.109375 26.703125 6.109375 
Q 34.1875 6.109375 38.703125 11.40625 
Q 43.21875 16.703125 43.21875 25.484375 
L 43.21875 27.484375 
z
M 52.203125 31.203125 
L 52.203125 0 
L 43.21875 0 
L 43.21875 8.296875 
Q 40.140625 3.328125 35.546875 0.953125 
Q 30.953125 -1.421875 24.3125 -1.421875 
Q 15.921875 -1.421875 10.953125 3.296875 
Q 6 8.015625 6 15.921875 
Q 6 25.140625 12.171875 29.828125 
Q 18.359375 34.515625 30.609375 34.515625 
L 43.21875 34.515625 
L 43.21875 35.40625 
Q 43.21875 41.609375 39.140625 45 
Q 35.0625 48.390625 27.6875 48.390625 
Q 23 48.390625 18.546875 47.265625 
Q 14.109375 46.140625 10.015625 43.890625 
L 10.015625 52.203125 
Q 14.9375 54.109375 19.578125 55.046875 
Q 24.21875 56 28.609375 56 
Q 40.484375 56 46.34375 49.84375 
Q 52.203125 43.703125 52.203125 31.203125 
z
" id="DejaVuSans-97"/>
     <path d="M 41.109375 46.296875 
Q 39.59375 47.171875 37.8125 47.578125 
Q 36.03125 48 33.890625 48 
Q 26.265625 48 22.1875 43.046875 
Q 18.109375 38.09375 18.109375 28.8125 
L 18.109375 0 
L 9.078125 0 
L 9.078125 54.6875 
L 18.109375 54.6875 
L 18.109375 46.1875 
Q 20.953125 51.171875 25.484375 53.578125 
Q 30.03125 56 36.53125 56 
Q 37.453125 56 38.578125 55.875 
Q 39.703125 55.765625 41.0625 55.515625 
z
" id="DejaVuSans-114"/>
     <path id="DejaVuSans-32"/>
     <path d="M 9.8125 72.90625 
L 24.515625 72.90625 
L 43.109375 23.296875 
L 61.8125 72.90625 
L 76.515625 72.90625 
L 76.515625 0 
L 66.890625 0 
L 66.890625 64.015625 
L 48.09375 14.015625 
L 38.1875 14.015625 
L 19.390625 64.015625 
L 19.390625 0 
L 9.8125 0 
z
" id="DejaVuSans-77"/>
     <path d="M 48.78125 52.59375 
L 48.78125 44.1875 
Q 44.96875 46.296875 41.140625 47.34375 
Q 37.3125 48.390625 33.40625 48.390625 
Q 24.65625 48.390625 19.8125 42.84375 
Q 14.984375 37.3125 14.984375 27.296875 
Q 14.984375 17.28125 19.8125 11.734375 
Q 24.65625 6.203125 33.40625 6.203125 
Q 37.3125 6.203125 41.140625 7.25 
Q 44.96875 8.296875 48.78125 10.40625 
L 48.78125 2.09375 
Q 45.015625 0.34375 40.984375 -0.53125 
Q 36.96875 -1.421875 32.421875 -1.421875 
Q 20.0625 -1.421875 12.78125 6.34375 
Q 5.515625 14.109375 5.515625 27.296875 
Q 5.515625 40.671875 12.859375 48.328125 
Q 20.21875 56 33.015625 56 
Q 37.15625 56 41.109375 55.140625 
Q 45.0625 54.296875 48.78125 52.59375 
z
" id="DejaVuSans-99"/>
     <path d="M 54.890625 33.015625 
L 54.890625 0 
L 45.90625 0 
L 45.90625 32.71875 
Q 45.90625 40.484375 42.875 44.328125 
Q 39.84375 48.1875 33.796875 48.1875 
Q 26.515625 48.1875 22.3125 43.546875 
Q 18.109375 38.921875 18.109375 30.90625 
L 18.109375 0 
L 9.078125 0 
L 9.078125 75.984375 
L 18.109375 75.984375 
L 18.109375 46.1875 
Q 21.34375 51.125 25.703125 53.5625 
Q 30.078125 56 35.796875 56 
Q 45.21875 56 50.046875 50.171875 
Q 54.890625 44.34375 54.890625 33.015625 
z
" id="DejaVuSans-104"/>
     <path d="M 9.8125 72.90625 
L 51.703125 72.90625 
L 51.703125 64.59375 
L 19.671875 64.59375 
L 19.671875 43.109375 
L 48.578125 43.109375 
L 48.578125 34.8125 
L 19.671875 34.8125 
L 19.671875 0 
L 9.8125 0 
z
" id="DejaVuSans-70"/>
     <path d="M 45.40625 27.984375 
Q 45.40625 37.75 41.375 43.109375 
Q 37.359375 48.484375 30.078125 48.484375 
Q 22.859375 48.484375 18.828125 43.109375 
Q 14.796875 37.75 14.796875 27.984375 
Q 14.796875 18.265625 18.828125 12.890625 
Q 22.859375 7.515625 30.078125 7.515625 
Q 37.359375 7.515625 41.375 12.890625 
Q 45.40625 18.265625 45.40625 27.984375 
z
M 54.390625 6.78125 
Q 54.390625 -7.171875 48.1875 -13.984375 
Q 42 -20.796875 29.203125 -20.796875 
Q 24.46875 -20.796875 20.265625 -20.09375 
Q 16.0625 -19.390625 12.109375 -17.921875 
L 12.109375 -9.1875 
Q 16.0625 -11.328125 19.921875 -12.34375 
Q 23.78125 -13.375 27.78125 -13.375 
Q 36.625 -13.375 41.015625 -8.765625 
Q 45.40625 -4.15625 45.40625 5.171875 
L 45.40625 9.625 
Q 42.625 4.78125 38.28125 2.390625 
Q 33.9375 0 27.875 0 
Q 17.828125 0 11.671875 7.65625 
Q 5.515625 15.328125 5.515625 27.984375 
Q 5.515625 40.671875 11.671875 48.328125 
Q 17.828125 56 27.875 56 
Q 33.9375 56 38.28125 53.609375 
Q 42.625 51.21875 45.40625 46.390625 
L 45.40625 54.6875 
L 54.390625 54.6875 
z
" id="DejaVuSans-103"/>
    </defs>
    <g transform="translate(146.674688 35.472)scale(0.12 -0.12)">
     <use xlink:href="#DejaVuSans-83"/>
     <use x="63.476562" xlink:href="#DejaVuSans-113"/>
     <use x="126.953125" xlink:href="#DejaVuSans-117"/>
     <use x="190.332031" xlink:href="#DejaVuSans-97"/>
     <use x="251.611328" xlink:href="#DejaVuSans-114"/>
     <use x="290.474609" xlink:href="#DejaVuSans-101"/>
     <use x="351.998047" xlink:href="#DejaVuSans-100"/>
     <use x="415.474609" xlink:href="#DejaVuSans-32"/>
     <use x="447.261719" xlink:href="#DejaVuSans-77"/>
     <use x="533.541016" xlink:href="#DejaVuSans-97"/>
     <use x="594.820312" xlink:href="#DejaVuSans-116"/>
     <use x="634.029297" xlink:href="#DejaVuSans-99"/>
     <use x="689.009766" xlink:href="#DejaVuSans-104"/>
     <use x="752.388672" xlink:href="#DejaVuSans-101"/>
     <use x="813.912109" xlink:href="#DejaVuSans-100"/>
     <use x="877.388672" xlink:href="#DejaVuSans-32"/>
     <use x="909.175781" xlink:href="#DejaVuSans-70"/>
     <use x="959.445312" xlink:href="#DejaVuSans-105"/>
     <use x="987.228516" xlink:href="#DejaVuSans-108"/>
     <use x="1015.011719" xlink:href="#DejaVuSans-116"/>
     <use x="1054.220703" xlink:href="#DejaVuSans-101"/>
     <use x="1115.744141" xlink:href="#DejaVuSans-114"/>
     <use x="1154.607422" xlink:href="#DejaVuSans-101"/>
     <use x="1216.130859" xlink:href="#DejaVuSans-100"/>
     <use x="1279.607422" xlink:href="#DejaVuSans-32"/>
     <use x="1311.394531" xlink:href="#DejaVuSans-101"/>
     <use x="1372.917969" xlink:href="#DejaVuSans-99"/>
     <use x="1427.898438" xlink:href="#DejaVuSans-103"/>
    </g>
   </g>
  </g>
 </g>
 <defs>
  <clipPath id="pbd4e46bfe2">
   <rect height="266.112" width="357.12" x="57.6" y="41.472"/>
  </clipPath>
 </defs>
</svg>
