<?xml version="1.0" encoding="utf-8" standalone="no"?>
<!DOCTYPE svg PUBLIC "-//W3C//DTD SVG 1.1//EN"
  "http://www.w3.org/Graphics/SVG/1.1/DTD/svg11.dtd">
<!-- Created with matplotlib (https://matplotlib.org/) -->
<svg height="345.6pt" version="1.1" viewBox="0 0 460.8 345.6" width="460.8pt" xmlns="http://www.w3.org/2000/svg" xmlns:xlink="http://www.w3.org/1999/xlink">
 <defs>
  <style type="text/css">
*{stroke-linecap:butt;stroke-linejoin:round;}
  </style>
 </defs>
 <g id="figure_1">
  <g id="patch_1">
   <path d="M 0 345.6 
L 460.8 345.6 
L 460.8 0 
L 0 0 
z
" style="fill:#ffffff;"/>
  </g>
  <g id="axes_1">
   <g id="patch_2">
    <path d="M 57.6 307.584 
L 414.72 307.584 
L 414.72 41.472 
L 57.6 41.472 
z
" style="fill:#ffffff;"/>
   </g>
   <g id="matplotlib.axis_1">
    <g id="xtick_1">
     <g id="line2d_1">
      <defs>
       <path d="M 0 0 
L 0 3.5 
" id="mae529bff7c" style="stroke:#000000;stroke-width:0.8;"/>
      </defs>
      <g>
       <use style="stroke:#000000;stroke-width:0.8;" x="73.832727" xlink:href="#mae529bff7c" y="307.584"/>
      </g>
     </g>
     <g id="text_1">
      <!-- 0.0 -->
      <defs>
       <path d="M 31.78125 66.40625 
Q 24.171875 66.40625 20.328125 58.90625 
Q 16.5 51.421875 16.5 36.375 
Q 16.5 21.390625 20.328125 13.890625 
Q 24.171875 6.390625 31.78125 6.390625 
Q 39.453125 6.390625 43.28125 13.890625 
Q 47.125 21.390625 47.125 36.375 
Q 47.125 51.421875 43.28125 58.90625 
Q 39.453125 66.40625 31.78125 66.40625 
z
M 31.78125 74.21875 
Q 44.046875 74.21875 50.515625 64.515625 
Q 56.984375 54.828125 56.984375 36.375 
Q 56.984375 17.96875 50.515625 8.265625 
Q 44.046875 -1.421875 31.78125 -1.421875 
Q 19.53125 -1.421875 13.0625 8.265625 
Q 6.59375 17.96875 6.59375 36.375 
Q 6.59375 54.828125 13.0625 64.515625 
Q 19.53125 74.21875 31.78125 74.21875 
z
" id="DejaVuSans-48"/>
       <path d="M 10.6875 12.40625 
L 21 12.40625 
L 21 0 
L 10.6875 0 
z
" id="DejaVuSans-46"/>
      </defs>
      <g transform="translate(65.881165 322.182437)scale(0.1 -0.1)">
       <use xlink:href="#DejaVuSans-48"/>
       <use x="63.623047" xlink:href="#DejaVuSans-46"/>
       <use x="95.410156" xlink:href="#DejaVuSans-48"/>
      </g>
     </g>
    </g>
    <g id="xtick_2">
     <g id="line2d_2">
      <g>
       <use style="stroke:#000000;stroke-width:0.8;" x="114.406431" xlink:href="#mae529bff7c" y="307.584"/>
      </g>
     </g>
     <g id="text_2">
      <!-- 2.5 -->
      <defs>
       <path d="M 19.1875 8.296875 
L 53.609375 8.296875 
L 53.609375 0 
L 7.328125 0 
L 7.328125 8.296875 
Q 12.9375 14.109375 22.625 23.890625 
Q 32.328125 33.6875 34.8125 36.53125 
Q 39.546875 41.84375 41.421875 45.53125 
Q 43.3125 49.21875 43.3125 52.78125 
Q 43.3125 58.59375 39.234375 62.25 
Q 35.15625 65.921875 28.609375 65.921875 
Q 23.96875 65.921875 18.8125 64.3125 
Q 13.671875 62.703125 7.8125 59.421875 
L 7.8125 69.390625 
Q 13.765625 71.78125 18.9375 73 
Q 24.125 74.21875 28.421875 74.21875 
Q 39.75 74.21875 46.484375 68.546875 
Q 53.21875 62.890625 53.21875 53.421875 
Q 53.21875 48.921875 51.53125 44.890625 
Q 49.859375 40.875 45.40625 35.40625 
Q 44.1875 33.984375 37.640625 27.21875 
Q 31.109375 20.453125 19.1875 8.296875 
z
" id="DejaVuSans-50"/>
       <path d="M 10.796875 72.90625 
L 49.515625 72.90625 
L 49.515625 64.59375 
L 19.828125 64.59375 
L 19.828125 46.734375 
Q 21.96875 47.46875 24.109375 47.828125 
Q 26.265625 48.1875 28.421875 48.1875 
Q 40.625 48.1875 47.75 41.5 
Q 54.890625 34.8125 54.890625 23.390625 
Q 54.890625 11.625 47.5625 5.09375 
Q 40.234375 -1.421875 26.90625 -1.421875 
Q 22.3125 -1.421875 17.546875 -0.640625 
Q 12.796875 0.140625 7.71875 1.703125 
L 7.71875 11.625 
Q 12.109375 9.234375 16.796875 8.0625 
Q 21.484375 6.890625 26.703125 6.890625 
Q 35.15625 6.890625 40.078125 11.328125 
Q 45.015625 15.765625 45.015625 23.390625 
Q 45.015625 31 40.078125 35.4375 
Q 35.15625 39.890625 26.703125 39.890625 
Q 22.75 39.890625 18.8125 39.015625 
Q 14.890625 38.140625 10.796875 36.28125 
z
" id="DejaVuSans-53"/>
      </defs>
      <g transform="translate(106.454868 322.182437)scale(0.1 -0.1)">
       <use xlink:href="#DejaVuSans-50"/>
       <use x="63.623047" xlink:href="#DejaVuSans-46"/>
       <use x="95.410156" xlink:href="#DejaVuSans-53"/>
      </g>
     </g>
    </g>
    <g id="xtick_3">
     <g id="line2d_3">
      <g>
       <use style="stroke:#000000;stroke-width:0.8;" x="154.980134" xlink:href="#mae529bff7c" y="307.584"/>
      </g>
     </g>
     <g id="text_3">
      <!-- 5.0 -->
      <g transform="translate(147.028572 322.182437)scale(0.1 -0.1)">
       <use xlink:href="#DejaVuSans-53"/>
       <use x="63.623047" xlink:href="#DejaVuSans-46"/>
       <use x="95.410156" xlink:href="#DejaVuSans-48"/>
      </g>
     </g>
    </g>
    <g id="xtick_4">
     <g id="line2d_4">
      <g>
       <use style="stroke:#000000;stroke-width:0.8;" x="195.553838" xlink:href="#mae529bff7c" y="307.584"/>
      </g>
     </g>
     <g id="text_4">
      <!-- 7.5 -->
      <defs>
       <path d="M 8.203125 72.90625 
L 55.078125 72.90625 
L 55.078125 68.703125 
L 28.609375 0 
L 18.3125 0 
L 43.21875 64.59375 
L 8.203125 64.59375 
z
" id="DejaVuSans-55"/>
      </defs>
      <g transform="translate(187.602275 322.182437)scale(0.1 -0.1)">
       <use xlink:href="#DejaVuSans-55"/>
       <use x="63.623047" xlink:href="#DejaVuSans-46"/>
       <use x="95.410156" xlink:href="#DejaVuSans-53"/>
      </g>
     </g>
    </g>
    <g id="xtick_5">
     <g id="line2d_5">
      <g>
       <use style="stroke:#000000;stroke-width:0.8;" x="236.127541" xlink:href="#mae529bff7c" y="307.584"/>
      </g>
     </g>
     <g id="text_5">
      <!-- 10.0 -->
      <defs>
       <path d="M 12.40625 8.296875 
L 28.515625 8.296875 
L 28.515625 63.921875 
L 10.984375 60.40625 
L 10.984375 69.390625 
L 28.421875 72.90625 
L 38.28125 72.90625 
L 38.28125 8.296875 
L 54.390625 8.296875 
L 54.390625 0 
L 12.40625 0 
z
" id="DejaVuSans-49"/>
      </defs>
      <g transform="translate(224.994729 322.182437)scale(0.1 -0.1)">
       <use xlink:href="#DejaVuSans-49"/>
       <use x="63.623047" xlink:href="#DejaVuSans-48"/>
       <use x="127.246094" xlink:href="#DejaVuSans-46"/>
       <use x="159.033203" xlink:href="#DejaVuSans-48"/>
      </g>
     </g>
    </g>
    <g id="xtick_6">
     <g id="line2d_6">
      <g>
       <use style="stroke:#000000;stroke-width:0.8;" x="276.701244" xlink:href="#mae529bff7c" y="307.584"/>
      </g>
     </g>
     <g id="text_6">
      <!-- 12.5 -->
      <g transform="translate(265.568432 322.182437)scale(0.1 -0.1)">
       <use xlink:href="#DejaVuSans-49"/>
       <use x="63.623047" xlink:href="#DejaVuSans-50"/>
       <use x="127.246094" xlink:href="#DejaVuSans-46"/>
       <use x="159.033203" xlink:href="#DejaVuSans-53"/>
      </g>
     </g>
    </g>
    <g id="xtick_7">
     <g id="line2d_7">
      <g>
       <use style="stroke:#000000;stroke-width:0.8;" x="317.274948" xlink:href="#mae529bff7c" y="307.584"/>
      </g>
     </g>
     <g id="text_7">
      <!-- 15.0 -->
      <g transform="translate(306.142135 322.182437)scale(0.1 -0.1)">
       <use xlink:href="#DejaVuSans-49"/>
       <use x="63.623047" xlink:href="#DejaVuSans-53"/>
       <use x="127.246094" xlink:href="#DejaVuSans-46"/>
       <use x="159.033203" xlink:href="#DejaVuSans-48"/>
      </g>
     </g>
    </g>
    <g id="xtick_8">
     <g id="line2d_8">
      <g>
       <use style="stroke:#000000;stroke-width:0.8;" x="357.848651" xlink:href="#mae529bff7c" y="307.584"/>
      </g>
     </g>
     <g id="text_8">
      <!-- 17.5 -->
      <g transform="translate(346.715839 322.182437)scale(0.1 -0.1)">
       <use xlink:href="#DejaVuSans-49"/>
       <use x="63.623047" xlink:href="#DejaVuSans-55"/>
       <use x="127.246094" xlink:href="#DejaVuSans-46"/>
       <use x="159.033203" xlink:href="#DejaVuSans-53"/>
      </g>
     </g>
    </g>
    <g id="xtick_9">
     <g id="line2d_9">
      <g>
       <use style="stroke:#000000;stroke-width:0.8;" x="398.422355" xlink:href="#mae529bff7c" y="307.584"/>
      </g>
     </g>
     <g id="text_9">
      <!-- 20.0 -->
      <g transform="translate(387.289542 322.182437)scale(0.1 -0.1)">
       <use xlink:href="#DejaVuSans-50"/>
       <use x="63.623047" xlink:href="#DejaVuSans-48"/>
       <use x="127.246094" xlink:href="#DejaVuSans-46"/>
       <use x="159.033203" xlink:href="#DejaVuSans-48"/>
      </g>
     </g>
    </g>
    <g id="text_10">
     <!-- Time(s) -->
     <defs>
      <path d="M -0.296875 72.90625 
L 61.375 72.90625 
L 61.375 64.59375 
L 35.5 64.59375 
L 35.5 0 
L 25.59375 0 
L 25.59375 64.59375 
L -0.296875 64.59375 
z
" id="DejaVuSans-84"/>
      <path d="M 9.421875 54.6875 
L 18.40625 54.6875 
L 18.40625 0 
L 9.421875 0 
z
M 9.421875 75.984375 
L 18.40625 75.984375 
L 18.40625 64.59375 
L 9.421875 64.59375 
z
" id="DejaVuSans-105"/>
      <path d="M 52 44.1875 
Q 55.375 50.25 60.0625 53.125 
Q 64.75 56 71.09375 56 
Q 79.640625 56 84.28125 50.015625 
Q 88.921875 44.046875 88.921875 33.015625 
L 88.921875 0 
L 79.890625 0 
L 79.890625 32.71875 
Q 79.890625 40.578125 77.09375 44.375 
Q 74.3125 48.1875 68.609375 48.1875 
Q 61.625 48.1875 57.5625 43.546875 
Q 53.515625 38.921875 53.515625 30.90625 
L 53.515625 0 
L 44.484375 0 
L 44.484375 32.71875 
Q 44.484375 40.625 41.703125 44.40625 
Q 38.921875 48.1875 33.109375 48.1875 
Q 26.21875 48.1875 22.15625 43.53125 
Q 18.109375 38.875 18.109375 30.90625 
L 18.109375 0 
L 9.078125 0 
L 9.078125 54.6875 
L 18.109375 54.6875 
L 18.109375 46.1875 
Q 21.1875 51.21875 25.484375 53.609375 
Q 29.78125 56 35.6875 56 
Q 41.65625 56 45.828125 52.96875 
Q 50 49.953125 52 44.1875 
z
" id="DejaVuSans-109"/>
      <path d="M 56.203125 29.59375 
L 56.203125 25.203125 
L 14.890625 25.203125 
Q 15.484375 15.921875 20.484375 11.0625 
Q 25.484375 6.203125 34.421875 6.203125 
Q 39.59375 6.203125 44.453125 7.46875 
Q 49.3125 8.734375 54.109375 11.28125 
L 54.109375 2.78125 
Q 49.265625 0.734375 44.1875 -0.34375 
Q 39.109375 -1.421875 33.890625 -1.421875 
Q 20.796875 -1.421875 13.15625 6.1875 
Q 5.515625 13.8125 5.515625 26.8125 
Q 5.515625 40.234375 12.765625 48.109375 
Q 20.015625 56 32.328125 56 
Q 43.359375 56 49.78125 48.890625 
Q 56.203125 41.796875 56.203125 29.59375 
z
M 47.21875 32.234375 
Q 47.125 39.59375 43.09375 43.984375 
Q 39.0625 48.390625 32.421875 48.390625 
Q 24.90625 48.390625 20.390625 44.140625 
Q 15.875 39.890625 15.1875 32.171875 
z
" id="DejaVuSans-101"/>
      <path d="M 31 75.875 
Q 24.46875 64.65625 21.28125 53.65625 
Q 18.109375 42.671875 18.109375 31.390625 
Q 18.109375 20.125 21.3125 9.0625 
Q 24.515625 -2 31 -13.1875 
L 23.1875 -13.1875 
Q 15.875 -1.703125 12.234375 9.375 
Q 8.59375 20.453125 8.59375 31.390625 
Q 8.59375 42.28125 12.203125 53.3125 
Q 15.828125 64.359375 23.1875 75.875 
z
" id="DejaVuSans-40"/>
      <path d="M 44.28125 53.078125 
L 44.28125 44.578125 
Q 40.484375 46.53125 36.375 47.5 
Q 32.28125 48.484375 27.875 48.484375 
Q 21.1875 48.484375 17.84375 46.4375 
Q 14.5 44.390625 14.5 40.28125 
Q 14.5 37.15625 16.890625 35.375 
Q 19.28125 33.59375 26.515625 31.984375 
L 29.59375 31.296875 
Q 39.15625 29.25 43.1875 25.515625 
Q 47.21875 21.78125 47.21875 15.09375 
Q 47.21875 7.46875 41.1875 3.015625 
Q 35.15625 -1.421875 24.609375 -1.421875 
Q 20.21875 -1.421875 15.453125 -0.5625 
Q 10.6875 0.296875 5.421875 2 
L 5.421875 11.28125 
Q 10.40625 8.6875 15.234375 7.390625 
Q 20.0625 6.109375 24.8125 6.109375 
Q 31.15625 6.109375 34.5625 8.28125 
Q 37.984375 10.453125 37.984375 14.40625 
Q 37.984375 18.0625 35.515625 20.015625 
Q 33.0625 21.96875 24.703125 23.78125 
L 21.578125 24.515625 
Q 13.234375 26.265625 9.515625 29.90625 
Q 5.8125 33.546875 5.8125 39.890625 
Q 5.8125 47.609375 11.28125 51.796875 
Q 16.75 56 26.8125 56 
Q 31.78125 56 36.171875 55.265625 
Q 40.578125 54.546875 44.28125 53.078125 
z
" id="DejaVuSans-115"/>
      <path d="M 8.015625 75.875 
L 15.828125 75.875 
Q 23.140625 64.359375 26.78125 53.3125 
Q 30.421875 42.28125 30.421875 31.390625 
Q 30.421875 20.453125 26.78125 9.375 
Q 23.140625 -1.703125 15.828125 -13.1875 
L 8.015625 -13.1875 
Q 14.5 -2 17.703125 9.0625 
Q 20.90625 20.125 20.90625 31.390625 
Q 20.90625 42.671875 17.703125 53.65625 
Q 14.5 64.65625 8.015625 75.875 
z
" id="DejaVuSans-41"/>
     </defs>
     <g transform="translate(217.420156 335.860562)scale(0.1 -0.1)">
      <use xlink:href="#DejaVuSans-84"/>
      <use x="57.958984" xlink:href="#DejaVuSans-105"/>
      <use x="85.742188" xlink:href="#DejaVuSans-109"/>
      <use x="183.154297" xlink:href="#DejaVuSans-101"/>
      <use x="244.677734" xlink:href="#DejaVuSans-40"/>
      <use x="283.691406" xlink:href="#DejaVuSans-115"/>
      <use x="335.791016" xlink:href="#DejaVuSans-41"/>
     </g>
    </g>
   </g>
   <g id="matplotlib.axis_2">
    <g id="ytick_1">
     <g id="line2d_10">
      <defs>
       <path d="M 0 0 
L -3.5 0 
" id="mdea19884fa" style="stroke:#000000;stroke-width:0.8;"/>
      </defs>
      <g>
       <use style="stroke:#000000;stroke-width:0.8;" x="57.6" xlink:href="#mdea19884fa" y="282.964905"/>
      </g>
     </g>
     <g id="text_11">
      <!-- −2 -->
      <defs>
       <path d="M 10.59375 35.5 
L 73.1875 35.5 
L 73.1875 27.203125 
L 10.59375 27.203125 
z
" id="DejaVuSans-8722"/>
      </defs>
      <g transform="translate(35.857813 286.764124)scale(0.1 -0.1)">
       <use xlink:href="#DejaVuSans-8722"/>
       <use x="83.789062" xlink:href="#DejaVuSans-50"/>
      </g>
     </g>
    </g>
    <g id="ytick_2">
     <g id="line2d_11">
      <g>
       <use style="stroke:#000000;stroke-width:0.8;" x="57.6" xlink:href="#mdea19884fa" y="252.476111"/>
      </g>
     </g>
     <g id="text_12">
      <!-- −1 -->
      <g transform="translate(35.857813 256.27533)scale(0.1 -0.1)">
       <use xlink:href="#DejaVuSans-8722"/>
       <use x="83.789062" xlink:href="#DejaVuSans-49"/>
      </g>
     </g>
    </g>
    <g id="ytick_3">
     <g id="line2d_12">
      <g>
       <use style="stroke:#000000;stroke-width:0.8;" x="57.6" xlink:href="#mdea19884fa" y="221.987318"/>
      </g>
     </g>
     <g id="text_13">
      <!-- 0 -->
      <g transform="translate(44.2375 225.786537)scale(0.1 -0.1)">
       <use xlink:href="#DejaVuSans-48"/>
      </g>
     </g>
    </g>
    <g id="ytick_4">
     <g id="line2d_13">
      <g>
       <use style="stroke:#000000;stroke-width:0.8;" x="57.6" xlink:href="#mdea19884fa" y="191.498524"/>
      </g>
     </g>
     <g id="text_14">
      <!-- 1 -->
      <g transform="translate(44.2375 195.297743)scale(0.1 -0.1)">
       <use xlink:href="#DejaVuSans-49"/>
      </g>
     </g>
    </g>
    <g id="ytick_5">
     <g id="line2d_14">
      <g>
       <use style="stroke:#000000;stroke-width:0.8;" x="57.6" xlink:href="#mdea19884fa" y="161.009731"/>
      </g>
     </g>
     <g id="text_15">
      <!-- 2 -->
      <g transform="translate(44.2375 164.80895)scale(0.1 -0.1)">
       <use xlink:href="#DejaVuSans-50"/>
      </g>
     </g>
    </g>
    <g id="ytick_6">
     <g id="line2d_15">
      <g>
       <use style="stroke:#000000;stroke-width:0.8;" x="57.6" xlink:href="#mdea19884fa" y="130.520937"/>
      </g>
     </g>
     <g id="text_16">
      <!-- 3 -->
      <defs>
       <path d="M 40.578125 39.3125 
Q 47.65625 37.796875 51.625 33 
Q 55.609375 28.21875 55.609375 21.1875 
Q 55.609375 10.40625 48.1875 4.484375 
Q 40.765625 -1.421875 27.09375 -1.421875 
Q 22.515625 -1.421875 17.65625 -0.515625 
Q 12.796875 0.390625 7.625 2.203125 
L 7.625 11.71875 
Q 11.71875 9.328125 16.59375 8.109375 
Q 21.484375 6.890625 26.8125 6.890625 
Q 36.078125 6.890625 40.9375 10.546875 
Q 45.796875 14.203125 45.796875 21.1875 
Q 45.796875 27.640625 41.28125 31.265625 
Q 36.765625 34.90625 28.71875 34.90625 
L 20.21875 34.90625 
L 20.21875 43.015625 
L 29.109375 43.015625 
Q 36.375 43.015625 40.234375 45.921875 
Q 44.09375 48.828125 44.09375 54.296875 
Q 44.09375 59.90625 40.109375 62.90625 
Q 36.140625 65.921875 28.71875 65.921875 
Q 24.65625 65.921875 20.015625 65.03125 
Q 15.375 64.15625 9.8125 62.3125 
L 9.8125 71.09375 
Q 15.4375 72.65625 20.34375 73.4375 
Q 25.25 74.21875 29.59375 74.21875 
Q 40.828125 74.21875 47.359375 69.109375 
Q 53.90625 64.015625 53.90625 55.328125 
Q 53.90625 49.265625 50.4375 45.09375 
Q 46.96875 40.921875 40.578125 39.3125 
z
" id="DejaVuSans-51"/>
      </defs>
      <g transform="translate(44.2375 134.320156)scale(0.1 -0.1)">
       <use xlink:href="#DejaVuSans-51"/>
      </g>
     </g>
    </g>
    <g id="ytick_7">
     <g id="line2d_16">
      <g>
       <use style="stroke:#000000;stroke-width:0.8;" x="57.6" xlink:href="#mdea19884fa" y="100.032144"/>
      </g>
     </g>
     <g id="text_17">
      <!-- 4 -->
      <defs>
       <path d="M 37.796875 64.3125 
L 12.890625 25.390625 
L 37.796875 25.390625 
z
M 35.203125 72.90625 
L 47.609375 72.90625 
L 47.609375 25.390625 
L 58.015625 25.390625 
L 58.015625 17.1875 
L 47.609375 17.1875 
L 47.609375 0 
L 37.796875 0 
L 37.796875 17.1875 
L 4.890625 17.1875 
L 4.890625 26.703125 
z
" id="DejaVuSans-52"/>
      </defs>
      <g transform="translate(44.2375 103.831363)scale(0.1 -0.1)">
       <use xlink:href="#DejaVuSans-52"/>
      </g>
     </g>
    </g>
    <g id="ytick_8">
     <g id="line2d_17">
      <g>
       <use style="stroke:#000000;stroke-width:0.8;" x="57.6" xlink:href="#mdea19884fa" y="69.54335"/>
      </g>
     </g>
     <g id="text_18">
      <!-- 5 -->
      <g transform="translate(44.2375 73.342569)scale(0.1 -0.1)">
       <use xlink:href="#DejaVuSans-53"/>
      </g>
     </g>
    </g>
    <g id="text_19">
     <!-- Amplitude -->
     <defs>
      <path d="M 34.1875 63.1875 
L 20.796875 26.90625 
L 47.609375 26.90625 
z
M 28.609375 72.90625 
L 39.796875 72.90625 
L 67.578125 0 
L 57.328125 0 
L 50.6875 18.703125 
L 17.828125 18.703125 
L 11.1875 0 
L 0.78125 0 
z
" id="DejaVuSans-65"/>
      <path d="M 18.109375 8.203125 
L 18.109375 -20.796875 
L 9.078125 -20.796875 
L 9.078125 54.6875 
L 18.109375 54.6875 
L 18.109375 46.390625 
Q 20.953125 51.265625 25.265625 53.625 
Q 29.59375 56 35.59375 56 
Q 45.5625 56 51.78125 48.09375 
Q 58.015625 40.1875 58.015625 27.296875 
Q 58.015625 14.40625 51.78125 6.484375 
Q 45.5625 -1.421875 35.59375 -1.421875 
Q 29.59375 -1.421875 25.265625 0.953125 
Q 20.953125 3.328125 18.109375 8.203125 
z
M 48.6875 27.296875 
Q 48.6875 37.203125 44.609375 42.84375 
Q 40.53125 48.484375 33.40625 48.484375 
Q 26.265625 48.484375 22.1875 42.84375 
Q 18.109375 37.203125 18.109375 27.296875 
Q 18.109375 17.390625 22.1875 11.75 
Q 26.265625 6.109375 33.40625 6.109375 
Q 40.53125 6.109375 44.609375 11.75 
Q 48.6875 17.390625 48.6875 27.296875 
z
" id="DejaVuSans-112"/>
      <path d="M 9.421875 75.984375 
L 18.40625 75.984375 
L 18.40625 0 
L 9.421875 0 
z
" id="DejaVuSans-108"/>
      <path d="M 18.3125 70.21875 
L 18.3125 54.6875 
L 36.8125 54.6875 
L 36.8125 47.703125 
L 18.3125 47.703125 
L 18.3125 18.015625 
Q 18.3125 11.328125 20.140625 9.421875 
Q 21.96875 7.515625 27.59375 7.515625 
L 36.8125 7.515625 
L 36.8125 0 
L 27.59375 0 
Q 17.1875 0 13.234375 3.875 
Q 9.28125 7.765625 9.28125 18.015625 
L 9.28125 47.703125 
L 2.6875 47.703125 
L 2.6875 54.6875 
L 9.28125 54.6875 
L 9.28125 70.21875 
z
" id="DejaVuSans-116"/>
      <path d="M 8.5 21.578125 
L 8.5 54.6875 
L 17.484375 54.6875 
L 17.484375 21.921875 
Q 17.484375 14.15625 20.5 10.265625 
Q 23.53125 6.390625 29.59375 6.390625 
Q 36.859375 6.390625 41.078125 11.03125 
Q 45.3125 15.671875 45.3125 23.6875 
L 45.3125 54.6875 
L 54.296875 54.6875 
L 54.296875 0 
L 45.3125 0 
L 45.3125 8.40625 
Q 42.046875 3.421875 37.71875 1 
Q 33.40625 -1.421875 27.6875 -1.421875 
Q 18.265625 -1.421875 13.375 4.4375 
Q 8.5 10.296875 8.5 21.578125 
z
M 31.109375 56 
z
" id="DejaVuSans-117"/>
      <path d="M 45.40625 46.390625 
L 45.40625 75.984375 
L 54.390625 75.984375 
L 54.390625 0 
L 45.40625 0 
L 45.40625 8.203125 
Q 42.578125 3.328125 38.25 0.953125 
Q 33.9375 -1.421875 27.875 -1.421875 
Q 17.96875 -1.421875 11.734375 6.484375 
Q 5.515625 14.40625 5.515625 27.296875 
Q 5.515625 40.1875 11.734375 48.09375 
Q 17.96875 56 27.875 56 
Q 33.9375 56 38.25 53.625 
Q 42.578125 51.265625 45.40625 46.390625 
z
M 14.796875 27.296875 
Q 14.796875 17.390625 18.875 11.75 
Q 22.953125 6.109375 30.078125 6.109375 
Q 37.203125 6.109375 41.296875 11.75 
Q 45.40625 17.390625 45.40625 27.296875 
Q 45.40625 37.203125 41.296875 42.84375 
Q 37.203125 48.484375 30.078125 48.484375 
Q 22.953125 48.484375 18.875 42.84375 
Q 14.796875 37.203125 14.796875 27.296875 
z
" id="DejaVuSans-100"/>
     </defs>
     <g transform="translate(29.778125 200.150656)rotate(-90)scale(0.1 -0.1)">
      <use xlink:href="#DejaVuSans-65"/>
      <use x="68.408203" xlink:href="#DejaVuSans-109"/>
      <use x="165.820312" xlink:href="#DejaVuSans-112"/>
      <use x="229.296875" xlink:href="#DejaVuSans-108"/>
      <use x="257.080078" xlink:href="#DejaVuSans-105"/>
      <use x="284.863281" xlink:href="#DejaVuSans-116"/>
      <use x="324.072266" xlink:href="#DejaVuSans-117"/>
      <use x="387.451172" xlink:href="#DejaVuSans-100"/>
      <use x="450.927734" xlink:href="#DejaVuSans-101"/>
     </g>
    </g>
    <g id="text_20">
     <!-- 1e−6 -->
     <defs>
      <path d="M 33.015625 40.375 
Q 26.375 40.375 22.484375 35.828125 
Q 18.609375 31.296875 18.609375 23.390625 
Q 18.609375 15.53125 22.484375 10.953125 
Q 26.375 6.390625 33.015625 6.390625 
Q 39.65625 6.390625 43.53125 10.953125 
Q 47.40625 15.53125 47.40625 23.390625 
Q 47.40625 31.296875 43.53125 35.828125 
Q 39.65625 40.375 33.015625 40.375 
z
M 52.59375 71.296875 
L 52.59375 62.3125 
Q 48.875 64.0625 45.09375 64.984375 
Q 41.3125 65.921875 37.59375 65.921875 
Q 27.828125 65.921875 22.671875 59.328125 
Q 17.53125 52.734375 16.796875 39.40625 
Q 19.671875 43.65625 24.015625 45.921875 
Q 28.375 48.1875 33.59375 48.1875 
Q 44.578125 48.1875 50.953125 41.515625 
Q 57.328125 34.859375 57.328125 23.390625 
Q 57.328125 12.15625 50.6875 5.359375 
Q 44.046875 -1.421875 33.015625 -1.421875 
Q 20.359375 -1.421875 13.671875 8.265625 
Q 6.984375 17.96875 6.984375 36.375 
Q 6.984375 53.65625 15.1875 63.9375 
Q 23.390625 74.21875 37.203125 74.21875 
Q 40.921875 74.21875 44.703125 73.484375 
Q 48.484375 72.75 52.59375 71.296875 
z
" id="DejaVuSans-54"/>
     </defs>
     <g transform="translate(57.6 38.472)scale(0.1 -0.1)">
      <use xlink:href="#DejaVuSans-49"/>
      <use x="63.623047" xlink:href="#DejaVuSans-101"/>
      <use x="125.146484" xlink:href="#DejaVuSans-8722"/>
      <use x="208.935547" xlink:href="#DejaVuSans-54"/>
     </g>
    </g>
   </g>
   <g id="line2d_18">
    <path clip-path="url(#p1139a39478)" d="M 73.832727 221.987318 
L 94.156102 222.098052 
L 95.714444 222.39796 
L 97.467578 222.767395 
L 97.857164 222.979818 
L 100.649193 222.923907 
L 101.688087 222.395235 
L 102.662051 221.570926 
L 103.895738 220.007729 
L 104.999564 218.24244 
L 106.298182 215.804064 
L 107.142284 205.125038 
L 108.051316 194.209823 
L 109.02528 181.433833 
L 109.220073 180.70143 
L 109.349935 181.375052 
L 109.544727 184.365392 
L 109.934313 196.338469 
L 110.388829 208.394089 
L 111.232931 222.355442 
L 111.687447 227.463211 
L 111.947171 228.588879 
L 112.012102 228.610048 
L 112.141964 228.283982 
L 112.401687 226.631323 
L 112.726342 222.554817 
L 113.440582 212.727625 
L 113.505513 212.507616 
L 113.570444 212.643295 
L 113.635375 214.561221 
L 113.765236 231.963793 
L 114.154822 295.488 
L 114.349615 283.072385 
L 114.674269 263.957933 
L 114.869062 260.975329 
L 114.998924 262.631016 
L 115.583302 277.282409 
L 115.778095 277.429041 
L 116.037818 277.150415 
L 116.16768 278.116826 
L 116.427404 281.200694 
L 116.492335 280.928972 
L 116.752058 275.336079 
L 117.790953 249.869461 
L 118.764916 237.455922 
L 119.02464 230.320452 
L 119.479156 207.815786 
L 119.803811 196.555448 
L 119.933673 195.818972 
L 120.063535 196.522584 
L 120.907636 205.701091 
L 120.972567 205.906753 
L 121.037498 205.861364 
L 121.16736 204.894763 
L 121.362153 203.195036 
L 121.427084 203.441071 
L 121.621876 207.260319 
L 122.336116 225.067534 
L 122.465978 225.209187 
L 122.59584 224.728778 
L 122.790633 223.174279 
L 123.115287 219.981294 
L 123.180218 219.952793 
L 123.245149 219.024846 
L 123.375011 208.867477 
L 123.569804 148.707546 
L 123.829527 62.981301 
L 123.959389 92.352756 
L 124.348975 223.061659 
L 124.478836 226.044348 
L 124.608698 225.537337 
L 124.73856 226.876987 
L 125.258007 234.162425 
L 125.322938 234.403476 
L 125.387869 234.281314 
L 125.517731 232.574946 
L 126.296902 215.324653 
L 126.361833 215.027833 
L 126.426764 215.180359 
L 126.686487 216.459401 
L 126.816349 215.899495 
L 127.011142 214.097714 
L 127.660451 204.126677 
L 127.725382 204.273777 
L 127.855244 206.007291 
L 128.050036 213.036412 
L 128.699345 243.286002 
L 128.894138 245.526164 
L 128.959069 245.44988 
L 129.088931 243.77481 
L 129.413585 235.94415 
L 129.478516 236.07231 
L 129.73824 237.895489 
L 129.933033 236.629375 
L 130.387549 232.849506 
L 130.45248 232.827469 
L 131.036858 234.505759 
L 131.361513 237.316662 
L 131.88096 241.352499 
L 132.010822 241.304146 
L 132.140684 240.532929 
L 132.335476 236.862399 
L 132.5952 225.920675 
L 133.049716 205.755214 
L 133.179578 204.342553 
L 133.244509 204.395188 
L 133.374371 205.677553 
L 134.153542 217.126155 
L 134.218473 217.193744 
L 134.348335 216.673842 
L 134.543127 215.540871 
L 134.608058 215.731303 
L 134.802851 218.876106 
L 135.257367 231.671032 
L 135.517091 237.935398 
L 135.646953 238.343672 
L 135.776815 237.824551 
L 136.101469 234.935311 
L 136.296262 233.18609 
L 136.426124 233.346945 
L 136.491055 232.416124 
L 136.620916 221.262509 
L 136.815709 155.864334 
L 137.075433 65.240773 
L 137.140364 73.117441 
L 137.724742 233.63975 
L 137.854604 233.565098 
L 137.984465 234.578019 
L 138.374051 238.636777 
L 138.568844 239.307982 
L 138.698705 238.213565 
L 138.958429 230.893498 
L 139.412945 219.477045 
L 139.607738 217.676697 
L 139.7376 218.369731 
L 139.932393 219.437368 
L 140.062255 219.096763 
L 140.257047 217.530955 
L 140.581702 211.941504 
L 140.906356 207.190627 
L 140.971287 207.109442 
L 141.101149 208.446898 
L 141.295942 214.820211 
L 141.945251 242.110933 
L 142.140044 244.343041 
L 142.204975 244.422027 
L 142.334836 242.95192 
L 142.919215 229.555217 
L 143.243869 227.746451 
L 143.503593 227.741248 
L 143.633455 227.722658 
L 143.763316 228.122706 
L 144.477556 232.252472 
L 144.672349 237.050577 
L 144.932073 242.514435 
L 144.997004 242.617559 
L 145.126865 242.140454 
L 145.516451 238.733594 
L 145.970967 235.754458 
L 146.360553 234.061659 
L 146.685207 233.6237 
L 146.88 233.71765 
L 147.074793 233.795181 
L 147.204655 233.289659 
L 147.399447 230.594381 
L 147.659171 221.496322 
L 148.243549 195.259602 
L 148.30848 194.717372 
L 148.373411 194.758011 
L 148.503273 196.171016 
L 148.892858 205.335466 
L 149.217513 211.016613 
L 149.412305 212.421103 
L 149.477236 212.370904 
L 149.672029 211.544309 
L 149.73696 211.69656 
L 149.866822 213.539432 
L 150.321338 227.430337 
L 150.710924 239.70381 
L 150.840785 240.237328 
L 151.035578 239.930124 
L 151.16544 239.319596 
L 151.619956 234.321244 
L 151.749818 228.258158 
L 151.87968 202.206229 
L 152.269265 55.226982 
L 152.334196 66.40532 
L 152.853644 234.220818 
L 153.30816 240.044421 
L 153.762676 244.011668 
L 153.827607 243.819722 
L 153.957469 241.543004 
L 154.73664 220.84941 
L 154.801571 220.664774 
L 154.931433 221.532136 
L 155.126225 222.801746 
L 155.191156 222.751905 
L 155.321018 222.13711 
L 155.515811 219.763169 
L 156.16512 210.033724 
L 156.230051 210.266663 
L 156.359913 212.14731 
L 156.554705 219.280103 
L 157.139084 244.310841 
L 157.333876 246.699808 
L 157.398807 246.69301 
L 157.528669 244.681346 
L 158.048116 230.059339 
L 158.697425 224.842012 
L 158.957149 223.967511 
L 159.087011 223.998484 
L 159.281804 224.707898 
L 159.73632 226.599646 
L 160.320698 228.398464 
L 160.45056 228.424093 
L 160.645353 228.089724 
L 160.905076 226.904855 
L 161.749178 223.04933 
L 162.138764 222.69864 
L 162.203695 222.83626 
L 162.333556 223.943647 
L 162.788073 231.893053 
L 162.982865 230.563717 
L 163.567244 225.898353 
L 163.826967 225.638964 
L 163.956829 225.80372 
L 164.151622 226.839326 
L 164.930793 232.400184 
L 164.995724 232.407418 
L 165.125585 231.728217 
L 165.320378 228.222486 
L 165.580102 218.307199 
L 166.034618 200.158238 
L 166.099549 199.768851 
L 166.16448 199.993131 
L 166.359273 203.088622 
L 167.073513 217.2757 
L 167.268305 219.23464 
L 167.333236 219.149843 
L 167.528029 218.031003 
L 167.59296 218.158212 
L 167.722822 219.920463 
L 168.112407 230.710268 
L 168.437062 239.736095 
L 168.631855 240.710726 
L 168.761716 240.452602 
L 168.956509 239.484726 
L 169.475956 235.575221 
L 169.605818 226.052664 
L 169.73568 190.956054 
L 170.060335 54.454111 
L 170.125265 59.053599 
L 170.320058 145.340775 
L 170.579782 230.904289 
L 170.709644 236.065409 
L 170.839505 235.554791 
L 170.904436 235.717502 
L 171.553745 242.950791 
L 171.618676 242.634055 
L 171.748538 240.358992 
L 172.527709 220.060181 
L 172.59264 219.639585 
L 172.657571 219.791663 
L 172.982225 221.785715 
L 173.112087 221.242091 
L 173.30688 219.118585 
L 174.02112 207.819922 
L 174.086051 207.8404 
L 174.215913 209.099832 
L 174.410705 215.760438 
L 175.060015 244.126564 
L 175.254807 246.18427 
L 175.384669 244.135526 
L 175.774255 233.338029 
L 176.358633 230.465392 
L 176.488495 230.345868 
L 176.618356 230.490847 
L 176.87808 231.141 
L 177.527389 233.695117 
L 177.787113 233.649326 
L 177.916975 234.558215 
L 178.30656 241.676347 
L 178.371491 241.583901 
L 178.566284 240.10823 
L 179.540247 230.524685 
L 179.73504 230.182376 
L 179.929833 230.179155 
L 180.059695 230.370949 
L 180.579142 232.34997 
L 180.644073 232.323224 
L 180.773935 231.400357 
L 180.968727 226.855296 
L 181.682967 200.865808 
L 181.747898 200.972423 
L 181.87776 202.571272 
L 182.656931 216.89434 
L 182.786793 217.451447 
L 182.851724 217.271285 
L 183.111447 214.786308 
L 183.176378 214.798301 
L 183.30624 216.650876 
L 183.695825 228.10673 
L 184.02048 235.997873 
L 184.150342 236.312733 
L 184.345135 235.643643 
L 184.539927 234.429301 
L 185.059375 227.973904 
L 185.189236 218.031113 
L 185.319098 184.059209 
L 185.643753 59.82083 
L 185.708684 66.48021 
L 186.293062 232.782614 
L 186.422924 232.057127 
L 186.487855 232.235264 
L 186.942371 238.352265 
L 187.137164 240.304589 
L 187.202095 240.262535 
L 187.331956 238.329675 
L 188.111127 218.801006 
L 188.176058 218.449316 
L 188.240989 218.64991 
L 188.500713 220.542385 
L 188.565644 220.447712 
L 188.760436 219.007814 
L 189.02016 214.219978 
L 189.474676 204.939778 
L 189.604538 204.537113 
L 189.7344 206.034785 
L 189.929193 213.463034 
L 190.578502 245.887525 
L 190.773295 248.38319 
L 190.838225 248.311543 
L 190.968087 246.039565 
L 191.422604 234.335097 
L 192.006982 229.630046 
L 192.071913 229.644514 
L 192.201775 231.143671 
L 192.656291 239.1532 
L 192.786153 239.041951 
L 193.110807 237.907582 
L 193.370531 236.991518 
L 193.630255 237.076003 
L 193.954909 236.459179 
L 194.604218 237.001684 
L 194.73408 236.831493 
L 194.863942 236.159127 
L 195.058735 232.77513 
L 195.318458 223.010542 
L 195.837905 201.580611 
L 195.967767 200.894523 
L 196.097629 202.012661 
L 196.422284 208.811497 
L 196.811869 215.291058 
L 197.071593 216.411144 
L 197.136524 216.37048 
L 197.396247 214.871165 
L 197.461178 214.947077 
L 197.59104 216.684999 
L 197.915695 225.632121 
L 198.30528 235.003989 
L 198.435142 235.246736 
L 198.565004 234.853144 
L 198.824727 233.163652 
L 199.344175 225.817997 
L 199.474036 210.419921 
L 199.668829 138.551125 
L 199.863622 68.340449 
L 199.928553 69.251152 
L 200.123345 144.134618 
L 200.383069 226.903322 
L 200.512931 232.408583 
L 200.642793 231.981843 
L 200.707724 232.113745 
L 201.032378 237.118316 
L 201.357033 240.325871 
L 201.421964 240.387044 
L 201.551825 239.265511 
L 201.87648 230.313569 
L 202.330996 220.680942 
L 202.460858 219.954654 
L 202.59072 220.567777 
L 202.785513 221.173455 
L 202.915375 220.676496 
L 203.045236 219.371709 
L 203.434822 210.876208 
L 203.694545 206.777813 
L 203.824407 206.391791 
L 203.954269 207.875175 
L 204.149062 214.887577 
L 204.863302 247.440074 
L 204.993164 248.52745 
L 205.058095 248.471947 
L 205.187956 246.280362 
L 205.577542 234.397336 
L 205.642473 234.517354 
L 206.032058 238.531369 
L 206.096989 238.261223 
L 206.681367 234.884386 
L 206.811229 235.022859 
L 207.330676 236.780354 
L 207.720262 239.301333 
L 207.979985 240.725374 
L 208.239709 241.770468 
L 208.369571 241.221913 
L 208.564364 238.122091 
L 208.824087 228.301262 
L 209.343535 205.32514 
L 209.473396 203.974309 
L 209.538327 204.091003 
L 209.73312 206.585469 
L 210.252567 214.924724 
L 210.577222 216.549648 
L 210.707084 215.819729 
L 210.836945 215.161161 
L 210.901876 215.409381 
L 211.096669 218.914766 
L 211.87584 236.370399 
L 212.005702 235.943982 
L 212.265425 234.334076 
L 212.784873 229.636191 
L 212.914735 218.031473 
L 213.109527 152.531871 
L 213.369251 65.857785 
L 213.499113 97.180837 
L 213.888698 229.057258 
L 214.083491 233.031435 
L 214.148422 233.092951 
L 214.278284 234.454763 
L 214.7328 240.189699 
L 214.862662 240.811754 
L 214.927593 240.611454 
L 215.057455 238.529258 
L 215.836625 219.410472 
L 215.901556 219.127992 
L 215.966487 219.314983 
L 216.226211 220.569612 
L 216.356073 219.860089 
L 216.550865 217.668863 
L 217.265105 206.074069 
L 217.394967 207.394626 
L 217.58976 213.771541 
L 218.304 245.547574 
L 218.498793 247.742171 
L 218.563724 247.545213 
L 218.693585 244.831078 
L 219.083171 234.022052 
L 219.472756 231.346385 
L 219.73248 230.761811 
L 219.927273 230.404951 
L 220.122065 230.135169 
L 220.251927 230.705554 
L 220.44672 234.451609 
L 220.771375 240.692362 
L 220.836305 240.709658 
L 220.966167 240.317964 
L 221.290822 238.067551 
L 221.550545 236.775401 
L 221.745338 236.346377 
L 222.134924 235.196301 
L 222.329716 234.912449 
L 222.58944 234.394893 
L 222.849164 234.259994 
L 222.979025 233.785421 
L 223.173818 231.578843 
L 223.368611 226.412756 
L 224.147782 197.370314 
L 224.277644 198.674144 
L 225.251607 216.235388 
L 225.381469 215.642963 
L 225.576262 214.803719 
L 225.706124 216.273953 
L 226.16064 228.019166 
L 226.485295 236.880508 
L 226.615156 237.221212 
L 226.745018 236.77243 
L 227.069673 234.24879 
L 227.264465 232.43388 
L 227.394327 232.739427 
L 227.459258 232.369453 
L 227.58912 224.549312 
L 227.718982 193.364098 
L 228.043636 55.96869 
L 228.108567 56.619354 
L 228.238429 102.069561 
L 228.563084 227.421789 
L 228.757876 235.165486 
L 228.822807 234.998688 
L 228.887738 235.036677 
L 229.082531 237.343307 
L 229.537047 242.753744 
L 229.601978 242.68401 
L 229.73184 240.795722 
L 230.575942 218.364811 
L 230.640873 218.398525 
L 230.965527 220.595572 
L 231.030458 220.518244 
L 231.225251 219.363261 
L 231.484975 215.36266 
L 231.939491 207.82274 
L 232.004422 207.817962 
L 232.134284 209.121338 
L 232.329076 215.189841 
L 233.043316 245.489219 
L 233.238109 247.18234 
L 233.30304 246.728389 
L 233.497833 240.916626 
L 233.757556 233.890313 
L 234.277004 230.781534 
L 234.536727 230.055662 
L 234.666589 230.038516 
L 234.796451 230.504967 
L 235.250967 232.440434 
L 235.44576 232.897573 
L 235.575622 233.765542 
L 235.835345 239.231617 
L 236.030138 241.717755 
L 236.095069 241.636095 
L 236.289862 240.470531 
L 237.393687 231.603291 
L 237.58848 231.537796 
L 237.848204 231.367811 
L 238.30272 231.559473 
L 238.432582 230.788081 
L 238.627375 226.77592 
L 238.952029 212.139421 
L 239.276684 199.180718 
L 239.406545 197.9472 
L 239.536407 198.995205 
L 239.861062 206.227587 
L 240.250647 214.573083 
L 240.44544 215.891277 
L 240.510371 215.861291 
L 240.705164 214.287296 
L 240.835025 213.655836 
L 240.964887 214.85516 
L 241.354473 224.591832 
L 241.87392 237.130582 
L 241.938851 237.065393 
L 242.133644 235.917065 
L 242.58816 232.531565 
L 242.653091 232.665174 
L 242.718022 232.490279 
L 242.782953 231.046885 
L 242.912815 217.65849 
L 243.107607 145.455037 
L 243.367331 54.912905 
L 243.497193 91.470333 
L 243.821847 224.010935 
L 244.01664 234.955707 
L 244.146502 235.160062 
L 244.341295 237.630513 
L 244.795811 242.552452 
L 244.860742 242.659251 
L 244.990604 241.429844 
L 245.315258 231.569221 
L 245.769775 220.593121 
L 245.899636 219.874161 
L 246.224291 221.84809 
L 246.289222 221.745579 
L 246.484015 220.617969 
L 246.743738 217.141037 
L 247.263185 208.374022 
L 247.328116 208.355955 
L 247.457978 209.965931 
L 247.652771 216.975911 
L 248.30208 245.555995 
L 248.496873 247.744526 
L 248.561804 247.5407 
L 248.691665 244.71173 
L 249.081251 234.263764 
L 249.535767 231.223846 
L 249.860422 230.593962 
L 249.990284 230.55091 
L 250.120145 230.80579 
L 250.704524 232.90256 
L 250.834385 234.151909 
L 251.288902 242.205006 
L 251.353833 241.97054 
L 251.613556 239.799405 
L 252.197935 234.245883 
L 252.58752 231.608944 
L 253.106967 230.902506 
L 253.236829 231.166179 
L 253.496553 231.700992 
L 253.626415 230.952395 
L 253.821207 227.646558 
L 254.080931 217.752775 
L 254.535447 198.429198 
L 254.600378 197.796361 
L 254.665309 197.816794 
L 254.795171 199.34031 
L 255.184756 209.042861 
L 255.509411 215.170582 
L 255.704204 216.774838 
L 255.769135 216.783918 
L 255.963927 215.067255 
L 256.093789 214.427121 
L 256.223651 215.71738 
L 256.613236 225.629225 
L 257.067753 237.636974 
L 257.132684 237.71787 
L 257.262545 237.096032 
L 257.652131 233.655692 
L 257.846924 232.267806 
L 257.911855 232.317454 
L 257.976785 231.754818 
L 258.106647 223.21889 
L 258.236509 190.820611 
L 258.561164 54.017635 
L 258.626095 56.432233 
L 258.820887 139.635066 
L 259.080611 227.923153 
L 259.275404 234.030579 
L 259.340335 233.919773 
L 259.470196 235.114006 
L 259.924713 241.534953 
L 260.054575 242.194577 
L 260.119505 242.076866 
L 260.249367 240.331412 
L 261.093469 219.177948 
L 261.1584 219.185816 
L 261.547985 221.152439 
L 261.677847 220.675918 
L 261.87264 218.032231 
L 262.521949 206.440977 
L 262.651811 207.616484 
L 262.846604 214.04239 
L 263.560844 247.108816 
L 263.755636 248.639774 
L 263.885498 246.443936 
L 264.340015 233.812085 
L 264.924393 229.347028 
L 265.054255 229.191667 
L 265.184116 229.722218 
L 265.378909 233.472488 
L 265.638633 238.818956 
L 265.768495 239.187084 
L 265.898356 239.110266 
L 266.093149 238.723048 
L 266.937251 235.779852 
L 267.58656 236.719448 
L 267.716422 236.548394 
L 267.911215 235.579054 
L 268.106007 233.046009 
L 268.365731 225.166742 
L 268.950109 201.272881 
L 269.01504 200.98488 
L 269.144902 201.995754 
L 269.469556 208.513038 
L 269.924073 216.922696 
L 270.183796 217.849431 
L 270.313658 217.242805 
L 270.508451 216.096744 
L 270.573382 216.294959 
L 270.768175 219.457063 
L 271.15776 230.389133 
L 271.417484 236.646624 
L 271.547345 237.103665 
L 271.677207 236.664892 
L 271.936931 234.540151 
L 272.456378 225.953979 
L 272.58624 207.167174 
L 272.845964 98.040687 
L 272.975825 62.425601 
L 273.040756 67.064314 
L 273.235549 149.451627 
L 273.495273 229.084836 
L 273.625135 233.260524 
L 273.754996 232.351577 
L 273.819927 232.505053 
L 274.469236 241.241525 
L 274.534167 241.135762 
L 274.664029 239.437267 
L 275.508131 219.315404 
L 275.573062 219.339248 
L 275.832785 220.763601 
L 275.897716 220.665276 
L 276.092509 219.200338 
L 276.352233 214.762473 
L 276.87168 206.019325 
L 276.936611 205.885312 
L 277.001542 206.2423 
L 277.131404 208.932922 
L 277.391127 221.915577 
L 277.845644 244.113457 
L 278.105367 248.272094 
L 278.170298 248.211701 
L 278.30016 245.668973 
L 278.689745 234.514053 
L 278.819607 235.760408 
L 279.079331 238.202058 
L 279.209193 237.548199 
L 279.793571 233.221523 
L 279.858502 233.258902 
L 280.313018 235.155663 
L 280.637673 237.711588 
L 281.15712 240.90735 
L 281.286982 241.108608 
L 281.351913 241.051189 
L 281.481775 240.212986 
L 281.676567 236.328939 
L 282.001222 222.520951 
L 282.390807 206.183166 
L 282.5856 204.538063 
L 282.715462 205.387065 
L 283.040116 211.366752 
L 283.364771 216.275793 
L 283.559564 217.096683 
L 283.689425 216.298589 
L 283.949149 214.069868 
L 284.079011 215.253095 
L 284.403665 222.746879 
L 284.923113 236.285954 
L 284.988044 236.425654 
L 285.052975 236.31877 
L 285.247767 235.154822 
L 285.507491 232.07831 
L 285.702284 230.197516 
L 285.767215 230.013551 
L 285.832145 229.174568 
L 285.962007 220.12424 
L 286.091869 188.515457 
L 286.416524 66.538066 
L 286.481455 71.239935 
L 286.676247 151.299411 
L 286.935971 228.224722 
L 287.065833 232.588758 
L 287.195695 232.191444 
L 287.325556 233.438305 
L 287.780073 239.994466 
L 287.909935 240.843578 
L 287.974865 240.809936 
L 288.104727 239.054231 
L 288.883898 219.795063 
L 288.948829 219.496498 
L 289.01376 219.675572 
L 289.273484 220.894232 
L 289.403345 220.22708 
L 289.663069 217.169964 
L 290.312378 206.551854 
L 290.377309 206.858085 
L 290.507171 209.156913 
L 290.766895 220.615485 
L 291.286342 244.792764 
L 291.546065 248.176069 
L 291.610996 247.976904 
L 291.740858 245.630284 
L 292.195375 233.856159 
L 292.455098 231.452306 
L 292.520029 231.697243 
L 292.714822 235.092082 
L 292.974545 238.049081 
L 293.169338 237.757992 
L 293.493993 236.971621 
L 293.688785 236.446325 
L 293.818647 236.651357 
L 295.052335 240.64524 
L 295.117265 240.577595 
L 295.247127 239.872006 
L 295.44192 236.409646 
L 295.701644 226.163276 
L 296.221091 201.757945 
L 296.350953 200.802252 
L 296.480815 201.994835 
L 297.389847 216.430418 
L 297.454778 216.47108 
L 297.649571 215.002673 
L 297.779433 214.604434 
L 297.909295 216.055945 
L 298.363811 227.61964 
L 298.753396 236.990421 
L 298.818327 237.181871 
L 298.883258 237.096423 
L 299.078051 235.819112 
L 299.337775 232.659672 
L 299.532567 231.421786 
L 299.597498 231.46013 
L 299.662429 230.71604 
L 299.792291 221.181253 
L 299.922153 187.40117 
L 300.246807 57.821176 
L 300.311738 62.124931 
L 300.506531 144.397824 
L 300.766255 226.992795 
L 300.961047 232.988003 
L 301.025978 232.985185 
L 301.15584 234.290338 
L 301.610356 240.949905 
L 301.740218 241.64497 
L 301.805149 241.528721 
L 301.935011 239.660873 
L 302.779113 219.177279 
L 302.844044 219.228893 
L 303.168698 220.765167 
L 303.29856 220.24848 
L 303.493353 218.24726 
L 304.142662 208.357708 
L 304.207593 208.42909 
L 304.337455 210.126492 
L 304.532247 217.026699 
L 305.181556 246.054347 
L 305.376349 248.049369 
L 305.44128 247.901089 
L 305.571142 245.575299 
L 306.025658 233.844476 
L 306.480175 231.03707 
L 306.86976 230.07879 
L 306.934691 230.088754 
L 307.064553 230.46322 
L 307.194415 232.010806 
L 307.648931 241.241522 
L 307.713862 241.239267 
L 307.843724 240.851631 
L 308.103447 238.634372 
L 308.363171 236.962217 
L 308.557964 236.579653 
L 308.947549 235.410625 
L 309.077411 235.398229 
L 309.531927 234.711267 
L 309.661789 234.53681 
L 309.856582 233.379164 
L 310.051375 230.533837 
L 310.311098 222.17422 
L 310.960407 196.842487 
L 311.025338 197.046312 
L 311.220131 200.493126 
L 311.804509 213.720797 
L 312.064233 215.975708 
L 312.129164 215.931419 
L 312.388887 214.423497 
L 312.518749 215.48406 
L 312.843404 223.243662 
L 313.427782 237.330593 
L 313.622575 236.545452 
L 313.882298 234.892006 
L 314.142022 232.557753 
L 314.206953 232.693106 
L 314.271884 232.622055 
L 314.336815 231.374277 
L 314.466676 218.624677 
L 314.661469 147.340459 
L 314.921193 53.568 
L 315.051055 88.163603 
L 315.44064 230.546656 
L 315.570502 234.366195 
L 315.700364 234.323396 
L 315.830225 235.727685 
L 316.349673 242.811178 
L 316.414604 242.914578 
L 316.544465 241.523616 
L 317.453498 218.638981 
L 317.518429 218.87518 
L 317.843084 220.823292 
L 317.972945 220.310523 
L 318.167738 218.170606 
L 318.817047 208.346687 
L 318.881978 208.331293 
L 319.01184 209.710461 
L 319.206633 216.698713 
L 319.855942 245.449551 
L 320.050735 247.935444 
L 320.115665 247.784278 
L 320.245527 244.981244 
L 320.635113 233.880653 
L 321.089629 230.522701 
L 321.349353 229.614134 
L 321.414284 229.631875 
L 321.609076 230.521018 
L 321.8688 231.541489 
L 321.998662 231.780802 
L 322.128524 232.448963 
L 322.258385 234.576662 
L 322.647971 242.560213 
L 322.777833 242.135035 
L 323.037556 240.280797 
L 323.557004 235.984396 
L 324.206313 233.099418 
L 324.401105 233.121068 
L 324.660829 233.23261 
L 324.790691 233.12114 
L 324.920553 232.642796 
L 325.115345 230.044934 
L 325.375069 221.43835 
L 325.959447 199.053133 
L 326.024378 199.051067 
L 326.15424 200.556032 
L 326.608756 211.642231 
L 326.933411 216.784546 
L 327.063273 217.323566 
L 327.128204 217.187818 
L 327.387927 215.101719 
L 327.452858 215.118599 
L 327.58272 216.791322 
L 328.167098 232.541416 
L 328.426822 237.598391 
L 328.491753 237.754781 
L 328.556684 237.706252 
L 328.751476 236.904675 
L 328.946269 235.093537 
L 329.205993 232.244247 
L 329.270924 232.243458 
L 329.335855 231.702239 
L 329.465716 223.504161 
L 329.595578 192.234713 
L 329.920233 54.90817 
L 329.985164 55.904276 
L 330.179956 136.324645 
L 330.43968 226.159735 
L 330.634473 232.943404 
L 330.699404 232.801987 
L 330.764335 233.05092 
L 331.413644 241.038471 
L 331.478575 240.996374 
L 331.608436 239.340138 
L 332.452538 218.858304 
L 332.517469 218.849955 
L 332.842124 220.539751 
L 332.971985 219.897896 
L 333.166778 217.530827 
L 333.816087 206.142536 
L 333.881018 206.122135 
L 334.01088 207.415641 
L 334.205673 213.579373 
L 334.984844 246.579824 
L 335.114705 247.322622 
L 335.179636 246.84808 
L 335.374429 240.960776 
L 335.699084 232.899703 
L 336.088669 230.180854 
L 336.348393 228.805698 
L 336.413324 228.877049 
L 336.543185 230.012826 
L 337.062633 239.287178 
L 337.257425 239.213355 
L 337.387287 238.907615 
L 337.776873 237.176159 
L 337.841804 237.209855 
L 337.971665 237.172392 
L 338.29632 236.803747 
L 338.945629 237.410229 
L 339.075491 237.170456 
L 339.270284 235.860463 
L 339.465076 232.359941 
L 339.7248 222.515705 
L 340.244247 200.993642 
L 340.309178 200.476407 
L 340.374109 200.521754 
L 340.503971 201.839872 
L 340.893556 210.626573 
L 341.218211 216.487776 
L 341.413004 217.469378 
L 341.477935 217.401122 
L 341.802589 215.406551 
L 341.86752 215.847788 
L 342.062313 219.588711 
L 342.841484 236.89168 
L 342.971345 236.573205 
L 343.166138 235.179439 
L 343.685585 229.685308 
L 343.815447 220.724051 
L 343.945309 188.881026 
L 344.269964 62.85883 
L 344.334895 67.133382 
L 344.529687 148.966695 
L 344.789411 228.655558 
L 344.919273 232.965732 
L 345.049135 232.548429 
L 345.178996 233.877002 
L 345.568582 239.405619 
L 345.828305 241.110253 
L 345.958167 239.410539 
L 346.802269 218.267762 
L 346.8672 218.429979 
L 347.126924 220.348763 
L 347.191855 220.264741 
L 347.386647 218.924505 
L 347.646371 214.77902 
L 348.100887 206.537273 
L 348.230749 206.149428 
L 348.360611 207.667842 
L 348.555404 214.862497 
L 349.204713 246.742106 
L 349.399505 249.16076 
L 349.464436 249.037235 
L 349.594298 246.672963 
L 350.048815 234.396081 
L 350.503331 230.416255 
L 350.763055 229.467315 
L 350.892916 229.956113 
L 351.022778 231.705063 
L 351.477295 240.486379 
L 351.607156 240.6146 
L 351.737018 240.463367 
L 351.931811 239.62806 
L 352.321396 237.805598 
L 352.775913 236.960117 
L 353.100567 237.184279 
L 353.360291 237.344363 
L 353.490153 237.085998 
L 353.684945 235.81472 
L 353.879738 232.32998 
L 354.204393 220.350558 
L 354.72384 198.925672 
L 354.788771 198.532111 
L 354.853702 198.708432 
L 355.048495 201.552397 
L 355.697804 215.245784 
L 355.892596 216.014793 
L 356.022458 215.319161 
L 356.217251 213.792931 
L 356.282182 213.940428 
L 356.412044 215.885196 
L 356.86656 229.007136 
L 357.191215 236.868045 
L 357.256145 237.014436 
L 357.321076 236.903601 
L 357.515869 235.929609 
L 357.775593 233.470752 
L 357.970385 231.450151 
L 358.035316 231.465002 
L 358.100247 231.326761 
L 358.165178 230.112985 
L 358.29504 218.031226 
L 358.489833 149.562706 
L 358.749556 57.997379 
L 358.879418 91.127114 
L 359.269004 229.125786 
L 359.398865 232.908019 
L 359.528727 232.942004 
L 359.658589 234.462931 
L 360.113105 241.379997 
L 360.242967 242.017125 
L 360.307898 241.785222 
L 360.43776 239.547442 
L 361.216931 219.04339 
L 361.281862 218.697092 
L 361.346793 218.79604 
L 361.671447 220.321103 
L 361.801309 220.062813 
L 361.931171 218.975811 
L 362.320756 211.348304 
L 362.58048 208.15386 
L 362.645411 207.96241 
L 362.710342 208.145672 
L 362.840204 209.86197 
L 363.034996 217.047338 
L 363.684305 246.940152 
L 363.879098 248.679978 
L 363.944029 248.309269 
L 364.073891 245.294628 
L 364.463476 234.360891 
L 365.112785 229.657643 
L 365.177716 229.741711 
L 365.307578 231.222576 
L 365.762095 239.930847 
L 365.891956 240.020195 
L 366.021818 239.801119 
L 366.476335 238.662696 
L 366.606196 238.718683 
L 366.995782 238.065742 
L 367.060713 238.116035 
L 367.385367 238.595404 
L 367.645091 239.184819 
L 367.774953 238.973114 
L 367.969745 238.031946 
L 368.164538 234.820586 
L 368.424262 225.462964 
L 369.00864 201.23397 
L 369.073571 201.107885 
L 369.203433 202.394654 
L 369.528087 209.84566 
L 369.917673 217.808138 
L 370.112465 219.166857 
L 370.177396 219.23261 
L 370.307258 218.519536 
L 370.502051 217.569757 
L 370.631913 218.651405 
L 371.021498 227.526372 
L 371.476015 238.879083 
L 371.540945 238.934752 
L 371.670807 238.269938 
L 371.995462 234.806083 
L 372.255185 231.69983 
L 372.320116 231.65116 
L 372.385047 231.285668 
L 372.449978 229.524342 
L 372.57984 214.758186 
L 372.774633 140.592049 
L 373.034356 56.554387 
L 373.164218 95.610752 
L 373.488873 221.936958 
L 373.683665 231.220379 
L 373.748596 231.209128 
L 373.813527 231.349753 
L 374.00832 233.991798 
L 374.397905 238.697127 
L 374.462836 238.976888 
L 374.527767 238.949454 
L 374.657629 237.617744 
L 374.982284 227.845267 
L 375.501731 214.810547 
L 375.566662 214.377971 
L 375.631593 214.391939 
L 375.891316 215.273867 
L 376.021178 214.733605 
L 376.215971 212.517981 
L 376.86528 201.561512 
L 376.930211 201.523683 
L 377.060073 202.766773 
L 377.254865 208.835287 
L 378.034036 243.355777 
L 378.163898 244.513239 
L 378.228829 244.170653 
L 378.423622 238.668725 
L 378.683345 231.663196 
L 378.943069 230.007853 
L 379.202793 229.426735 
L 379.527447 229.288879 
L 379.657309 229.714822 
L 379.787171 230.988668 
L 380.046895 237.824658 
L 380.306618 242.269454 
L 380.43648 242.561701 
L 380.566342 242.185354 
L 380.955927 240.647242 
L 381.085789 240.710936 
L 381.215651 240.299303 
L 381.475375 239.025836 
L 381.605236 239.188964 
L 381.86496 239.511482 
L 381.994822 239.647338 
L 382.254545 240.297313 
L 382.319476 240.244239 
L 382.449338 239.642157 
L 382.644131 237.387852 
L 382.838924 232.559178 
L 383.228509 214.374499 
L 383.553164 203.605831 
L 383.618095 203.270149 
L 383.683025 203.483384 
L 383.877818 206.373603 
L 384.527127 218.798464 
L 384.656989 219.228579 
L 384.72192 219.114177 
L 384.916713 217.257397 
L 385.046575 216.413625 
L 385.111505 216.646173 
L 385.306298 219.935719 
L 385.695884 230.676178 
L 386.020538 238.337155 
L 386.085469 238.411911 
L 386.215331 238.019928 
L 386.475055 236.234879 
L 386.994502 230.095458 
L 387.124364 215.451661 
L 387.319156 141.410784 
L 387.57888 57.929638 
L 387.708742 97.712935 
L 388.033396 223.734226 
L 388.228189 232.758516 
L 388.358051 233.142723 
L 389.072291 241.06691 
L 389.202153 239.523544 
L 390.111185 217.415671 
L 390.241047 218.000155 
L 390.43584 218.915536 
L 390.565702 218.653681 
L 390.695564 217.794607 
L 390.955287 213.224991 
L 391.344873 205.919157 
L 391.474735 205.424528 
L 391.604596 206.628256 
L 391.799389 212.660945 
L 392.57856 246.39141 
L 392.708422 247.264036 
L 392.773353 246.937362 
L 392.903215 243.994588 
L 393.2928 233.299774 
L 393.747316 229.615728 
L 394.00704 228.697422 
L 394.071971 228.806048 
L 394.201833 230.206647 
L 394.656349 239.444721 
L 394.851142 239.80854 
L 394.981004 239.639786 
L 395.43552 237.912113 
L 395.500451 237.964117 
L 395.890036 238.235085 
L 396.14976 238.623496 
L 396.344553 238.684329 
L 396.669207 239.12212 
L 396.799069 238.930526 
L 396.928931 237.855807 
L 397.123724 233.411846 
L 397.513309 215.891402 
L 397.902895 201.365534 
L 397.967825 201.002032 
L 398.032756 201.248716 
L 398.227549 204.42529 
L 398.487273 210.566978 
L 398.487273 210.566978 
" style="fill:none;stroke:#1f77b4;stroke-linecap:square;stroke-width:1.5;"/>
   </g>
   <g id="patch_3">
    <path d="M 57.6 307.584 
L 57.6 41.472 
" style="fill:none;stroke:#000000;stroke-linecap:square;stroke-linejoin:miter;stroke-width:0.8;"/>
   </g>
   <g id="patch_4">
    <path d="M 414.72 307.584 
L 414.72 41.472 
" style="fill:none;stroke:#000000;stroke-linecap:square;stroke-linejoin:miter;stroke-width:0.8;"/>
   </g>
   <g id="patch_5">
    <path d="M 57.6 307.584 
L 414.72 307.584 
" style="fill:none;stroke:#000000;stroke-linecap:square;stroke-linejoin:miter;stroke-width:0.8;"/>
   </g>
   <g id="patch_6">
    <path d="M 57.6 41.472 
L 414.72 41.472 
" style="fill:none;stroke:#000000;stroke-linecap:square;stroke-linejoin:miter;stroke-width:0.8;"/>
   </g>
   <g id="text_21">
    <!-- Matched Filtered ecg -->
    <defs>
     <path d="M 9.8125 72.90625 
L 24.515625 72.90625 
L 43.109375 23.296875 
L 61.8125 72.90625 
L 76.515625 72.90625 
L 76.515625 0 
L 66.890625 0 
L 66.890625 64.015625 
L 48.09375 14.015625 
L 38.1875 14.015625 
L 19.390625 64.015625 
L 19.390625 0 
L 9.8125 0 
z
" id="DejaVuSans-77"/>
     <path d="M 34.28125 27.484375 
Q 23.390625 27.484375 19.1875 25 
Q 14.984375 22.515625 14.984375 16.5 
Q 14.984375 11.71875 18.140625 8.90625 
Q 21.296875 6.109375 26.703125 6.109375 
Q 34.1875 6.109375 38.703125 11.40625 
Q 43.21875 16.703125 43.21875 25.484375 
L 43.21875 27.484375 
z
M 52.203125 31.203125 
L 52.203125 0 
L 43.21875 0 
L 43.21875 8.296875 
Q 40.140625 3.328125 35.546875 0.953125 
Q 30.953125 -1.421875 24.3125 -1.421875 
Q 15.921875 -1.421875 10.953125 3.296875 
Q 6 8.015625 6 15.921875 
Q 6 25.140625 12.171875 29.828125 
Q 18.359375 34.515625 30.609375 34.515625 
L 43.21875 34.515625 
L 43.21875 35.40625 
Q 43.21875 41.609375 39.140625 45 
Q 35.0625 48.390625 27.6875 48.390625 
Q 23 48.390625 18.546875 47.265625 
Q 14.109375 46.140625 10.015625 43.890625 
L 10.015625 52.203125 
Q 14.9375 54.109375 19.578125 55.046875 
Q 24.21875 56 28.609375 56 
Q 40.484375 56 46.34375 49.84375 
Q 52.203125 43.703125 52.203125 31.203125 
z
" id="DejaVuSans-97"/>
     <path d="M 48.78125 52.59375 
L 48.78125 44.1875 
Q 44.96875 46.296875 41.140625 47.34375 
Q 37.3125 48.390625 33.40625 48.390625 
Q 24.65625 48.390625 19.8125 42.84375 
Q 14.984375 37.3125 14.984375 27.296875 
Q 14.984375 17.28125 19.8125 11.734375 
Q 24.65625 6.203125 33.40625 6.203125 
Q 37.3125 6.203125 41.140625 7.25 
Q 44.96875 8.296875 48.78125 10.40625 
L 48.78125 2.09375 
Q 45.015625 0.34375 40.984375 -0.53125 
Q 36.96875 -1.421875 32.421875 -1.421875 
Q 20.0625 -1.421875 12.78125 6.34375 
Q 5.515625 14.109375 5.515625 27.296875 
Q 5.515625 40.671875 12.859375 48.328125 
Q 20.21875 56 33.015625 56 
Q 37.15625 56 41.109375 55.140625 
Q 45.0625 54.296875 48.78125 52.59375 
z
" id="DejaVuSans-99"/>
     <path d="M 54.890625 33.015625 
L 54.890625 0 
L 45.90625 0 
L 45.90625 32.71875 
Q 45.90625 40.484375 42.875 44.328125 
Q 39.84375 48.1875 33.796875 48.1875 
Q 26.515625 48.1875 22.3125 43.546875 
Q 18.109375 38.921875 18.109375 30.90625 
L 18.109375 0 
L 9.078125 0 
L 9.078125 75.984375 
L 18.109375 75.984375 
L 18.109375 46.1875 
Q 21.34375 51.125 25.703125 53.5625 
Q 30.078125 56 35.796875 56 
Q 45.21875 56 50.046875 50.171875 
Q 54.890625 44.34375 54.890625 33.015625 
z
" id="DejaVuSans-104"/>
     <path id="DejaVuSans-32"/>
     <path d="M 9.8125 72.90625 
L 51.703125 72.90625 
L 51.703125 64.59375 
L 19.671875 64.59375 
L 19.671875 43.109375 
L 48.578125 43.109375 
L 48.578125 34.8125 
L 19.671875 34.8125 
L 19.671875 0 
L 9.8125 0 
z
" id="DejaVuSans-70"/>
     <path d="M 41.109375 46.296875 
Q 39.59375 47.171875 37.8125 47.578125 
Q 36.03125 48 33.890625 48 
Q 26.265625 48 22.1875 43.046875 
Q 18.109375 38.09375 18.109375 28.8125 
L 18.109375 0 
L 9.078125 0 
L 9.078125 54.6875 
L 18.109375 54.6875 
L 18.109375 46.1875 
Q 20.953125 51.171875 25.484375 53.578125 
Q 30.03125 56 36.53125 56 
Q 37.453125 56 38.578125 55.875 
Q 39.703125 55.765625 41.0625 55.515625 
z
" id="DejaVuSans-114"/>
     <path d="M 45.40625 27.984375 
Q 45.40625 37.75 41.375 43.109375 
Q 37.359375 48.484375 30.078125 48.484375 
Q 22.859375 48.484375 18.828125 43.109375 
Q 14.796875 37.75 14.796875 27.984375 
Q 14.796875 18.265625 18.828125 12.890625 
Q 22.859375 7.515625 30.078125 7.515625 
Q 37.359375 7.515625 41.375 12.890625 
Q 45.40625 18.265625 45.40625 27.984375 
z
M 54.390625 6.78125 
Q 54.390625 -7.171875 48.1875 -13.984375 
Q 42 -20.796875 29.203125 -20.796875 
Q 24.46875 -20.796875 20.265625 -20.09375 
Q 16.0625 -19.390625 12.109375 -17.921875 
L 12.109375 -9.1875 
Q 16.0625 -11.328125 19.921875 -12.34375 
Q 23.78125 -13.375 27.78125 -13.375 
Q 36.625 -13.375 41.015625 -8.765625 
Q 45.40625 -4.15625 45.40625 5.171875 
L 45.40625 9.625 
Q 42.625 4.78125 38.28125 2.390625 
Q 33.9375 0 27.875 0 
Q 17.828125 0 11.671875 7.65625 
Q 5.515625 15.328125 5.515625 27.984375 
Q 5.515625 40.671875 11.671875 48.328125 
Q 17.828125 56 27.875 56 
Q 33.9375 56 38.28125 53.609375 
Q 42.625 51.21875 45.40625 46.390625 
L 45.40625 54.6875 
L 54.390625 54.6875 
z
" id="DejaVuSans-103"/>
    </defs>
    <g transform="translate(173.511562 35.472)scale(0.12 -0.12)">
     <use xlink:href="#DejaVuSans-77"/>
     <use x="86.279297" xlink:href="#DejaVuSans-97"/>
     <use x="147.558594" xlink:href="#DejaVuSans-116"/>
     <use x="186.767578" xlink:href="#DejaVuSans-99"/>
     <use x="241.748047" xlink:href="#DejaVuSans-104"/>
     <use x="305.126953" xlink:href="#DejaVuSans-101"/>
     <use x="366.650391" xlink:href="#DejaVuSans-100"/>
     <use x="430.126953" xlink:href="#DejaVuSans-32"/>
     <use x="461.914062" xlink:href="#DejaVuSans-70"/>
     <use x="512.183594" xlink:href="#DejaVuSans-105"/>
     <use x="539.966797" xlink:href="#DejaVuSans-108"/>
     <use x="567.75" xlink:href="#DejaVuSans-116"/>
     <use x="606.958984" xlink:href="#DejaVuSans-101"/>
     <use x="668.482422" xlink:href="#DejaVuSans-114"/>
     <use x="707.345703" xlink:href="#DejaVuSans-101"/>
     <use x="768.869141" xlink:href="#DejaVuSans-100"/>
     <use x="832.345703" xlink:href="#DejaVuSans-32"/>
     <use x="864.132812" xlink:href="#DejaVuSans-101"/>
     <use x="925.65625" xlink:href="#DejaVuSans-99"/>
     <use x="980.636719" xlink:href="#DejaVuSans-103"/>
    </g>
   </g>
  </g>
 </g>
 <defs>
  <clipPath id="p1139a39478">
   <rect height="266.112" width="357.12" x="57.6" y="41.472"/>
  </clipPath>
 </defs>
</svg>
